font.ufo
<glyph name="dollar" format="2">
	<unicode hex="0024"/>
	<advance width="472"/>
	<outline>
		<contour>
			<point x="244" y="-12" type="curve" smooth="yes"/>
			<point x="336" y="-12"/>
			<point x="412" y="52"/>
			<point x="412" y="158" type="curve" smooth="yes"/>
			<point x="412" y="352"/>
			<point x="120" y="342"/>
			<point x="120" y="502" type="curve" smooth="yes"/>
			<point x="120" y="570"/>
			<point x="170" y="624"/>
			<point x="242" y="624" type="curve" smooth="yes"/>
			<point x="306" y="624"/>
			<point x="344" y="602"/>
			<point x="374" y="564" type="curve"/>
			<point x="394" y="580" type="line"/>
			<point x="362" y="622"/>
			<point x="316" y="652"/>
			<point x="244" y="652" type="curve" smooth="yes"/>
			<point x="156" y="652"/>
			<point x="88" y="588"/>
			<point x="88" y="500" type="curve" smooth="yes"/>
			<point x="88" y="320"/>
			<point x="380" y="330"/>
			<point x="380" y="156" type="curve" smooth="yes"/>
			<point x="380" y="74"/>
			<point x="332" y="16"/>
			<point x="244" y="16" type="curve" smooth="yes"/>
			<point x="172" y="16"/>
			<point x="116" y="48"/>
			<point x="80" y="86" type="curve"/>
			<point x="62" y="68" type="line"/>
			<point x="98" y="22"/>
			<point x="166" y="-12"/>
		</contour>
		<contour>
			<point x="228" y="-110" type="line"/>
			<point x="258" y="-110" type="line"/>
			<point x="258" y="-8" type="line"/>
			<point x="228" y="-8" type="line"/>
		</contour>
		<contour>
			<point x="228" y="634" type="line"/>
			<point x="258" y="634" type="line"/>
			<point x="258" y="750" type="line"/>
			<point x="228" y="750" type="line"/>
		</contour>
	</outline>
</glyph>
<glyph name="at" format="2">
	<unicode hex="0040"/>
	<advance width="802"/>
	<outline>
		<contour>
			<point x="382" y="-142" type="curve" smooth="yes"/>
			<point x="450" y="-142"/>
			<point x="512" y="-124"/>
			<point x="568" y="-88" type="curve"/>
			<point x="554" y="-64" type="line"/>
			<point x="506" y="-94"/>
			<point x="452" y="-114"/>
			<point x="384" y="-114" type="curve" smooth="yes"/>
			<point x="202" y="-114"/>
			<point x="82" y="10"/>
			<point x="82" y="204" type="curve" smooth="yes"/>
			<point x="82" y="444"/>
			<point x="256" y="600"/>
			<point x="440" y="600" type="curve" smooth="yes"/>
			<point x="610" y="600"/>
			<point x="720" y="490"/>
			<point x="720" y="314" type="curve" smooth="yes"/>
			<point x="720" y="168"/>
			<point x="638" y="86"/>
			<point x="574" y="86" type="curve" smooth="yes"/>
			<point x="510" y="86"/>
			<point x="488" y="132"/>
			<point x="512" y="228" type="curve" smooth="yes"/>
			<point x="546" y="412" type="line"/>
			<point x="520" y="412" type="line"/>
			<point x="512" y="372" type="line"/>
			<point x="510" y="372" type="line"/>
			<point x="490" y="404"/>
			<point x="462" y="420"/>
			<point x="426" y="420" type="curve" smooth="yes"/>
			<point x="308" y="420"/>
			<point x="242" y="292"/>
			<point x="242" y="198" type="curve" smooth="yes"/>
			<point x="242" y="108"/>
			<point x="294" y="64"/>
			<point x="354" y="64" type="curve" smooth="yes"/>
			<point x="400" y="64"/>
			<point x="440" y="96"/>
			<point x="476" y="134" type="curve"/>
			<point x="478" y="134" type="line"/>
			<point x="482" y="82"/>
			<point x="520" y="58"/>
			<point x="572" y="58" type="curve" smooth="yes"/>
			<point x="652" y="58"/>
			<point x="750" y="148"/>
			<point x="750" y="316" type="curve" smooth="yes"/>
			<point x="750" y="504"/>
			<point x="632" y="628"/>
			<point x="442" y="628" type="curve" smooth="yes"/>
			<point x="236" y="628"/>
			<point x="52" y="460"/>
			<point x="52" y="202" type="curve" smooth="yes"/>
			<point x="52" y="-14"/>
			<point x="190" y="-142"/>
		</contour>
		<contour>
			<point x="356" y="92" type="curve" smooth="yes"/>
			<point x="310" y="92"/>
			<point x="272" y="120"/>
			<point x="272" y="200" type="curve" smooth="yes"/>
			<point x="272" y="288"/>
			<point x="330" y="392"/>
			<point x="424" y="392" type="curve" smooth="yes"/>
			<point x="456" y="392"/>
			<point x="476" y="380"/>
			<point x="502" y="340" type="curve"/>
			<point x="470" y="162" type="line"/>
			<point x="428" y="114"/>
			<point x="390" y="92"/>
		</contour>
	</outline>
</glyph>
<glyph name="M" format="2">
	<unicode hex="004D"/>
	<advance width="698"/>
	<outline>
		<contour>
			<point x="100" y="0" type="line"/>
			<point x="130" y="0" type="line"/>
			<point x="130" y="460" type="line" smooth="yes"/>
			<point x="130" y="512"/>
			<point x="128" y="578"/>
			<point x="126" y="632" type="curve"/>
			<point x="130" y="632" type="line"/>
			<point x="182" y="486" type="line"/>
			<point x="332" y="74" type="line"/>
			<point x="366" y="74" type="line"/>
			<point x="515" y="486" type="line"/>
			<point x="566" y="632" type="line"/>
			<point x="570" y="632" type="line"/>
			<point x="568" y="578"/>
			<point x="566" y="512"/>
			<point x="566" y="460" type="curve" smooth="yes"/>
			<point x="566" y="0" type="line"/>
			<point x="598" y="0" type="line"/>
			<point x="598" y="660" type="line"/>
			<point x="546" y="660" type="line"/>
			<point x="404" y="260" type="line"/>
			<point x="386" y="210"/>
			<point x="370" y="160"/>
			<point x="352" y="110" type="curve"/>
			<point x="348" y="110" type="line"/>
			<point x="330" y="160"/>
			<point x="312" y="210"/>
			<point x="294" y="260" type="curve"/>
			<point x="152" y="660" type="line"/>
			<point x="100" y="660" type="line"/>
		</contour>
	</outline>
	<anchor name="aboveUC" x="350" y="682"/>
	<anchor name="belowLC" x="350" y="-22"/>
</glyph>
<glyph name="N" format="2">
	<unicode hex="004E"/>
	<advance width="632"/>
	<outline>
		<contour>
			<point x="100" y="0" type="line"/>
			<point x="130" y="0" type="line"/>
			<point x="130" y="434" type="line" smooth="yes"/>
			<point x="130" y="496"/>
			<point x="128" y="552"/>
			<point x="126" y="614" type="curve"/>
			<point x="130" y="614" type="line"/>
			<point x="154" y="572"/>
			<point x="180" y="528"/>
			<point x="206" y="484" type="curve" smooth="yes"/>
			<point x="498" y="0" type="line"/>
			<point x="532" y="0" type="line"/>
			<point x="532" y="660" type="line"/>
			<point x="502" y="660" type="line"/>
			<point x="502" y="232" type="line" smooth="yes"/>
			<point x="502" y="170"/>
			<point x="504" y="110"/>
			<point x="506" y="46" type="curve"/>
			<point x="502" y="46" type="line"/>
			<point x="478" y="88"/>
			<point x="452" y="132"/>
			<point x="426" y="176" type="curve" smooth="yes"/>
			<point x="134" y="660" type="line"/>
			<point x="100" y="660" type="line"/>
		</contour>
	</outline>
	<anchor name="aboveUC" x="330" y="682"/>
	<anchor name="belowLC" x="320" y="-22"/>
</glyph>
<glyph name="Z" format="2">
	<unicode hex="005A"/>
	<advance width="538"/>
	<outline>
		<contour>
			<point x="52" y="0" type="line"/>
			<point x="488" y="0" type="line"/>
			<point x="488" y="28" type="line"/>
			<point x="92" y="28" type="line"/>
			<point x="484" y="642" type="line"/>
			<point x="484" y="660" type="line"/>
			<point x="86" y="660" type="line"/>
			<point x="86" y="632" type="line"/>
			<point x="444" y="632" type="line"/>
			<point x="52" y="18" type="line"/>
		</contour>
	</outline>
	<anchor name="aboveUC" x="278" y="682"/>
	<anchor name="belowLC" x="282" y="-22"/>
</glyph>
<glyph name="m" format="2">
	<unicode hex="006D"/>
	<advance width="806"/>
	<outline>
		<contour>
			<point x="96" y="0" type="line"/>
			<point x="126" y="0" type="line"/>
			<point x="126" y="366" type="line"/>
			<point x="182" y="430"/>
			<point x="232" y="462"/>
			<point x="278" y="462" type="curve" smooth="yes"/>
			<point x="356" y="462"/>
			<point x="392" y="410"/>
			<point x="392" y="304" type="curve" smooth="yes"/>
			<point x="392" y="0" type="line"/>
			<point x="422" y="0" type="line"/>
			<point x="422" y="366" type="line"/>
			<point x="478" y="430"/>
			<point x="526" y="462"/>
			<point x="574" y="462" type="curve" smooth="yes"/>
			<point x="652" y="462"/>
			<point x="688" y="410"/>
			<point x="688" y="304" type="curve" smooth="yes"/>
			<point x="688" y="0" type="line"/>
			<point x="718" y="0" type="line"/>
			<point x="718" y="308" type="line" smooth="yes"/>
			<point x="718" y="432"/>
			<point x="670" y="490"/>
			<point x="576" y="490" type="curve" smooth="yes"/>
			<point x="522" y="490"/>
			<point x="468" y="452"/>
			<point x="412" y="390" type="curve"/>
			<point x="396" y="450"/>
			<point x="358" y="490"/>
			<point x="280" y="490" type="curve" smooth="yes"/>
			<point x="228" y="490"/>
			<point x="172" y="452"/>
			<point x="128" y="402" type="curve"/>
			<point x="126" y="402" type="line"/>
			<point x="122" y="478" type="line"/>
			<point x="96" y="478" type="line"/>
		</contour>
	</outline>
	<anchor name="aboveLC" x="410" y="502"/>
	<anchor name="belowLC" x="410" y="-22"/>
</glyph>
<glyph name="o" format="2">
	<unicode hex="006F"/>
	<advance width="532"/>
	<outline>
		<contour>
			<point x="266" y="-12" type="curve" smooth="yes"/>
			<point x="380" y="-12"/>
			<point x="478" y="80"/>
			<point x="478" y="238" type="curve" smooth="yes"/>
			<point x="478" y="398"/>
			<point x="380" y="490"/>
			<point x="266" y="490" type="curve" smooth="yes"/>
			<point x="152" y="490"/>
			<point x="54" y="398"/>
			<point x="54" y="238" type="curve" smooth="yes"/>
			<point x="54" y="80"/>
			<point x="152" y="-12"/>
		</contour>
		<contour>
			<point x="266" y="16" type="curve" smooth="yes"/>
			<point x="164" y="16"/>
			<point x="86" y="106"/>
			<point x="86" y="238" type="curve" smooth="yes"/>
			<point x="86" y="370"/>
			<point x="164" y="462"/>
			<point x="266" y="462" type="curve" smooth="yes"/>
			<point x="368" y="462"/>
			<point x="446" y="370"/>
			<point x="446" y="238" type="curve" smooth="yes"/>
			<point x="446" y="106"/>
			<point x="368" y="16"/>
		</contour>
	</outline>
	<anchor name="aboveLC" x="266" y="502"/>
	<anchor name="aboverightLC" x="450" y="502"/>
	<anchor name="belowLC" x="266" y="-22"/>
	<anchor name="hornLC" x="358" y="482"/>
	<anchor name="ogonekLC" x="266" y="0"/>
</glyph>
<glyph name="u" format="2">
	<unicode hex="0075"/>
	<advance width="524"/>
	<outline>
		<contour>
			<point x="232" y="-12" type="curve" smooth="yes"/>
			<point x="298" y="-12"/>
			<point x="348" y="26"/>
			<point x="396" y="82" type="curve"/>
			<point x="398" y="82" type="line"/>
			<point x="402" y="0" type="line"/>
			<point x="428" y="0" type="line"/>
			<point x="428" y="478" type="line"/>
			<point x="398" y="478" type="line"/>
			<point x="398" y="120" type="line"/>
			<point x="338" y="48"/>
			<point x="294" y="16"/>
			<point x="234" y="16" type="curve" smooth="yes"/>
			<point x="152" y="16"/>
			<point x="118" y="68"/>
			<point x="118" y="174" type="curve" smooth="yes"/>
			<point x="118" y="478" type="line"/>
			<point x="88" y="478" type="line"/>
			<point x="88" y="170" type="line" smooth="yes"/>
			<point x="88" y="46"/>
			<point x="134" y="-12"/>
		</contour>
	</outline>
	<anchor name="aboveLC" x="260" y="502"/>
	<anchor name="baseLC" x="260" y="0"/>
	<anchor name="belowLC" x="270" y="-22"/>
	<anchor name="hornLC" x="396" y="492"/>
	<anchor name="ogonekLC" x="376" y="0"/>
</glyph>
<glyph name="w" format="2">
	<unicode hex="0077"/>
	<advance width="672"/>
	<outline>
		<contour>
			<point x="168" y="0" type="line"/>
			<point x="206" y="0" type="line"/>
			<point x="294" y="310" type="line"/>
			<point x="310" y="356"/>
			<point x="322" y="402"/>
			<point x="334" y="448" type="curve"/>
			<point x="338" y="448" type="line"/>
			<point x="352" y="402"/>
			<point x="362" y="358"/>
			<point x="376" y="312" type="curve"/>
			<point x="466" y="0" type="line"/>
			<point x="508" y="0" type="line"/>
			<point x="648" y="478" type="line"/>
			<point x="616" y="478" type="line"/>
			<point x="526" y="156" type="line"/>
			<point x="514" y="112"/>
			<point x="502" y="72"/>
			<point x="490" y="30" type="curve"/>
			<point x="486" y="30" type="line"/>
			<point x="474" y="72"/>
			<point x="462" y="112"/>
			<point x="450" y="156" type="curve"/>
			<point x="358" y="478" type="line"/>
			<point x="316" y="478" type="line"/>
			<point x="224" y="156" type="line"/>
			<point x="212" y="112"/>
			<point x="200" y="72"/>
			<point x="188" y="30" type="curve"/>
			<point x="184" y="30" type="line"/>
			<point x="174" y="72"/>
			<point x="162" y="112"/>
			<point x="150" y="156" type="curve"/>
			<point x="58" y="478" type="line"/>
			<point x="24" y="478" type="line"/>
		</contour>
	</outline>
	<anchor name="aboveLC" x="336" y="502"/>
	<anchor name="aboverightLC" x="640" y="502"/>
	<anchor name="belowLC" x="336" y="-22"/>
</glyph>
<glyph name="x" format="2">
	<unicode hex="0078"/>
	<advance width="392"/>
	<outline>
		<contour>
			<point x="14" y="0" type="line"/>
			<point x="46" y="0" type="line"/>
			<point x="134" y="138" type="line"/>
			<point x="154" y="168"/>
			<point x="172" y="198"/>
			<point x="192" y="226" type="curve"/>
			<point x="196" y="226" type="line"/>
			<point x="216" y="198"/>
			<point x="236" y="168"/>
			<point x="254" y="138" type="curve"/>
			<point x="344" y="0" type="line"/>
			<point x="378" y="0" type="line"/>
			<point x="214" y="248" type="line"/>
			<point x="364" y="478" type="line"/>
			<point x="332" y="478" type="line"/>
			<point x="252" y="350" type="line"/>
			<point x="234" y="324"/>
			<point x="218" y="298"/>
			<point x="200" y="272" type="curve"/>
			<point x="196" y="272" type="line"/>
			<point x="178" y="298"/>
			<point x="160" y="324"/>
			<point x="144" y="350" type="curve"/>
			<point x="62" y="478" type="line"/>
			<point x="28" y="478" type="line"/>
			<point x="178" y="250" type="line"/>
		</contour>
	</outline>
	<anchor name="aboveLC" x="196" y="502"/>
	<anchor name="belowLC" x="196" y="-22"/>
</glyph>
<glyph name="exclamdown" format="2">
	<unicode hex="00A1"/>
	<advance width="248"/>
	<outline>
		<contour>
			<point x="108" y="-192" type="line"/>
			<point x="140" y="-192" type="line"/>
			<point x="140" y="-130" type="line"/>
			<point x="136" y="306" type="line"/>
			<point x="112" y="306" type="line"/>
			<point x="108" y="-130" type="line"/>
		</contour>
		<contour>
			<point x="124" y="412" type="curve" smooth="yes"/>
			<point x="142" y="412"/>
			<point x="160" y="426"/>
			<point x="160" y="452" type="curve" smooth="yes"/>
			<point x="160" y="476"/>
			<point x="142" y="490"/>
			<point x="124" y="490" type="curve" smooth="yes"/>
			<point x="106" y="490"/>
			<point x="88" y="476"/>
			<point x="88" y="452" type="curve" smooth="yes"/>
			<point x="88" y="426"/>
			<point x="106" y="412"/>
		</contour>
	</outline>
</glyph>
<glyph name="aogonek" format="2">
	<unicode hex="0105"/>
	<advance width="486"/>
	<outline>
		<contour>
			<point x="378" y="-212" type="curve" smooth="yes"/>
			<point x="408" y="-212"/>
			<point x="432" y="-198"/>
			<point x="448" y="-184" type="curve"/>
			<point x="434" y="-164" type="line"/>
			<point x="416" y="-178"/>
			<point x="402" y="-184"/>
			<point x="380" y="-184" type="curve" smooth="yes"/>
			<point x="350" y="-184"/>
			<point x="322" y="-166"/>
			<point x="322" y="-124" type="curve" smooth="yes"/>
			<point x="322" y="-80"/>
			<point x="360" y="-28"/>
			<point x="404" y="0" type="curve"/>
			<point x="404" y="310" type="line" smooth="yes"/>
			<point x="404" y="406"/>
			<point x="370" y="490"/>
			<point x="258" y="490" type="curve" smooth="yes"/>
			<point x="180" y="490"/>
			<point x="114" y="452"/>
			<point x="84" y="428" type="curve"/>
			<point x="100" y="406" type="line"/>
			<point x="130" y="428"/>
			<point x="188" y="462"/>
			<point x="256" y="462" type="curve" smooth="yes"/>
			<point x="356" y="462"/>
			<point x="376" y="376"/>
			<point x="374" y="298" type="curve"/>
			<point x="158" y="274"/>
			<point x="60" y="224"/>
			<point x="60" y="116" type="curve" smooth="yes"/>
			<point x="60" y="26"/>
			<point x="124" y="-12"/>
			<point x="198" y="-12" type="curve" smooth="yes"/>
			<point x="262" y="-12"/>
			<point x="322" y="24"/>
			<point x="372" y="64" type="curve"/>
			<point x="374" y="64" type="line"/>
			<point x="378" y="8" type="line"/>
			<point x="332" y="-24"/>
			<point x="292" y="-76"/>
			<point x="292" y="-126" type="curve" smooth="yes"/>
			<point x="292" y="-186"/>
			<point x="330" y="-212"/>
		</contour>
		<contour>
			<point x="200" y="16" type="curve" smooth="yes"/>
			<point x="142" y="16"/>
			<point x="92" y="44"/>
			<point x="92" y="118" type="curve" smooth="yes"/>
			<point x="92" y="200"/>
			<point x="164" y="248"/>
			<point x="374" y="272" type="curve"/>
			<point x="374" y="98" type="line"/>
			<point x="310" y="44"/>
			<point x="258" y="16"/>
		</contour>
	</outline>
	<anchor name="aboveLC" x="260" y="502"/>
</glyph>
<glyph name="dotlessi" format="2">
	<unicode hex="0131"/>
	<advance width="222"/>
	<outline>
		<contour>
			<point x="96" y="0" type="line"/>
			<point x="126" y="0" type="line"/>
			<point x="126" y="478" type="line"/>
			<point x="96" y="478" type="line"/>
		</contour>
	</outline>
	<anchor name="aboveLC" x="110" y="502"/>
	<anchor name="belowLC" x="110" y="-22"/>
	<anchor name="ogonekLC" x="100" y="0"/>
</glyph>
<glyph name="lslash" format="2">
	<unicode hex="0142"/>
	<advance width="250"/>
	<outline>
		<contour>
			<point x="12" y="352" type="line"/>
			<point x="116" y="406" type="line"/>
			<point x="128" y="410" type="line"/>
			<point x="236" y="466" type="line"/>
			<point x="224" y="490" type="line"/>
			<point x="128" y="440" type="line"/>
			<point x="116" y="436" type="line"/>
			<point x="0" y="376" type="line"/>
		</contour>
		<component base="l" xOffset="10"/>
	</outline>
	<anchor name="aboveUC" x="120" y="732"/>
	<anchor name="belowLC" x="140" y="-22"/>
</glyph>
<glyph name="OE" format="2">
	<unicode hex="0152"/>
	<advance width="828"/>
	<outline>
		<contour>
			<point x="366" y="0" type="curve" smooth="yes"/>
			<point x="782" y="0" type="line"/>
			<point x="782" y="28" type="line"/>
			<point x="470" y="28" type="line"/>
			<point x="470" y="338" type="line"/>
			<point x="720" y="338" type="line"/>
			<point x="720" y="366" type="line"/>
			<point x="470" y="366" type="line"/>
			<point x="470" y="632" type="line"/>
			<point x="772" y="632" type="line"/>
			<point x="772" y="660" type="line"/>
			<point x="366" y="660" type="line" smooth="yes"/>
			<point x="156" y="660"/>
			<point x="56" y="528"/>
			<point x="56" y="332" type="curve" smooth="yes"/>
			<point x="56" y="136"/>
			<point x="156" y="0"/>
		</contour>
		<contour>
			<point x="370" y="28" type="line" smooth="yes"/>
			<point x="176" y="28"/>
			<point x="90" y="158"/>
			<point x="90" y="332" type="curve" smooth="yes"/>
			<point x="90" y="506"/>
			<point x="176" y="632"/>
			<point x="370" y="632" type="curve" smooth="yes"/>
			<point x="438" y="632" type="line"/>
			<point x="438" y="28" type="line"/>
		</contour>
	</outline>
	<anchor name="aboveUC" x="534" y="682"/>
</glyph>
<glyph name="Tbar" format="2">
	<unicode hex="0166"/>
	<advance width="520"/>
	<outline>
		<contour>
			<point x="116" y="336" type="line"/>
			<point x="404" y="336" type="line"/>
			<point x="404" y="364" type="line"/>
			<point x="200" y="364" type="line"/>
			<point x="116" y="362" type="line"/>
		</contour>
		<component base="T"/>
	</outline>
	<anchor name="aboveUC" x="260" y="682"/>
	<anchor name="belowLC" x="260" y="-22"/>
</glyph>
<glyph name="Eturned" format="2">
	<unicode hex="018E"/>
	<advance width="510"/>
	<outline>
		<contour>
			<point x="46" y="0" type="line"/>
			<point x="410" y="0" type="line"/>
			<point x="410" y="660" type="line"/>
			<point x="56" y="660" type="line"/>
			<point x="56" y="632" type="line"/>
			<point x="378" y="632" type="line"/>
			<point x="378" y="366" type="line"/>
			<point x="108" y="366" type="line"/>
			<point x="108" y="338" type="line"/>
			<point x="378" y="338" type="line"/>
			<point x="378" y="28" type="line"/>
			<point x="46" y="28" type="line"/>
		</contour>
	</outline>
	<anchor name="aboveUC" x="240" y="682"/>
	<anchor name="belowLC" x="230" y="-22"/>
	<anchor name="ogonekUC" x="230" y="0"/>
</glyph>
<glyph name="Eopen" format="2">
	<unicode hex="0190"/>
	<advance width="546"/>
	<outline>
		<contour>
			<point x="286" y="-12" type="curve" smooth="yes"/>
			<point x="380" y="-12"/>
			<point x="442" y="14"/>
			<point x="500" y="80" type="curve"/>
			<point x="480" y="98" type="line"/>
			<point x="421" y="37"/>
			<point x="368" y="18"/>
			<point x="286" y="18" type="curve" smooth="yes"/>
			<point x="176" y="18"/>
			<point x="80" y="76"/>
			<point x="80" y="180" type="curve" smooth="yes"/>
			<point x="80" y="288"/>
			<point x="166" y="338"/>
			<point x="304" y="338" type="curve" smooth="yes"/>
			<point x="368" y="338" type="line"/>
			<point x="368" y="366" type="line"/>
			<point x="316" y="366" type="line" smooth="yes"/>
			<point x="178" y="366"/>
			<point x="116" y="415"/>
			<point x="116" y="510" type="curve" smooth="yes"/>
			<point x="116" y="594"/>
			<point x="189" y="642"/>
			<point x="288" y="642" type="curve" smooth="yes"/>
			<point x="350" y="642"/>
			<point x="408" y="614"/>
			<point x="444" y="574" type="curve"/>
			<point x="464" y="594" type="line"/>
			<point x="428" y="636"/>
			<point x="362" y="672"/>
			<point x="288" y="672" type="curve" smooth="yes"/>
			<point x="178" y="672"/>
			<point x="84" y="614"/>
			<point x="84" y="510" type="curve" smooth="yes"/>
			<point x="84" y="430"/>
			<point x="130" y="378"/>
			<point x="194" y="356" type="curve"/>
			<point x="194" y="352" type="line"/>
			<point x="116" y="338"/>
			<point x="48" y="282"/>
			<point x="48" y="182" type="curve" smooth="yes"/>
			<point x="48" y="58"/>
			<point x="156" y="-12"/>
		</contour>
	</outline>
	<anchor name="aboveUC" x="280" y="682"/>
	<anchor name="baseLC" x="280" y="0"/>
	<anchor name="belowLC" x="280" y="-22"/>
	<anchor name="ogonekUC" x="290" y="0"/>
</glyph>
<glyph name="Istroke" format="2">
	<unicode hex="0197"/>
	<advance width="272"/>
	<outline>
		<contour>
			<point x="22" y="338" type="line"/>
			<point x="246" y="338" type="line"/>
			<point x="246" y="366" type="line"/>
			<point x="122" y="366" type="line"/>
			<point x="22" y="362" type="line"/>
		</contour>
		<component base="I" xOffset="20"/>
	</outline>
	<anchor name="aboveUC" x="136" y="682"/>
	<anchor name="belowLC" x="136" y="-22"/>
</glyph>
<glyph name="nlong" format="2">
	<unicode hex="019E"/>
	<advance width="526"/>
	<outline>
		<contour>
			<point x="408" y="-222" type="line"/>
			<point x="438" y="-222" type="line"/>
			<point x="438" y="308" type="line" smooth="yes"/>
			<point x="438" y="432"/>
			<point x="392" y="490"/>
			<point x="294" y="490" type="curve" smooth="yes"/>
			<point x="228" y="490"/>
			<point x="178" y="452"/>
			<point x="128" y="402" type="curve"/>
			<point x="126" y="402" type="line"/>
			<point x="122" y="478" type="line"/>
			<point x="96" y="478" type="line"/>
			<point x="96" y="0" type="line"/>
			<point x="126" y="0" type="line"/>
			<point x="126" y="366" type="line"/>
			<point x="188" y="430"/>
			<point x="232" y="462"/>
			<point x="292" y="462" type="curve" smooth="yes"/>
			<point x="374" y="462"/>
			<point x="408" y="410"/>
			<point x="408" y="304" type="curve" smooth="yes"/>
		</contour>
	</outline>
	<anchor name="aboveLC" x="280" y="502"/>
	<anchor name="belowLC" x="270" y="-222"/>
</glyph>
<glyph name="Gstroke" format="2">
	<unicode hex="01E4"/>
	<advance width="646"/>
	<outline>
		<contour>
			<point x="334" y="-12" type="curve" smooth="yes"/>
			<point x="420" y="-12"/>
			<point x="486" y="18"/>
			<point x="526" y="62" type="curve"/>
			<point x="526" y="318" type="line"/>
			<point x="494" y="318" type="line"/>
			<point x="494" y="72" type="line"/>
			<point x="460" y="38"/>
			<point x="400" y="18"/>
			<point x="336" y="18" type="curve" smooth="yes"/>
			<point x="182" y="18"/>
			<point x="90" y="142"/>
			<point x="90" y="332" type="curve" smooth="yes"/>
			<point x="90" y="522"/>
			<point x="186" y="642"/>
			<point x="344" y="642" type="curve" smooth="yes"/>
			<point x="418" y="642"/>
			<point x="466" y="610"/>
			<point x="500" y="572" type="curve"/>
			<point x="520" y="594" type="line"/>
			<point x="486" y="630"/>
			<point x="432" y="672"/>
			<point x="344" y="672" type="curve" smooth="yes"/>
			<point x="170" y="672"/>
			<point x="56" y="540"/>
			<point x="56" y="332" type="curve" smooth="yes"/>
			<point x="56" y="124"/>
			<point x="166" y="-12"/>
		</contour>
		<contour>
			<point x="330" y="190" type="line"/>
			<point x="620" y="190" type="line"/>
			<point x="620" y="218" type="line"/>
			<point x="496" y="218" type="line"/>
			<point x="330" y="214" type="line"/>
		</contour>
	</outline>
	<anchor name="aboveUC" x="340" y="682"/>
	<anchor name="belowLC" x="340" y="-22"/>
	<guideline x="330" y="244" angle="90" identifier="LLk1mopjqD"/>
</glyph>
<glyph name="OU" format="2">
	<unicode hex="0222"/>
	<advance width="648"/>
	<outline>
		<contour>
			<point x="324" y="-12" type="curve" smooth="yes"/>
			<point x="472" y="-12"/>
			<point x="592" y="59"/>
			<point x="592" y="196" type="curve" smooth="yes"/>
			<point x="592" y="318"/>
			<point x="492" y="382"/>
			<point x="374" y="394" type="curve"/>
			<point x="374" y="378" type="line"/>
			<point x="492" y="398"/>
			<point x="542" y="468"/>
			<point x="542" y="582" type="curve" smooth="yes"/>
			<point x="542" y="660" type="line"/>
			<point x="512" y="660" type="line"/>
			<point x="512" y="590" type="line" smooth="yes"/>
			<point x="512" y="443"/>
			<point x="422" y="400"/>
			<point x="324" y="400" type="curve" smooth="yes"/>
			<point x="228" y="400"/>
			<point x="140" y="443"/>
			<point x="140" y="590" type="curve" smooth="yes"/>
			<point x="140" y="660" type="line"/>
			<point x="108" y="660" type="line"/>
			<point x="108" y="582" type="line" smooth="yes"/>
			<point x="108" y="468"/>
			<point x="158" y="398"/>
			<point x="276" y="378" type="curve"/>
			<point x="276" y="394" type="line"/>
			<point x="158" y="382"/>
			<point x="56" y="318"/>
			<point x="56" y="196" type="curve" smooth="yes"/>
			<point x="56" y="59"/>
			<point x="176" y="-12"/>
		</contour>
		<contour>
			<point x="324" y="18" type="curve" smooth="yes"/>
			<point x="192" y="18"/>
			<point x="90" y="77"/>
			<point x="90" y="196" type="curve" smooth="yes"/>
			<point x="90" y="313"/>
			<point x="192" y="370"/>
			<point x="324" y="370" type="curve" smooth="yes"/>
			<point x="456" y="370"/>
			<point x="558" y="313"/>
			<point x="558" y="196" type="curve" smooth="yes"/>
			<point x="558" y="77"/>
			<point x="456" y="18"/>
		</contour>
	</outline>
	<anchor name="aboveUC" x="324" y="682"/>
	<anchor name="belowLC" x="324" y="-22"/>
</glyph>
<glyph name="alphalatinturned" format="2">
	<unicode hex="0252"/>
	<advance width="548"/>
	<outline>
		<contour>
			<point x="282" y="-12" type="curve" smooth="yes"/>
			<point x="396" y="-12"/>
			<point x="494" y="84"/>
			<point x="494" y="246" type="curve" smooth="yes"/>
			<point x="494" y="394"/>
			<point x="432" y="490"/>
			<point x="302" y="490" type="curve" smooth="yes"/>
			<point x="242" y="490"/>
			<point x="184" y="454"/>
			<point x="136" y="414" type="curve"/>
			<point x="134" y="414" type="line"/>
			<point x="134" y="468"/>
			<point x="116" y="486"/>
			<point x="86" y="486" type="curve" smooth="yes"/>
			<point x="76" y="486"/>
			<point x="64" y="482"/>
			<point x="60" y="480" type="curve"/>
			<point x="66" y="456" type="line"/>
			<point x="74" y="458"/>
			<point x="78" y="458"/>
			<point x="82" y="458" type="curve" smooth="yes"/>
			<point x="94" y="458"/>
			<point x="104" y="448"/>
			<point x="104" y="428" type="curve" smooth="yes"/>
			<point x="104" y="0" type="line"/>
			<point x="132" y="0" type="line"/>
			<point x="134" y="46" type="line"/>
			<point x="136" y="46" type="line"/>
			<point x="186" y="10"/>
			<point x="236" y="-12"/>
		</contour>
		<contour>
			<point x="284" y="16" type="curve" smooth="yes"/>
			<point x="246" y="16"/>
			<point x="192" y="34"/>
			<point x="134" y="82" type="curve"/>
			<point x="134" y="378" type="line"/>
			<point x="196" y="432"/>
			<point x="250" y="462"/>
			<point x="300" y="462" type="curve" smooth="yes"/>
			<point x="418" y="462"/>
			<point x="462" y="368"/>
			<point x="462" y="246" type="curve" smooth="yes"/>
			<point x="462" y="112"/>
			<point x="388" y="16"/>
		</contour>
	</outline>
	<anchor name="aboveLC" x="300" y="502"/>
	<anchor name="belowLC" x="290" y="-22"/>
</glyph>
<glyph name="rsmall" format="2">
	<unicode hex="0280"/>
	<advance width="466"/>
	<outline>
		<contour>
			<point x="96" y="0" type="line"/>
			<point x="126" y="0" type="line"/>
			<point x="126" y="216" type="line"/>
			<point x="250" y="216" type="line" smooth="yes"/>
			<point x="338" y="216"/>
			<point x="409" y="256"/>
			<point x="409" y="350" type="curve" smooth="yes"/>
			<point x="409" y="444"/>
			<point x="340" y="478"/>
			<point x="242" y="478" type="curve" smooth="yes"/>
			<point x="96" y="478" type="line"/>
		</contour>
		<contour>
			<point x="126" y="244" type="line"/>
			<point x="126" y="450" type="line"/>
			<point x="232" y="450" type="line" smooth="yes"/>
			<point x="321" y="450"/>
			<point x="377" y="421"/>
			<point x="377" y="350" type="curve" smooth="yes"/>
			<point x="377" y="279"/>
			<point x="321" y="244"/>
			<point x="232" y="244" type="curve" smooth="yes"/>
		</contour>
		<contour>
			<point x="386" y="0" type="line"/>
			<point x="420" y="0" type="line"/>
			<point x="268" y="230" type="line"/>
			<point x="244" y="218" type="line"/>
		</contour>
	</outline>
	<anchor name="aboveLC" x="250" y="502"/>
	<anchor name="belowLC" x="270" y="-22"/>
</glyph>
<glyph name="rsmallinverted" format="2">
	<unicode hex="0281"/>
	<advance width="466"/>
	<outline>
		<contour>
			<point x="96" y="0" type="line"/>
			<point x="242" y="0" type="line" smooth="yes"/>
			<point x="340" y="0"/>
			<point x="409" y="36"/>
			<point x="409" y="130" type="curve" smooth="yes"/>
			<point x="409" y="224"/>
			<point x="338" y="266"/>
			<point x="250" y="266" type="curve" smooth="yes"/>
			<point x="126" y="266" type="line"/>
			<point x="126" y="478" type="line"/>
			<point x="96" y="478" type="line"/>
		</contour>
		<contour>
			<point x="126" y="28" type="line"/>
			<point x="126" y="238" type="line"/>
			<point x="232" y="238" type="line" smooth="yes"/>
			<point x="321" y="238"/>
			<point x="377" y="201"/>
			<point x="377" y="130" type="curve" smooth="yes"/>
			<point x="377" y="59"/>
			<point x="321" y="28"/>
			<point x="232" y="28" type="curve" smooth="yes"/>
		</contour>
		<contour>
			<point x="268" y="252" type="line"/>
			<point x="420" y="478" type="line"/>
			<point x="386" y="478" type="line"/>
			<point x="244" y="264" type="line"/>
		</contour>
	</outline>
	<anchor name="aboveLC" x="260" y="502"/>
	<anchor name="belowLC" x="250" y="-22"/>
</glyph>
<glyph name="esh" format="2">
	<unicode hex="0283"/>
	<advance width="222"/>
	<outline>
		<contour>
			<point x="28" y="-234" type="curve" smooth="yes"/>
			<point x="94" y="-234"/>
			<point x="126" y="-194"/>
			<point x="126" y="-102" type="curve" smooth="yes"/>
			<point x="126" y="598" type="line" smooth="yes"/>
			<point x="126" y="660"/>
			<point x="138" y="706"/>
			<point x="202" y="706" type="curve" smooth="yes"/>
			<point x="218" y="706"/>
			<point x="232" y="702"/>
			<point x="242" y="698" type="curve"/>
			<point x="252" y="722" type="line"/>
			<point x="240" y="728"/>
			<point x="221" y="734"/>
			<point x="204" y="734" type="curve" smooth="yes"/>
			<point x="131" y="734"/>
			<point x="96" y="694"/>
			<point x="96" y="602" type="curve" smooth="yes"/>
			<point x="96" y="-98" type="line" smooth="yes"/>
			<point x="96" y="-160"/>
			<point x="86" y="-206"/>
			<point x="30" y="-206" type="curve" smooth="yes"/>
			<point x="10" y="-206"/>
			<point x="-8" y="-200"/>
			<point x="-20" y="-196" type="curve"/>
			<point x="-30" y="-222" type="line"/>
			<point x="-16" y="-228"/>
			<point x="8" y="-234"/>
		</contour>
	</outline>
	<anchor name="aboveUC" x="170" y="732"/>
	<anchor name="belowLC" x="50" y="-222"/>
</glyph>
<glyph name="apicalretroflex" format="2">
	<unicode hex="0285"/>
	<advance width="250"/>
	<outline>
		<contour>
			<point x="204" y="-234" type="curve" smooth="yes"/>
			<point x="220" y="-234"/>
			<point x="242" y="-228"/>
			<point x="252" y="-222" type="curve"/>
			<point x="244" y="-198" type="line"/>
			<point x="234" y="-202"/>
			<point x="218" y="-206"/>
			<point x="202" y="-206" type="curve" smooth="yes"/>
			<point x="158" y="-206"/>
			<point x="146" y="-164"/>
			<point x="146" y="-104" type="curve" smooth="yes"/>
			<point x="146" y="358" type="line" smooth="yes"/>
			<point x="146" y="450"/>
			<point x="114" y="490"/>
			<point x="48" y="490" type="curve" smooth="yes"/>
			<point x="31" y="490"/>
			<point x="12" y="484"/>
			<point x="0" y="478" type="curve"/>
			<point x="10" y="454" type="line"/>
			<point x="20" y="458"/>
			<point x="34" y="462"/>
			<point x="50" y="462" type="curve" smooth="yes"/>
			<point x="106" y="462"/>
			<point x="116" y="416"/>
			<point x="116" y="354" type="curve" smooth="yes"/>
			<point x="116" y="-108" type="line" smooth="yes"/>
			<point x="116" y="-198"/>
			<point x="144" y="-234"/>
		</contour>
	</outline>
	<anchor name="aboveLC" x="120" y="502"/>
	<anchor name="belowLC" x="190" y="-222"/>
</glyph>
<glyph name="upsilonlatin" format="2">
	<unicode hex="028A"/>
	<advance width="528"/>
	<outline>
		<contour>
			<point x="264" y="-12" type="curve" smooth="yes"/>
			<point x="396" y="-12"/>
			<point x="472" y="96"/>
			<point x="472" y="216" type="curve" smooth="yes"/>
			<point x="472" y="330"/>
			<point x="420" y="406"/>
			<point x="374" y="448" type="curve"/>
			<point x="374" y="450" type="line"/>
			<point x="484" y="450" type="line"/>
			<point x="484" y="478" type="line"/>
			<point x="322" y="478" type="line"/>
			<point x="322" y="458" type="line"/>
			<point x="388" y="414"/>
			<point x="440" y="334"/>
			<point x="440" y="222" type="curve" smooth="yes"/>
			<point x="440" y="114"/>
			<point x="378" y="16"/>
			<point x="264" y="16" type="curve" smooth="yes"/>
			<point x="150" y="16"/>
			<point x="88" y="114"/>
			<point x="88" y="222" type="curve" smooth="yes"/>
			<point x="88" y="334"/>
			<point x="140" y="414"/>
			<point x="206" y="458" type="curve"/>
			<point x="206" y="478" type="line"/>
			<point x="44" y="478" type="line"/>
			<point x="44" y="450" type="line"/>
			<point x="154" y="450" type="line"/>
			<point x="154" y="448" type="line"/>
			<point x="108" y="406"/>
			<point x="56" y="330"/>
			<point x="56" y="216" type="curve" smooth="yes"/>
			<point x="56" y="96"/>
			<point x="132" y="-12"/>
		</contour>
	</outline>
	<anchor name="aboveLC" x="264" y="502"/>
	<anchor name="belowLC" x="264" y="-22"/>
	<anchor name="ogonekLC" x="264" y="0"/>
</glyph>
<glyph name="gsmallhook" format="2">
	<unicode hex="029B"/>
	<advance width="482"/>
	<outline>
		<contour>
			<point x="274" y="-12" type="curve" smooth="yes"/>
			<point x="342" y="-12"/>
			<point x="394" y="15"/>
			<point x="426" y="46" type="curve"/>
			<point x="426" y="234" type="line"/>
			<point x="268" y="234" type="line"/>
			<point x="268" y="206" type="line"/>
			<point x="396" y="206" type="line"/>
			<point x="396" y="59" type="line"/>
			<point x="370" y="35"/>
			<point x="326" y="16"/>
			<point x="277" y="16" type="curve" smooth="yes"/>
			<point x="160" y="16"/>
			<point x="84" y="102"/>
			<point x="84" y="242" type="curve" smooth="yes"/>
			<point x="84" y="376"/>
			<point x="166" y="462"/>
			<point x="280" y="462" type="curve" smooth="yes"/>
			<point x="332" y="462"/>
			<point x="374" y="442"/>
			<point x="404" y="412" type="curve"/>
			<point x="422" y="430" type="line"/>
			<point x="350" y="530"/>
			<point x="328" y="590"/>
			<point x="328" y="644" type="curve" smooth="yes"/>
			<point x="328" y="678"/>
			<point x="346" y="706"/>
			<point x="384" y="706" type="curve" smooth="yes"/>
			<point x="398" y="706"/>
			<point x="410" y="702"/>
			<point x="422" y="696" type="curve"/>
			<point x="432" y="718" type="line"/>
			<point x="416" y="728"/>
			<point x="400" y="734"/>
			<point x="382" y="734" type="curve" smooth="yes"/>
			<point x="338" y="734"/>
			<point x="298" y="708"/>
			<point x="298" y="648" type="curve" smooth="yes"/>
			<point x="298" y="582"/>
			<point x="332" y="516"/>
			<point x="384" y="440" type="curve"/>
			<point x="400" y="452" type="line"/>
			<point x="364" y="478"/>
			<point x="324" y="490"/>
			<point x="280" y="490" type="curve" smooth="yes"/>
			<point x="145" y="490"/>
			<point x="54" y="393"/>
			<point x="54" y="242" type="curve" smooth="yes"/>
			<point x="54" y="84"/>
			<point x="143" y="-12"/>
		</contour>
	</outline>
	<anchor name="aboveLC" x="270" y="732"/>
	<anchor name="belowLC" x="270" y="-22"/>
	<guideline x="421" y="349" angle="90" identifier="14BSdxBPjo"/>
</glyph>
<glyph name="ts" format="2">
	<unicode hex="02A6"/>
	<advance width="590"/>
	<outline>
		<contour>
			<point x="318" y="-12" type="curve" smooth="yes"/>
			<point x="518" y="-12"/>
			<point x="554" y="50"/>
			<point x="554" y="120" type="curve" smooth="yes"/>
			<point x="554" y="214"/>
			<point x="474" y="238"/>
			<point x="400" y="266" type="curve" smooth="yes"/>
			<point x="344" y="287"/>
			<point x="292" y="310"/>
			<point x="292" y="368" type="curve" smooth="yes"/>
			<point x="292" y="415"/>
			<point x="326" y="462"/>
			<point x="402" y="462" type="curve" smooth="yes"/>
			<point x="451" y="462"/>
			<point x="483" y="445"/>
			<point x="514" y="422" type="curve"/>
			<point x="532" y="442" type="line"/>
			<point x="499" y="470"/>
			<point x="454" y="490"/>
			<point x="404" y="490" type="curve" smooth="yes"/>
			<point x="310" y="490"/>
			<point x="260" y="432"/>
			<point x="260" y="366" type="curve" smooth="yes"/>
			<point x="260" y="284"/>
			<point x="336" y="255"/>
			<point x="408" y="230" type="curve" smooth="yes"/>
			<point x="462" y="210"/>
			<point x="522" y="182"/>
			<point x="522" y="118" type="curve" smooth="yes"/>
			<point x="522" y="64"/>
			<point x="500" y="16"/>
			<point x="320" y="16" type="curve" smooth="yes"/>
			<point x="177" y="16"/>
			<point x="136" y="77"/>
			<point x="136" y="162" type="curve" smooth="yes"/>
			<point x="136" y="450" type="line"/>
			<point x="328" y="450" type="line"/>
			<point x="348" y="478" type="line"/>
			<point x="136" y="478" type="line"/>
			<point x="136" y="638" type="line"/>
			<point x="110" y="638" type="line"/>
			<point x="106" y="478" type="line"/>
			<point x="30" y="474" type="line"/>
			<point x="30" y="450" type="line"/>
			<point x="106" y="450" type="line"/>
			<point x="106" y="166" type="line" smooth="yes"/>
			<point x="106" y="60"/>
			<point x="161" y="-12"/>
		</contour>
	</outline>
	<anchor name="aboveLC" x="330" y="632"/>
	<anchor name="belowLC" x="330" y="-22"/>
</glyph>
<glyph name="tccurl" format="2">
	<unicode hex="02A8"/>
	<advance width="706"/>
	<outline>
		<contour>
			<point x="218" y="-8" type="curve" smooth="yes"/>
			<point x="240" y="-8"/>
			<point x="268" y="0"/>
			<point x="294" y="14" type="curve"/>
			<point x="282" y="36" type="line"/>
			<point x="258" y="24"/>
			<point x="238" y="20"/>
			<point x="220" y="20" type="curve" smooth="yes"/>
			<point x="150" y="20"/>
			<point x="136" y="64"/>
			<point x="136" y="126" type="curve" smooth="yes"/>
			<point x="136" y="450" type="line"/>
			<point x="462" y="450" type="line"/>
			<point x="462" y="478" type="line"/>
			<point x="136" y="478" type="line"/>
			<point x="136" y="638" type="line"/>
			<point x="110" y="638" type="line"/>
			<point x="106" y="478" type="line"/>
			<point x="30" y="474" type="line"/>
			<point x="30" y="450" type="line"/>
			<point x="106" y="450" type="line"/>
			<point x="106" y="130" type="line" smooth="yes"/>
			<point x="106" y="48"/>
			<point x="130" y="-8"/>
		</contour>
		<component base="ccurl" xOffset="260"/>
	</outline>
	<anchor name="aboveUC" x="340" y="632"/>
	<anchor name="belowLC" x="380" y="-22"/>
</glyph>
<glyph name="w.sups" format="2">
	<unicode hex="02B7"/>
	<advance width="458"/>
	<outline>
		<contour>
			<point x="110" y="410" type="line"/>
			<point x="148" y="410" type="line"/>
			<point x="204" y="604" type="line"/>
			<point x="228" y="696" type="line"/>
			<point x="230" y="696" type="line"/>
			<point x="256" y="604" type="line"/>
			<point x="310" y="410" type="line"/>
			<point x="348" y="410" type="line"/>
			<point x="442" y="726" type="line"/>
			<point x="412" y="726" type="line"/>
			<point x="358" y="522" type="line"/>
			<point x="332" y="436" type="line"/>
			<point x="328" y="436" type="line"/>
			<point x="304" y="522" type="line"/>
			<point x="246" y="726" type="line"/>
			<point x="212" y="726" type="line"/>
			<point x="156" y="522" type="line"/>
			<point x="132" y="436" type="line"/>
			<point x="128" y="436" type="line"/>
			<point x="104" y="522" type="line"/>
			<point x="48" y="726" type="line"/>
			<point x="16" y="726" type="line"/>
		</contour>
	</outline>
	<anchor name="belowLC" x="230" y="-22"/>
</glyph>
<glyph name="y.sups" format="2">
	<unicode hex="02B8"/>
	<advance width="292"/>
	<outline>
		<contour>
			<point x="50" y="268" type="curve" smooth="yes"/>
			<point x="108" y="268"/>
			<point x="142" y="322"/>
			<point x="160" y="376" type="curve"/>
			<point x="284" y="726" type="line"/>
			<point x="254" y="726" type="line"/>
			<point x="188" y="530" type="line" smooth="yes"/>
			<point x="178" y="500"/>
			<point x="166" y="470"/>
			<point x="156" y="438" type="curve"/>
			<point x="152" y="438" type="line"/>
			<point x="140" y="470"/>
			<point x="126" y="504"/>
			<point x="116" y="530" type="curve" smooth="yes"/>
			<point x="38" y="726" type="line"/>
			<point x="8" y="726" type="line"/>
			<point x="140" y="405" type="line"/>
			<point x="132" y="380" type="line" smooth="yes"/>
			<point x="116" y="330"/>
			<point x="88" y="296"/>
			<point x="50" y="296" type="curve" smooth="yes"/>
			<point x="41" y="296"/>
			<point x="32" y="298"/>
			<point x="24" y="302" type="curve"/>
			<point x="16" y="274" type="line"/>
			<point x="26" y="270"/>
			<point x="38" y="268"/>
		</contour>
	</outline>
</glyph>
<glyph name="commaturnedmod" format="2">
	<unicode hex="02BB"/>
	<advance width="220"/>
	<outline>
		<contour>
			<point x="122" y="488" type="curve" smooth="yes"/>
			<point x="148" y="488"/>
			<point x="166" y="504"/>
			<point x="166" y="526" type="curve" smooth="yes"/>
			<point x="166" y="552"/>
			<point x="146" y="562"/>
			<point x="130" y="562" type="curve" smooth="yes"/>
			<point x="114" y="562"/>
			<point x="102" y="556"/>
			<point x="96" y="540" type="curve"/>
			<point x="100" y="540" type="line"/>
			<point x="86" y="552"/>
			<point x="80" y="568"/>
			<point x="80" y="590" type="curve" smooth="yes"/>
			<point x="80" y="636"/>
			<point x="94" y="674"/>
			<point x="162" y="714" type="curve"/>
			<point x="148" y="734" type="line"/>
			<point x="74" y="698"/>
			<point x="48" y="642"/>
			<point x="48" y="580" type="curve" smooth="yes"/>
			<point x="48" y="518"/>
			<point x="88" y="488"/>
		</contour>
	</outline>
</glyph>
<glyph name="gravecmb" format="2">
	<unicode hex="0300"/>
	<outline>
		<contour>
			<point x="40" y="570" type="line"/>
			<point x="70" y="570" type="line"/>
			<point x="-70" y="720" type="line"/>
			<point x="-108" y="720" type="line"/>
			<point x="-110" y="716" type="line"/>
		</contour>
	</outline>
	<anchor name="_aboveLC" x="0" y="502"/>
</glyph>
<glyph name="dieresiscmb" format="2">
	<unicode hex="0308"/>
	<outline>
		<contour>
			<point x="-86" y="602" type="curve" smooth="yes"/>
			<point x="-68" y="602"/>
			<point x="-54" y="616"/>
			<point x="-54" y="634" type="curve" smooth="yes"/>
			<point x="-54" y="652"/>
			<point x="-68" y="666"/>
			<point x="-86" y="666" type="curve" smooth="yes"/>
			<point x="-104" y="666"/>
			<point x="-118" y="652"/>
			<point x="-118" y="634" type="curve" smooth="yes"/>
			<point x="-118" y="616"/>
			<point x="-104" y="602"/>
		</contour>
		<contour>
			<point x="86" y="602" type="curve" smooth="yes"/>
			<point x="104" y="602"/>
			<point x="118" y="616"/>
			<point x="118" y="634" type="curve" smooth="yes"/>
			<point x="118" y="652"/>
			<point x="104" y="666"/>
			<point x="86" y="666" type="curve" smooth="yes"/>
			<point x="68" y="666"/>
			<point x="54" y="652"/>
			<point x="54" y="634" type="curve" smooth="yes"/>
			<point x="54" y="616"/>
			<point x="68" y="602"/>
		</contour>
	</outline>
	<anchor name="_aboveLC" x="0" y="502"/>
	<anchor name="aboveLC" x="0" y="682"/>
</glyph>
<glyph name="dblgravecmb" format="2">
	<unicode hex="030F"/>
	<outline>
		<contour>
			<point x="-86" y="570" type="line"/>
			<point x="-60" y="570" type="line"/>
			<point x="-156" y="720" type="line"/>
			<point x="-188" y="720" type="line"/>
			<point x="-190" y="716" type="line"/>
		</contour>
		<contour>
			<point x="64" y="570" type="line"/>
			<point x="90" y="570" type="line"/>
			<point x="-6" y="720" type="line"/>
			<point x="-38" y="720" type="line"/>
			<point x="-40" y="716" type="line"/>
		</contour>
	</outline>
	<anchor name="_aboveLC" x="0" y="502"/>
</glyph>
<glyph name="leftangleabovecmb" format="2">
	<unicode hex="031A"/>
	<outline>
		<contour>
			<point x="46" y="572" type="line"/>
			<point x="74" y="572" type="line"/>
			<point x="74" y="706" type="line"/>
			<point x="-66" y="706" type="line"/>
			<point x="-66" y="678" type="line"/>
			<point x="46" y="678" type="line"/>
		</contour>
	</outline>
	<anchor name="_aboverightLC" x="0" y="502"/>
</glyph>
<glyph name="lowlinecmb" format="2">
	<unicode hex="0332"/>
	<outline>
		<contour>
			<point x="-280" y="-162" type="line"/>
			<point x="280" y="-162" type="line"/>
			<point x="280" y="-134" type="line"/>
			<point x="-280" y="-134" type="line"/>
		</contour>
	</outline>
	<anchor name="_belowLC" x="0" y="-22"/>
</glyph>
<glyph name="slashlongcmb" format="2">
	<unicode hex="0338"/>
	<outline>
		<contour>
			<point x="-568" y="-20" type="line"/>
			<point x="-62" y="664" type="line"/>
			<point x="-84" y="680" type="line"/>
			<point x="-590" y="-4" type="line"/>
		</contour>
	</outline>
</glyph>
<glyph name="bridgeinvertedbelowcmb" format="2">
	<unicode hex="033A"/>
	<outline>
		<contour>
			<point x="-116" y="-234" type="line"/>
			<point x="116" y="-234" type="line"/>
			<point x="116" y="-90" type="line"/>
			<point x="90" y="-90" type="line"/>
			<point x="90" y="-206" type="line"/>
			<point x="-90" y="-206" type="line"/>
			<point x="-90" y="-90" type="line"/>
			<point x="-116" y="-90" type="line"/>
		</contour>
	</outline>
	<anchor name="_belowLC" x="0" y="-22"/>
</glyph>
<glyph name="seagullbelowcmb" format="2">
	<unicode hex="033C"/>
	<outline>
		<contour>
			<point x="-152" y="-222" type="curve"/>
			<point x="-126" y="-224" type="line"/>
			<point x="-126" y="-131"/>
			<point x="-103" y="-108"/>
			<point x="-68" y="-108" type="curve" smooth="yes"/>
			<point x="-34" y="-108"/>
			<point x="-14" y="-141"/>
			<point x="-14" y="-208" type="curve" smooth="yes"/>
			<point x="-14" y="-224" type="line"/>
			<point x="14" y="-224" type="line"/>
			<point x="14" y="-208" type="line" smooth="yes"/>
			<point x="14" y="-141"/>
			<point x="34" y="-108"/>
			<point x="68" y="-108" type="curve" smooth="yes"/>
			<point x="103" y="-108"/>
			<point x="126" y="-131"/>
			<point x="126" y="-224" type="curve"/>
			<point x="152" y="-222" type="line"/>
			<point x="153" y="-121"/>
			<point x="120" y="-84"/>
			<point x="70" y="-84" type="curve" smooth="yes"/>
			<point x="38" y="-84"/>
			<point x="9" y="-99"/>
			<point x="1" y="-145" type="curve"/>
			<point x="-1" y="-145" type="line"/>
			<point x="-9" y="-99"/>
			<point x="-38" y="-84"/>
			<point x="-70" y="-84" type="curve" smooth="yes"/>
			<point x="-120" y="-84"/>
			<point x="-153" y="-121"/>
		</contour>
	</outline>
	<anchor name="_belowLC" x="0" y="-22"/>
</glyph>
<glyph name="xabovecmb" format="2">
	<unicode hex="033D"/>
	<outline>
		<contour>
			<point x="-51" y="567" type="line"/>
			<point x="0" y="618" type="line"/>
			<point x="51" y="567" type="line"/>
			<point x="71" y="587" type="line"/>
			<point x="20" y="638" type="line"/>
			<point x="71" y="689" type="line"/>
			<point x="51" y="709" type="line"/>
			<point x="0" y="658" type="line"/>
			<point x="-51" y="709" type="line"/>
			<point x="-71" y="689" type="line"/>
			<point x="-20" y="638" type="line"/>
			<point x="-71" y="587" type="line"/>
		</contour>
	</outline>
	<anchor name="_aboveLC" x="0" y="502"/>
</glyph>
<glyph name="variacmb" format="2">
	<unicode hex="0340"/>
	<outline>
		<contour>
			<point x="6" y="564" type="line"/>
			<point x="30" y="564" type="line"/>
			<point x="-14" y="730" type="line"/>
			<point x="-48" y="730" type="line"/>
			<point x="-50" y="726" type="line"/>
		</contour>
	</outline>
	<anchor name="_aboveLC" x="0" y="502"/>
</glyph>
<glyph name="iotasubscriptcmb" format="2">
	<unicode hex="0345"/>
	<outline>
		<contour>
			<point x="36" y="-188" type="curve" smooth="yes"/>
			<point x="53" y="-188"/>
			<point x="58" y="-186"/>
			<point x="70" y="-182" type="curve"/>
			<point x="64" y="-156" type="line"/>
			<point x="48" y="-160"/>
			<point x="44" y="-160"/>
			<point x="38" y="-160" type="curve" smooth="yes"/>
			<point x="26" y="-160"/>
			<point x="14" y="-150"/>
			<point x="14" y="-130" type="curve" smooth="yes"/>
			<point x="14" y="-112"/>
			<point x="15" y="-86"/>
			<point x="16" y="-68" type="curve"/>
			<point x="-14" y="-68" type="line"/>
			<point x="-14" y="-124" type="line" smooth="yes"/>
			<point x="-14" y="-170"/>
			<point x="6" y="-188"/>
		</contour>
	</outline>
	<anchor name="_belowLC" x="0" y="-22"/>
</glyph>
<glyph name="Lambda" format="2">
	<unicode hex="039B"/>
	<advance width="482"/>
	<outline>
		<contour>
			<point x="6" y="0" type="line"/>
			<point x="38" y="0" type="line"/>
			<point x="166" y="396" type="line" smooth="yes"/>
			<point x="192" y="478"/>
			<point x="210" y="538"/>
			<point x="238" y="619" type="curve"/>
			<point x="242" y="619" type="line"/>
			<point x="270" y="538"/>
			<point x="288" y="478"/>
			<point x="314" y="396" type="curve" smooth="yes"/>
			<point x="442" y="0" type="line"/>
			<point x="476" y="0" type="line"/>
			<point x="256" y="660" type="line"/>
			<point x="224" y="660" type="line"/>
		</contour>
	</outline>
</glyph>
<glyph name="Phi" format="2">
	<unicode hex="03A6"/>
	<advance width="686"/>
	<outline>
		<contour>
			<point x="332" y="78" type="curve" smooth="yes"/>
			<point x="354" y="78" type="line" smooth="yes"/>
			<point x="526" y="78"/>
			<point x="638" y="178"/>
			<point x="638" y="332" type="curve" smooth="yes"/>
			<point x="638" y="486"/>
			<point x="526" y="582"/>
			<point x="354" y="582" type="curve" smooth="yes"/>
			<point x="332" y="582" type="line" smooth="yes"/>
			<point x="160" y="582"/>
			<point x="48" y="486"/>
			<point x="48" y="332" type="curve" smooth="yes"/>
			<point x="48" y="178"/>
			<point x="160" y="78"/>
		</contour>
		<contour>
			<point x="332" y="106" type="line" smooth="yes"/>
			<point x="178" y="106"/>
			<point x="82" y="198"/>
			<point x="82" y="332" type="curve" smooth="yes"/>
			<point x="82" y="466"/>
			<point x="178" y="554"/>
			<point x="332" y="554" type="curve" smooth="yes"/>
			<point x="354" y="554" type="line" smooth="yes"/>
			<point x="508" y="554"/>
			<point x="604" y="466"/>
			<point x="604" y="332" type="curve" smooth="yes"/>
			<point x="604" y="198"/>
			<point x="508" y="106"/>
			<point x="354" y="106" type="curve" smooth="yes"/>
		</contour>
		<contour>
			<point x="328" y="-22" type="line"/>
			<point x="358" y="-22" type="line"/>
			<point x="358" y="682" type="line"/>
			<point x="328" y="682" type="line"/>
		</contour>
	</outline>
</glyph>
<glyph name="gamma" format="2">
	<unicode hex="03B3"/>
	<advance width="444"/>
	<outline>
		<contour>
			<point x="206" y="-180" type="curve"/>
			<point x="236" y="-180" type="line"/>
			<point x="236" y="-124"/>
			<point x="234" y="-56"/>
			<point x="228" y="-2" type="curve"/>
			<point x="342" y="189"/>
			<point x="398" y="317"/>
			<point x="422" y="478" type="curve"/>
			<point x="390" y="478" type="line"/>
			<point x="376" y="330"/>
			<point x="300" y="179"/>
			<point x="227" y="41" type="curve"/>
			<point x="223" y="41" type="line"/>
			<point x="200" y="202"/>
			<point x="114" y="392"/>
			<point x="40" y="490" type="curve"/>
			<point x="12" y="478" type="line"/>
			<point x="103" y="365"/>
			<point x="208" y="118"/>
			<point x="208" y="-72" type="curve" smooth="yes"/>
			<point x="208" y="-114"/>
			<point x="208" y="-134"/>
		</contour>
	</outline>
	<anchor name="aboveLC" x="230" y="502"/>
	<anchor name="belowLC" x="220" y="-182"/>
</glyph>
<glyph name="delta" format="2">
	<unicode hex="03B4"/>
	<advance width="518"/>
	<outline>
		<contour>
			<point x="264" y="-12" type="curve" smooth="yes"/>
			<point x="388" y="-12"/>
			<point x="464" y="84"/>
			<point x="464" y="226" type="curve" smooth="yes"/>
			<point x="464" y="372"/>
			<point x="398" y="432"/>
			<point x="276" y="486" type="curve" smooth="yes"/>
			<point x="190" y="524"/>
			<point x="140" y="578"/>
			<point x="140" y="632" type="curve" smooth="yes"/>
			<point x="140" y="676"/>
			<point x="172" y="706"/>
			<point x="248" y="706" type="curve" smooth="yes"/>
			<point x="292" y="706"/>
			<point x="346" y="698"/>
			<point x="440" y="664" type="curve"/>
			<point x="450" y="688" type="line"/>
			<point x="364" y="722"/>
			<point x="302" y="734"/>
			<point x="250" y="734" type="curve" smooth="yes"/>
			<point x="150" y="734"/>
			<point x="108" y="690"/>
			<point x="108" y="630" type="curve" smooth="yes"/>
			<point x="108" y="566"/>
			<point x="172" y="500"/>
			<point x="262" y="460" type="curve" smooth="yes"/>
			<point x="374" y="410"/>
			<point x="432" y="358"/>
			<point x="432" y="224" type="curve" smooth="yes"/>
			<point x="432" y="108"/>
			<point x="378" y="16"/>
			<point x="264" y="16" type="curve" smooth="yes"/>
			<point x="166" y="16"/>
			<point x="94" y="98"/>
			<point x="94" y="226" type="curve" smooth="yes"/>
			<point x="94" y="334"/>
			<point x="164" y="440"/>
			<point x="280" y="452" type="curve"/>
			<point x="260" y="474" type="line"/>
			<point x="152" y="462"/>
			<point x="62" y="356"/>
			<point x="62" y="224" type="curve" smooth="yes"/>
			<point x="62" y="73"/>
			<point x="156" y="-12"/>
		</contour>
	</outline>
	<anchor name="aboveUC" x="280" y="732"/>
	<anchor name="belowLC" x="250" y="-22"/>
</glyph>
<glyph name="zeta" format="2">
	<unicode hex="03B6"/>
	<advance width="390"/>
	<outline>
		<contour>
			<point x="336" y="-182" type="line"/>
			<point x="374" y="-134"/>
			<point x="390" y="-98"/>
			<point x="390" y="-72" type="curve" smooth="yes"/>
			<point x="390" y="-14"/>
			<point x="342" y="2"/>
			<point x="254" y="18" type="curve" smooth="yes"/>
			<point x="164" y="34"/>
			<point x="86" y="76"/>
			<point x="86" y="218" type="curve" smooth="yes"/>
			<point x="86" y="384"/>
			<point x="262" y="600"/>
			<point x="380" y="694" type="curve"/>
			<point x="384" y="694" type="line"/>
			<point x="384" y="722" type="line"/>
			<point x="84" y="722" type="line"/>
			<point x="84" y="694" type="line"/>
			<point x="151" y="696"/>
			<point x="280" y="696"/>
			<point x="347" y="696" type="curve"/>
			<point x="238" y="614"/>
			<point x="54" y="394"/>
			<point x="54" y="218" type="curve" smooth="yes"/>
			<point x="54" y="62"/>
			<point x="134" y="12"/>
			<point x="236" y="-8" type="curve" smooth="yes"/>
			<point x="340" y="-28"/>
			<point x="360" y="-42"/>
			<point x="360" y="-74" type="curve" smooth="yes"/>
			<point x="360" y="-102"/>
			<point x="350" y="-116"/>
			<point x="310" y="-164" type="curve"/>
		</contour>
	</outline>
	<anchor name="aboveUC" x="240" y="732"/>
	<anchor name="belowLC" x="220" y="-182"/>
</glyph>
<glyph name="lambda" format="2">
	<unicode hex="03BB"/>
	<advance width="448"/>
	<outline>
		<contour>
			<point x="48" y="-6" type="line"/>
			<point x="240" y="458" type="line"/>
			<point x="244" y="458" type="line"/>
			<point x="408" y="0" type="line"/>
			<point x="438" y="0" type="line"/>
			<point x="248" y="522" type="line" smooth="yes"/>
			<point x="204" y="656"/>
			<point x="168" y="734"/>
			<point x="86" y="734" type="curve" smooth="yes"/>
			<point x="56" y="734"/>
			<point x="32" y="726"/>
			<point x="16" y="718" type="curve"/>
			<point x="28" y="690" type="line"/>
			<point x="42" y="698"/>
			<point x="60" y="706"/>
			<point x="84" y="706" type="curve" smooth="yes"/>
			<point x="150" y="706"/>
			<point x="180" y="642"/>
			<point x="220" y="522" type="curve" smooth="yes"/>
			<point x="228" y="496" type="line"/>
			<point x="18" y="0" type="line"/>
		</contour>
	</outline>
	<anchor name="aboveUC" x="240" y="732"/>
	<anchor name="belowLC" x="230" y="-22"/>
</glyph>
<glyph name="sigma.end" format="2">
	<unicode hex="03C2"/>
	<advance width="420"/>
	<outline>
		<contour>
			<point x="290" y="-176" type="line"/>
			<point x="328" y="-128"/>
			<point x="350" y="-84"/>
			<point x="350" y="-52" type="curve" smooth="yes"/>
			<point x="350" y="6"/>
			<point x="324" y="30"/>
			<point x="254" y="50" type="curve" smooth="yes"/>
			<point x="172" y="76"/>
			<point x="86" y="118"/>
			<point x="86" y="252" type="curve" smooth="yes"/>
			<point x="86" y="378"/>
			<point x="156" y="462"/>
			<point x="248" y="462" type="curve" smooth="yes"/>
			<point x="298" y="462"/>
			<point x="330" y="438"/>
			<point x="362" y="408" type="curve"/>
			<point x="382" y="430" type="line"/>
			<point x="350" y="460"/>
			<point x="314" y="490"/>
			<point x="248" y="490" type="curve" smooth="yes"/>
			<point x="144" y="490"/>
			<point x="54" y="406"/>
			<point x="54" y="252" type="curve" smooth="yes"/>
			<point x="54" y="104"/>
			<point x="146" y="54"/>
			<point x="236" y="24" type="curve" smooth="yes"/>
			<point x="306" y="4"/>
			<point x="320" y="-20"/>
			<point x="320" y="-54" type="curve" smooth="yes"/>
			<point x="320" y="-85"/>
			<point x="304" y="-110"/>
			<point x="264" y="-158" type="curve"/>
		</contour>
	</outline>
	<anchor name="aboveLC" x="240" y="502"/>
	<anchor name="belowLC" x="200" y="-182"/>
</glyph>
<glyph name="upsilon" format="2">
	<unicode hex="03C5"/>
	<advance width="492"/>
	<outline>
		<contour>
			<point x="240" y="-12" type="curve" smooth="yes"/>
			<point x="340" y="-12"/>
			<point x="428" y="67"/>
			<point x="428" y="229" type="curve" smooth="yes"/>
			<point x="428" y="318"/>
			<point x="414" y="402"/>
			<point x="380" y="490" type="curve"/>
			<point x="350" y="480" type="line"/>
			<point x="386" y="392"/>
			<point x="396" y="312"/>
			<point x="396" y="230" type="curve" smooth="yes"/>
			<point x="396" y="84"/>
			<point x="326" y="16"/>
			<point x="242" y="16" type="curve" smooth="yes"/>
			<point x="170" y="16"/>
			<point x="104" y="52"/>
			<point x="104" y="166" type="curve" smooth="yes"/>
			<point x="104" y="222"/>
			<point x="110" y="306"/>
			<point x="110" y="372" type="curve" smooth="yes"/>
			<point x="110" y="412"/>
			<point x="110" y="444"/>
			<point x="104" y="478" type="curve"/>
			<point x="74" y="478" type="line"/>
			<point x="80" y="430"/>
			<point x="80" y="398"/>
			<point x="80" y="360" type="curve" smooth="yes"/>
			<point x="80" y="295"/>
			<point x="76" y="230"/>
			<point x="76" y="165" type="curve" smooth="yes"/>
			<point x="76" y="34"/>
			<point x="150" y="-12"/>
		</contour>
	</outline>
	<anchor name="aboveLC" x="230" y="502"/>
	<anchor name="belowLC" x="250" y="-22"/>
</glyph>
<glyph name="beta.a" format="2">
	<unicode hex="03D0"/>
	<advance width="528"/>
	<outline>
		<contour>
			<point x="292" y="-12" type="curve" smooth="yes"/>
			<point x="400" y="-12"/>
			<point x="482" y="70"/>
			<point x="482" y="182" type="curve" smooth="yes"/>
			<point x="482" y="296"/>
			<point x="418" y="376"/>
			<point x="296" y="384" type="curve"/>
			<point x="296" y="388" type="line"/>
			<point x="374" y="428"/>
			<point x="416" y="492"/>
			<point x="416" y="568" type="curve" smooth="yes"/>
			<point x="416" y="678"/>
			<point x="340" y="732"/>
			<point x="262" y="732" type="curve" smooth="yes"/>
			<point x="145" y="732"/>
			<point x="88" y="640"/>
			<point x="88" y="512" type="curve" smooth="yes"/>
			<point x="88" y="212" type="line" smooth="yes"/>
			<point x="88" y="42"/>
			<point x="206" y="-12"/>
		</contour>
		<contour>
			<point x="292" y="16" type="curve" smooth="yes"/>
			<point x="235" y="16"/>
			<point x="118" y="50"/>
			<point x="118" y="224" type="curve" smooth="yes"/>
			<point x="118" y="320"/>
			<point x="118" y="366"/>
			<point x="118" y="498" type="curve" smooth="yes"/>
			<point x="118" y="638"/>
			<point x="176" y="702"/>
			<point x="264" y="702" type="curve" smooth="yes"/>
			<point x="330" y="702"/>
			<point x="384" y="660"/>
			<point x="384" y="568" type="curve" smooth="yes"/>
			<point x="384" y="464"/>
			<point x="300" y="386"/>
			<point x="104" y="357" type="curve"/>
			<point x="112" y="329" type="line"/>
			<point x="209" y="354"/>
			<point x="260" y="358"/>
			<point x="278" y="358" type="curve" smooth="yes"/>
			<point x="398" y="358"/>
			<point x="450" y="276"/>
			<point x="450" y="182" type="curve" smooth="yes"/>
			<point x="450" y="84"/>
			<point x="386" y="16"/>
		</contour>
	</outline>
	<anchor name="aboveUC" x="260" y="732"/>
	<anchor name="belowLC" x="290" y="-22"/>
</glyph>
<glyph name="koppa" format="2">
	<unicode hex="03D9"/>
	<advance width="520"/>
	<outline>
		<contour>
			<point x="260" y="-12" type="curve" smooth="yes"/>
			<point x="378" y="-12"/>
			<point x="466" y="78"/>
			<point x="466" y="238" type="curve" smooth="yes"/>
			<point x="466" y="400"/>
			<point x="378" y="490"/>
			<point x="260" y="490" type="curve" smooth="yes"/>
			<point x="142" y="490"/>
			<point x="54" y="400"/>
			<point x="54" y="238" type="curve" smooth="yes"/>
			<point x="54" y="78"/>
			<point x="142" y="-12"/>
		</contour>
		<contour>
			<point x="260" y="16" type="curve" smooth="yes"/>
			<point x="154" y="16"/>
			<point x="86" y="104"/>
			<point x="86" y="238" type="curve" smooth="yes"/>
			<point x="86" y="372"/>
			<point x="154" y="462"/>
			<point x="260" y="462" type="curve" smooth="yes"/>
			<point x="366" y="462"/>
			<point x="434" y="372"/>
			<point x="434" y="238" type="curve" smooth="yes"/>
			<point x="434" y="104"/>
			<point x="366" y="16"/>
		</contour>
		<contour>
			<point x="248" y="-180" type="line"/>
			<point x="278" y="-180" type="line"/>
			<point x="278" y="-94"/>
			<point x="278" y="-76"/>
			<point x="276" y="8" type="curve"/>
			<point x="248" y="7" type="line"/>
		</contour>
	</outline>
	<anchor name="aboveLC" x="260" y="502"/>
	<anchor name="belowLC" x="260" y="-182"/>
</glyph>
<glyph name="stigma" format="2">
	<unicode hex="03DB"/>
	<advance width="446"/>
	<outline>
		<contour>
			<point x="326" y="-182" type="line"/>
			<point x="360" y="-138"/>
			<point x="380" y="-98"/>
			<point x="380" y="-72" type="curve" smooth="yes"/>
			<point x="380" y="-20"/>
			<point x="346" y="8"/>
			<point x="264" y="26" type="curve" smooth="yes"/>
			<point x="170" y="47"/>
			<point x="86" y="98"/>
			<point x="86" y="234" type="curve" smooth="yes"/>
			<point x="86" y="376"/>
			<point x="166" y="450"/>
			<point x="292" y="450" type="curve" smooth="yes"/>
			<point x="350" y="450"/>
			<point x="390" y="450"/>
			<point x="420" y="448" type="curve"/>
			<point x="420" y="478" type="line"/>
			<point x="292" y="478" type="line" smooth="yes"/>
			<point x="156" y="478"/>
			<point x="54" y="404"/>
			<point x="54" y="234" type="curve" smooth="yes"/>
			<point x="54" y="84"/>
			<point x="138" y="26"/>
			<point x="246" y="0" type="curve" smooth="yes"/>
			<point x="336" y="-22"/>
			<point x="350" y="-44"/>
			<point x="350" y="-74" type="curve" smooth="yes"/>
			<point x="350" y="-102"/>
			<point x="340" y="-116"/>
			<point x="300" y="-164" type="curve"/>
		</contour>
	</outline>
	<anchor name="aboveLC" x="280" y="502"/>
	<anchor name="belowLC" x="220" y="-182"/>
</glyph>
<glyph name="sho" format="2">
	<unicode hex="03F8"/>
	<advance width="498"/>
	<outline>
		<contour>
			<point x="96" y="-180" type="line"/>
			<point x="126" y="-180" type="line"/>
			<point x="126" y="-84"/>
			<point x="126" y="-28"/>
			<point x="124" y="68" type="curve"/>
			<point x="176" y="8"/>
			<point x="228" y="-12"/>
			<point x="288" y="-12" type="curve" smooth="yes"/>
			<point x="393" y="-12"/>
			<point x="484" y="84"/>
			<point x="484" y="246" type="curve" smooth="yes"/>
			<point x="484" y="394"/>
			<point x="425" y="490"/>
			<point x="304" y="490" type="curve" smooth="yes"/>
			<point x="224" y="490"/>
			<point x="174" y="446"/>
			<point x="126" y="364" type="curve"/>
			<point x="126" y="438"/>
			<point x="126" y="547"/>
			<point x="126" y="638" type="curve"/>
			<point x="96" y="638" type="line"/>
		</contour>
		<contour>
			<point x="290" y="16" type="curve" smooth="yes"/>
			<point x="238" y="16"/>
			<point x="184" y="30"/>
			<point x="126" y="102" type="curve"/>
			<point x="126" y="244" type="line" smooth="yes"/>
			<point x="126" y="392"/>
			<point x="232" y="462"/>
			<point x="302" y="462" type="curve" smooth="yes"/>
			<point x="410" y="462"/>
			<point x="452" y="368"/>
			<point x="452" y="246" type="curve" smooth="yes"/>
			<point x="452" y="112"/>
			<point x="380" y="16"/>
		</contour>
	</outline>
	<anchor name="aboveLC" x="300" y="632"/>
	<anchor name="belowLC" x="290" y="-182"/>
</glyph>
<glyph name="Dje" format="2">
	<unicode hex="0402"/>
	<advance width="676"/>
	<outline>
		<contour>
			<point x="446" y="-12" type="curve" smooth="yes"/>
			<point x="524" y="-12"/>
			<point x="618" y="36"/>
			<point x="618" y="192" type="curve" smooth="yes"/>
			<point x="618" y="334"/>
			<point x="528" y="396"/>
			<point x="386" y="396" type="curve" smooth="yes"/>
			<point x="341" y="396"/>
			<point x="290" y="390"/>
			<point x="256" y="384" type="curve"/>
			<point x="256" y="632" type="line"/>
			<point x="504" y="632" type="line"/>
			<point x="504" y="660" type="line"/>
			<point x="30" y="660" type="line"/>
			<point x="30" y="632" type="line"/>
			<point x="224" y="632" type="line"/>
			<point x="224" y="0" type="line"/>
			<point x="256" y="0" type="line"/>
			<point x="256" y="354" type="line"/>
			<point x="289" y="360"/>
			<point x="340" y="366"/>
			<point x="384" y="366" type="curve" smooth="yes"/>
			<point x="510" y="366"/>
			<point x="584" y="314"/>
			<point x="584" y="192" type="curve" smooth="yes"/>
			<point x="584" y="60"/>
			<point x="506" y="18"/>
			<point x="444" y="18" type="curve" smooth="yes"/>
			<point x="428" y="18"/>
			<point x="403" y="24"/>
			<point x="394" y="28" type="curve"/>
			<point x="386" y="-2" type="line"/>
			<point x="398" y="-6"/>
			<point x="426" y="-12"/>
		</contour>
	</outline>
</glyph>
<glyph name="Ieukran" format="2">
	<unicode hex="0404"/>
	<advance width="562"/>
	<outline>
		<contour>
			<point x="328" y="-12" type="curve" smooth="yes"/>
			<point x="414" y="-12"/>
			<point x="472" y="24"/>
			<point x="522" y="82" type="curve"/>
			<point x="502" y="102" type="line"/>
			<point x="452" y="46"/>
			<point x="400" y="18"/>
			<point x="330" y="18" type="curve" smooth="yes"/>
			<point x="178" y="18"/>
			<point x="88" y="132"/>
			<point x="88" y="338" type="curve" smooth="yes"/>
			<point x="88" y="526"/>
			<point x="178" y="642"/>
			<point x="332" y="642" type="curve" smooth="yes"/>
			<point x="394" y="642"/>
			<point x="446" y="614"/>
			<point x="482" y="572" type="curve"/>
			<point x="502" y="594" type="line"/>
			<point x="468" y="634"/>
			<point x="408" y="672"/>
			<point x="332" y="672" type="curve" smooth="yes"/>
			<point x="162" y="672"/>
			<point x="56" y="548"/>
			<point x="56" y="332" type="curve" smooth="yes"/>
			<point x="56" y="116"/>
			<point x="162" y="-12"/>
		</contour>
		<contour>
			<point x="62" y="338" type="line"/>
			<point x="402" y="338" type="line"/>
			<point x="402" y="366" type="line"/>
			<point x="62" y="366" type="line"/>
		</contour>
	</outline>
	<anchor name="aboveUC" x="320" y="682"/>
</glyph>
<glyph name="Dzhe" format="2">
	<unicode hex="040F"/>
	<advance width="630"/>
	<outline>
		<contour>
			<point x="302" y="-188" type="line"/>
			<point x="328" y="-188" type="line"/>
			<point x="334" y="0" type="line"/>
			<point x="530" y="0" type="line"/>
			<point x="530" y="660" type="line"/>
			<point x="498" y="660" type="line"/>
			<point x="498" y="28" type="line"/>
			<point x="132" y="28" type="line"/>
			<point x="132" y="660" type="line"/>
			<point x="100" y="660" type="line"/>
			<point x="100" y="0" type="line"/>
			<point x="302" y="0" type="line"/>
		</contour>
	</outline>
</glyph>
<glyph name="Zhe" format="2">
	<unicode hex="0416"/>
	<advance width="794"/>
	<outline>
		<contour>
			<point x="10" y="0" type="line"/>
			<point x="48" y="0" type="line"/>
			<point x="245" y="338" type="line"/>
			<point x="382" y="338" type="line"/>
			<point x="382" y="0" type="line"/>
			<point x="412" y="0" type="line"/>
			<point x="412" y="338" type="line"/>
			<point x="549" y="338" type="line"/>
			<point x="746" y="0" type="line"/>
			<point x="784" y="0" type="line"/>
			<point x="574" y="352" type="line"/>
			<point x="656" y="536" type="line" smooth="yes"/>
			<point x="696" y="625"/>
			<point x="724" y="634"/>
			<point x="752" y="634" type="curve" smooth="yes"/>
			<point x="758" y="634"/>
			<point x="766" y="632"/>
			<point x="772" y="630" type="curve"/>
			<point x="778" y="664" type="line"/>
			<point x="772" y="666"/>
			<point x="764" y="668"/>
			<point x="756" y="668" type="curve" smooth="yes"/>
			<point x="708" y="668"/>
			<point x="674" y="649"/>
			<point x="628" y="546" type="curve" smooth="yes"/>
			<point x="547" y="366" type="line"/>
			<point x="412" y="366" type="line"/>
			<point x="412" y="660" type="line"/>
			<point x="382" y="660" type="line"/>
			<point x="382" y="366" type="line"/>
			<point x="247" y="366" type="line"/>
			<point x="166" y="546" type="line" smooth="yes"/>
			<point x="120" y="649"/>
			<point x="86" y="668"/>
			<point x="38" y="668" type="curve" smooth="yes"/>
			<point x="30" y="668"/>
			<point x="22" y="666"/>
			<point x="16" y="664" type="curve"/>
			<point x="22" y="630" type="line"/>
			<point x="28" y="632"/>
			<point x="36" y="634"/>
			<point x="42" y="634" type="curve" smooth="yes"/>
			<point x="70" y="634"/>
			<point x="98" y="625"/>
			<point x="138" y="536" type="curve" smooth="yes"/>
			<point x="220" y="352" type="line"/>
		</contour>
	</outline>
	<anchor name="aboveUC" x="395" y="682"/>
</glyph>
<glyph name="Icyr" format="2">
	<unicode hex="0418"/>
	<advance width="640"/>
	<outline>
		<contour>
			<point x="100" y="0" type="line"/>
			<point x="134" y="0" type="line"/>
			<point x="432" y="486" type="line"/>
			<point x="508" y="614" type="line"/>
			<point x="512" y="614" type="line"/>
			<point x="510" y="552"/>
			<point x="508" y="496"/>
			<point x="508" y="434" type="curve" smooth="yes"/>
			<point x="508" y="0" type="line"/>
			<point x="540" y="0" type="line"/>
			<point x="540" y="660" type="line"/>
			<point x="506" y="660" type="line"/>
			<point x="208" y="174" type="line"/>
			<point x="132" y="46" type="line"/>
			<point x="128" y="46" type="line"/>
			<point x="130" y="110"/>
			<point x="132" y="170"/>
			<point x="132" y="232" type="curve" smooth="yes"/>
			<point x="132" y="660" type="line"/>
			<point x="100" y="660" type="line"/>
		</contour>
	</outline>
	<anchor name="aboveUC" x="324" y="682"/>
</glyph>
<glyph name="Ef" format="2">
	<unicode hex="0424"/>
	<advance width="706"/>
	<outline>
		<contour>
			<point x="340" y="88" type="curve" smooth="yes"/>
			<point x="366" y="88" type="line" smooth="yes"/>
			<point x="552" y="88"/>
			<point x="658" y="182"/>
			<point x="658" y="332" type="curve" smooth="yes"/>
			<point x="658" y="482"/>
			<point x="552" y="572"/>
			<point x="366" y="572" type="curve" smooth="yes"/>
			<point x="340" y="572" type="line" smooth="yes"/>
			<point x="154" y="572"/>
			<point x="48" y="482"/>
			<point x="48" y="332" type="curve" smooth="yes"/>
			<point x="48" y="182"/>
			<point x="154" y="88"/>
		</contour>
		<contour>
			<point x="340" y="116" type="line" smooth="yes"/>
			<point x="170" y="116"/>
			<point x="82" y="202"/>
			<point x="82" y="332" type="curve" smooth="yes"/>
			<point x="82" y="462"/>
			<point x="170" y="544"/>
			<point x="340" y="544" type="curve" smooth="yes"/>
			<point x="366" y="544" type="line" smooth="yes"/>
			<point x="536" y="544"/>
			<point x="624" y="462"/>
			<point x="624" y="332" type="curve" smooth="yes"/>
			<point x="624" y="202"/>
			<point x="536" y="116"/>
			<point x="366" y="116" type="curve" smooth="yes"/>
		</contour>
		<contour>
			<point x="338" y="-12" type="line"/>
			<point x="368" y="-12" type="line"/>
			<point x="368" y="672" type="line"/>
			<point x="338" y="672" type="line"/>
		</contour>
	</outline>
</glyph>
<glyph name="el" format="2">
	<unicode hex="043B"/>
	<advance width="496"/>
	<outline>
		<contour>
			<point x="46" y="-8" type="curve" smooth="yes"/>
			<point x="98" y="-8"/>
			<point x="132" y="39"/>
			<point x="144" y="142" type="curve" smooth="yes"/>
			<point x="156" y="245"/>
			<point x="168" y="347"/>
			<point x="180" y="450" type="curve"/>
			<point x="370" y="450" type="line"/>
			<point x="370" y="0" type="line"/>
			<point x="400" y="0" type="line"/>
			<point x="400" y="478" type="line"/>
			<point x="156" y="478" type="line"/>
			<point x="143" y="367"/>
			<point x="129" y="257"/>
			<point x="116" y="146" type="curve" smooth="yes"/>
			<point x="106" y="63"/>
			<point x="82" y="24"/>
			<point x="42" y="24" type="curve" smooth="yes"/>
			<point x="34" y="24"/>
			<point x="28" y="26"/>
			<point x="22" y="28" type="curve"/>
			<point x="14" y="-2" type="line"/>
			<point x="24" y="-6"/>
			<point x="32" y="-8"/>
		</contour>
	</outline>
</glyph>
<glyph name="ya" format="2">
	<unicode hex="044F"/>
	<advance width="490"/>
	<outline>
		<contour>
			<point x="364" y="0" type="line"/>
			<point x="394" y="0" type="line"/>
			<point x="394" y="478" type="line"/>
			<point x="254" y="478" type="line" smooth="yes"/>
			<point x="150" y="478"/>
			<point x="76" y="444"/>
			<point x="76" y="350" type="curve" smooth="yes"/>
			<point x="76" y="256"/>
			<point x="153" y="216"/>
			<point x="246" y="216" type="curve" smooth="yes"/>
			<point x="364" y="216" type="line"/>
		</contour>
		<contour>
			<point x="264" y="244" type="line" smooth="yes"/>
			<point x="169" y="244"/>
			<point x="108" y="279"/>
			<point x="108" y="350" type="curve" smooth="yes"/>
			<point x="108" y="421"/>
			<point x="169" y="450"/>
			<point x="264" y="450" type="curve" smooth="yes"/>
			<point x="364" y="450" type="line"/>
			<point x="364" y="244" type="line"/>
		</contour>
		<contour>
			<point x="46" y="0" type="line"/>
			<point x="82" y="0" type="line"/>
			<point x="248" y="218" type="line"/>
			<point x="222" y="230" type="line"/>
		</contour>
	</outline>
	<anchor name="aboveLC" x="248" y="502"/>
</glyph>
<glyph name="ieukran" format="2">
	<unicode hex="0454"/>
	<advance width="446"/>
	<outline>
		<contour>
			<point x="268" y="-12" type="curve" smooth="yes"/>
			<point x="330" y="-12"/>
			<point x="380" y="16"/>
			<point x="420" y="52" type="curve"/>
			<point x="402" y="74" type="line"/>
			<point x="368" y="42"/>
			<point x="322" y="16"/>
			<point x="268" y="16" type="curve" smooth="yes"/>
			<point x="156" y="16"/>
			<point x="86" y="96"/>
			<point x="86" y="238" type="curve" smooth="yes"/>
			<point x="86" y="380"/>
			<point x="164" y="462"/>
			<point x="268" y="462" type="curve" smooth="yes"/>
			<point x="318" y="462"/>
			<point x="356" y="438"/>
			<point x="388" y="408" type="curve"/>
			<point x="408" y="430" type="line"/>
			<point x="376" y="460"/>
			<point x="334" y="490"/>
			<point x="268" y="490" type="curve" smooth="yes"/>
			<point x="152" y="490"/>
			<point x="54" y="408"/>
			<point x="54" y="238" type="curve" smooth="yes"/>
			<point x="54" y="70"/>
			<point x="144" y="-12"/>
		</contour>
		<contour>
			<point x="72" y="238" type="line"/>
			<point x="357" y="238" type="line"/>
			<point x="357" y="266" type="line"/>
			<point x="72" y="266" type="line"/>
		</contour>
	</outline>
	<anchor name="aboveLC" x="268" y="502"/>
</glyph>
<glyph name="nje" format="2">
	<unicode hex="045A"/>
	<advance width="734"/>
	<outline>
		<contour>
			<point x="96" y="0" type="line"/>
			<point x="126" y="0" type="line"/>
			<point x="126" y="238" type="line"/>
			<point x="396" y="238" type="line"/>
			<point x="396" y="0" type="line"/>
			<point x="510" y="0" type="line" smooth="yes"/>
			<point x="622" y="0"/>
			<point x="688" y="50"/>
			<point x="688" y="142" type="curve" smooth="yes"/>
			<point x="688" y="234"/>
			<point x="622" y="282"/>
			<point x="510" y="282" type="curve" smooth="yes"/>
			<point x="426" y="282" type="line"/>
			<point x="426" y="478" type="line"/>
			<point x="396" y="478" type="line"/>
			<point x="396" y="266" type="line"/>
			<point x="126" y="266" type="line"/>
			<point x="126" y="478" type="line"/>
			<point x="96" y="478" type="line"/>
		</contour>
		<contour>
			<point x="426" y="28" type="line"/>
			<point x="426" y="254" type="line"/>
			<point x="500" y="254" type="line" smooth="yes"/>
			<point x="605" y="254"/>
			<point x="656" y="221"/>
			<point x="656" y="142" type="curve" smooth="yes"/>
			<point x="656" y="63"/>
			<point x="605" y="28"/>
			<point x="500" y="28" type="curve" smooth="yes"/>
		</contour>
	</outline>
</glyph>
<glyph name="zedescender" format="2">
	<unicode hex="0499"/>
	<advance width="440"/>
	<outline>
		<contour>
			<point x="204" y="-172" type="line"/>
			<point x="228" y="-172" type="line"/>
			<point x="232" y="10" type="line"/>
			<point x="202" y="10" type="line"/>
		</contour>
		<component base="ze"/>
	</outline>
</glyph>
<glyph name="kabashkir" format="2">
	<unicode hex="04A1"/>
	<advance width="572"/>
	<outline>
		<contour>
			<point x="246" y="478" type="line"/>
			<point x="26" y="478" type="line"/>
			<point x="26" y="450" type="line"/>
			<point x="216" y="450" type="line"/>
		</contour>
		<component base="ka" xOffset="120"/>
	</outline>
</glyph>
<glyph name="Ustraightstroke" format="2">
	<unicode hex="04B0"/>
	<advance width="436"/>
	<outline>
		<contour>
			<point x="64" y="266" type="line"/>
			<point x="372" y="266" type="line"/>
			<point x="372" y="294" type="line"/>
			<point x="148" y="294" type="line"/>
			<point x="64" y="292" type="line"/>
		</contour>
		<component base="Y"/>
	</outline>
	<anchor name="aboveUC" x="218" y="682"/>
</glyph>
<glyph name="ghedescender" format="2">
	<unicode hex="04F7"/>
	<advance width="394"/>
	<outline>
		<contour>
			<point x="160" y="-172" type="line"/>
			<point x="186" y="-172" type="line"/>
			<point x="190" y="12" type="line"/>
			<point x="190" y="28" type="line"/>
			<point x="116" y="28" type="line"/>
			<point x="116" y="0" type="line"/>
			<point x="160" y="0" type="line"/>
		</contour>
		<component base="ghe"/>
	</outline>
</glyph>
<glyph name="B.sups" format="2">
	<unicode hex="1D2E"/>
	<advance width="379"/>
	<outline>
		<contour>
			<point x="63" y="410" type="line"/>
			<point x="189" y="410" type="line" smooth="yes"/>
			<point x="288" y="410"/>
			<point x="352" y="452"/>
			<point x="352" y="536" type="curve" smooth="yes"/>
			<point x="352" y="596"/>
			<point x="312" y="631"/>
			<point x="247" y="641" type="curve"/>
			<point x="247" y="644" type="line"/>
			<point x="298" y="656"/>
			<point x="325" y="692"/>
			<point x="325" y="737" type="curve" smooth="yes"/>
			<point x="325" y="809"/>
			<point x="269" y="842"/>
			<point x="181" y="842" type="curve" smooth="yes"/>
			<point x="63" y="842" type="line"/>
		</contour>
		<contour>
			<point x="92" y="652" type="line"/>
			<point x="92" y="818" type="line"/>
			<point x="173" y="818" type="line" smooth="yes"/>
			<point x="254" y="818"/>
			<point x="296" y="794"/>
			<point x="296" y="738" type="curve" smooth="yes"/>
			<point x="296" y="680"/>
			<point x="260" y="652"/>
			<point x="169" y="652" type="curve" smooth="yes"/>
		</contour>
		<contour>
			<point x="92" y="434" type="line"/>
			<point x="92" y="628" type="line"/>
			<point x="181" y="628" type="line" smooth="yes"/>
			<point x="271" y="628"/>
			<point x="323" y="598"/>
			<point x="323" y="535" type="curve" smooth="yes"/>
			<point x="323" y="462"/>
			<point x="269" y="434"/>
			<point x="181" y="434" type="curve" smooth="yes"/>
		</contour>
	</outline>
</glyph>
<glyph name="G.sups" format="2">
	<unicode hex="1D33"/>
	<advance width="396"/>
	<outline>
		<contour>
			<point x="222" y="402" type="curve" smooth="yes"/>
			<point x="279" y="402"/>
			<point x="324" y="422"/>
			<point x="350" y="450" type="curve"/>
			<point x="350" y="622" type="line"/>
			<point x="218" y="622" type="line"/>
			<point x="218" y="597" type="line"/>
			<point x="323" y="597" type="line"/>
			<point x="323" y="461" type="line"/>
			<point x="302" y="441"/>
			<point x="264" y="428"/>
			<point x="224" y="428" type="curve" smooth="yes"/>
			<point x="124" y="428"/>
			<point x="65" y="506"/>
			<point x="65" y="628" type="curve" smooth="yes"/>
			<point x="65" y="747"/>
			<point x="127" y="825"/>
			<point x="228" y="825" type="curve" smooth="yes"/>
			<point x="276" y="825"/>
			<point x="307" y="804"/>
			<point x="329" y="780" type="curve"/>
			<point x="346" y="799" type="line"/>
			<point x="323" y="823"/>
			<point x="286" y="850"/>
			<point x="228" y="850" type="curve" smooth="yes"/>
			<point x="112" y="850"/>
			<point x="34" y="763"/>
			<point x="34" y="627" type="curve" smooth="yes"/>
			<point x="34" y="489"/>
			<point x="110" y="402"/>
		</contour>
	</outline>
</glyph>
<glyph name="T.sups" format="2">
	<unicode hex="1D40"/>
	<advance width="341"/>
	<outline>
		<contour>
			<point x="156" y="410" type="line"/>
			<point x="185" y="410" type="line"/>
			<point x="185" y="817" type="line"/>
			<point x="324" y="817" type="line"/>
			<point x="324" y="842" type="line"/>
			<point x="17" y="842" type="line"/>
			<point x="17" y="817" type="line"/>
			<point x="156" y="817" type="line"/>
		</contour>
	</outline>
</glyph>
<glyph name="W.sups" format="2">
	<unicode hex="1D42"/>
	<advance width="507"/>
	<outline>
		<contour>
			<point x="117" y="410" type="line"/>
			<point x="149" y="410" type="line"/>
			<point x="228" y="708" type="line" smooth="yes"/>
			<point x="237" y="741"/>
			<point x="244" y="771"/>
			<point x="252" y="805" type="curve"/>
			<point x="255" y="805" type="line"/>
			<point x="263" y="771"/>
			<point x="269" y="741"/>
			<point x="278" y="708" type="curve" smooth="yes"/>
			<point x="359" y="410" type="line"/>
			<point x="390" y="410" type="line"/>
			<point x="490" y="842" type="line"/>
			<point x="461" y="842" type="line"/>
			<point x="405" y="588" type="line" smooth="yes"/>
			<point x="394" y="540"/>
			<point x="386" y="493"/>
			<point x="376" y="447" type="curve"/>
			<point x="373" y="447" type="line"/>
			<point x="361" y="493"/>
			<point x="351" y="540"/>
			<point x="338" y="588" type="curve" smooth="yes"/>
			<point x="269" y="842" type="line"/>
			<point x="239" y="842" type="line"/>
			<point x="170" y="588" type="line" smooth="yes"/>
			<point x="157" y="540"/>
			<point x="147" y="493"/>
			<point x="136" y="447" type="curve"/>
			<point x="133" y="447" type="line"/>
			<point x="124" y="493"/>
			<point x="115" y="540"/>
			<point x="104" y="588" type="curve" smooth="yes"/>
			<point x="48" y="842" type="line"/>
			<point x="17" y="842" type="line"/>
		</contour>
	</outline>
</glyph>
<glyph name="eopen.sups" format="2">
	<unicode hex="1D4B"/>
	<advance width="308"/>
	<outline>
		<contour>
			<point x="172" y="402" type="curve" smooth="yes"/>
			<point x="218" y="402"/>
			<point x="250" y="414"/>
			<point x="284" y="442" type="curve"/>
			<point x="270" y="460" type="line"/>
			<point x="240" y="437"/>
			<point x="211" y="428"/>
			<point x="174" y="428" type="curve" smooth="yes"/>
			<point x="116" y="428"/>
			<point x="74" y="455"/>
			<point x="74" y="495" type="curve" smooth="yes"/>
			<point x="74" y="538"/>
			<point x="114" y="564"/>
			<point x="182" y="564" type="curve" smooth="yes"/>
			<point x="221" y="564" type="line"/>
			<point x="221" y="590" type="line"/>
			<point x="188" y="590" type="line" smooth="yes"/>
			<point x="124" y="590"/>
			<point x="94" y="618"/>
			<point x="94" y="654" type="curve" smooth="yes"/>
			<point x="94" y="690"/>
			<point x="130" y="708"/>
			<point x="172" y="708" type="curve" smooth="yes"/>
			<point x="203" y="708"/>
			<point x="228" y="700"/>
			<point x="254" y="680" type="curve"/>
			<point x="268" y="698" type="line"/>
			<point x="240" y="724"/>
			<point x="208" y="734"/>
			<point x="172" y="734" type="curve" smooth="yes"/>
			<point x="113" y="734"/>
			<point x="64" y="707"/>
			<point x="64" y="654" type="curve" smooth="yes"/>
			<point x="64" y="622"/>
			<point x="88" y="594"/>
			<point x="121" y="582" type="curve"/>
			<point x="121" y="578" type="line"/>
			<point x="82" y="568"/>
			<point x="44" y="546"/>
			<point x="44" y="495" type="curve" smooth="yes"/>
			<point x="44" y="440"/>
			<point x="95" y="402"/>
		</contour>
	</outline>
</glyph>
<glyph name="g.sups" format="2">
	<unicode hex="1D4D"/>
	<advance width="328"/>
	<outline>
		<contour>
			<point x="166" y="258" type="curve" smooth="yes"/>
			<point x="260" y="258"/>
			<point x="318" y="310"/>
			<point x="318" y="364" type="curve" smooth="yes"/>
			<point x="318" y="416"/>
			<point x="286" y="438"/>
			<point x="213" y="438" type="curve" smooth="yes"/>
			<point x="144" y="438" type="line" smooth="yes"/>
			<point x="98" y="438"/>
			<point x="82" y="454"/>
			<point x="82" y="478" type="curve" smooth="yes"/>
			<point x="82" y="498"/>
			<point x="94" y="512"/>
			<point x="108" y="522" type="curve"/>
			<point x="124" y="512"/>
			<point x="144" y="508"/>
			<point x="162" y="508" type="curve" smooth="yes"/>
			<point x="225" y="508"/>
			<point x="276" y="556"/>
			<point x="276" y="622" type="curve" smooth="yes"/>
			<point x="276" y="652"/>
			<point x="262" y="682"/>
			<point x="242" y="698" type="curve"/>
			<point x="314" y="698" type="line"/>
			<point x="314" y="724" type="line"/>
			<point x="211" y="724" type="line"/>
			<point x="197" y="730"/>
			<point x="183" y="734"/>
			<point x="162" y="734" type="curve" smooth="yes"/>
			<point x="98" y="734"/>
			<point x="48" y="688"/>
			<point x="48" y="622" type="curve" smooth="yes"/>
			<point x="48" y="584"/>
			<point x="68" y="553"/>
			<point x="89" y="536" type="curve"/>
			<point x="89" y="532" type="line"/>
			<point x="74" y="522"/>
			<point x="54" y="502"/>
			<point x="54" y="476" type="curve" smooth="yes"/>
			<point x="54" y="452"/>
			<point x="66" y="434"/>
			<point x="82" y="424" type="curve"/>
			<point x="82" y="420" type="line"/>
			<point x="52" y="400"/>
			<point x="36" y="374"/>
			<point x="36" y="346" type="curve" smooth="yes"/>
			<point x="36" y="292"/>
			<point x="84" y="258"/>
		</contour>
		<contour>
			<point x="162" y="534" type="curve" smooth="yes"/>
			<point x="112" y="534"/>
			<point x="76" y="570"/>
			<point x="76" y="622" type="curve" smooth="yes"/>
			<point x="76" y="676"/>
			<point x="112" y="708"/>
			<point x="162" y="708" type="curve" smooth="yes"/>
			<point x="208" y="708"/>
			<point x="248" y="675"/>
			<point x="248" y="622" type="curve" smooth="yes"/>
			<point x="248" y="570"/>
			<point x="208" y="534"/>
		</contour>
		<contour>
			<point x="170" y="284" type="curve" smooth="yes"/>
			<point x="102" y="284"/>
			<point x="64" y="308"/>
			<point x="64" y="349" type="curve" smooth="yes"/>
			<point x="64" y="372"/>
			<point x="78" y="394"/>
			<point x="106" y="412" type="curve"/>
			<point x="120" y="408"/>
			<point x="138" y="408"/>
			<point x="146" y="408" type="curve" smooth="yes"/>
			<point x="214" y="408" type="line" smooth="yes"/>
			<point x="262" y="408"/>
			<point x="290" y="396"/>
			<point x="290" y="362" type="curve" smooth="yes"/>
			<point x="290" y="322"/>
			<point x="242" y="284"/>
		</contour>
	</outline>
</glyph>
<glyph name="k.sups" format="2">
	<unicode hex="1D4F"/>
	<advance width="310"/>
	<outline>
		<contour>
			<point x="60" y="410" type="line"/>
			<point x="88" y="410" type="line"/>
			<point x="88" y="492" type="line"/>
			<point x="160" y="578" type="line"/>
			<point x="270" y="410" type="line"/>
			<point x="304" y="410" type="line"/>
			<point x="180" y="600" type="line"/>
			<point x="286" y="726" type="line"/>
			<point x="250" y="726" type="line"/>
			<point x="92" y="538" type="line"/>
			<point x="88" y="538" type="line"/>
			<point x="88" y="884" type="line"/>
			<point x="60" y="884" type="line"/>
		</contour>
	</outline>
</glyph>
<glyph name="m.sups" format="2">
	<unicode hex="1D50"/>
	<advance width="544"/>
	<outline>
		<contour>
			<point x="60" y="410" type="line"/>
			<point x="88" y="410" type="line"/>
			<point x="88" y="648" type="line"/>
			<point x="128" y="690"/>
			<point x="156" y="708"/>
			<point x="186" y="708" type="curve" smooth="yes"/>
			<point x="244" y="708"/>
			<point x="260" y="668"/>
			<point x="260" y="608" type="curve" smooth="yes"/>
			<point x="260" y="410" type="line"/>
			<point x="288" y="410" type="line"/>
			<point x="288" y="648" type="line"/>
			<point x="328" y="690"/>
			<point x="356" y="708"/>
			<point x="386" y="708" type="curve" smooth="yes"/>
			<point x="444" y="708"/>
			<point x="460" y="668"/>
			<point x="460" y="608" type="curve" smooth="yes"/>
			<point x="460" y="410" type="line"/>
			<point x="488" y="410" type="line"/>
			<point x="488" y="614" type="line" smooth="yes"/>
			<point x="488" y="684"/>
			<point x="462" y="734"/>
			<point x="392" y="734" type="curve" smooth="yes"/>
			<point x="350" y="734"/>
			<point x="312" y="704"/>
			<point x="280" y="670" type="curve"/>
			<point x="268" y="714"/>
			<point x="236" y="734"/>
			<point x="192" y="734" type="curve" smooth="yes"/>
			<point x="150" y="734"/>
			<point x="118" y="710"/>
			<point x="90" y="678" type="curve"/>
			<point x="86" y="678" type="line"/>
			<point x="82" y="726" type="line"/>
			<point x="60" y="726" type="line"/>
		</contour>
	</outline>
</glyph>
<glyph name="p.sups" format="2">
	<unicode hex="1D56"/>
	<advance width="364"/>
	<outline>
		<contour>
			<point x="60" y="270" type="line"/>
			<point x="88" y="270" type="line"/>
			<point x="88" y="382" type="line"/>
			<point x="86" y="441" type="line"/>
			<point x="116" y="416"/>
			<point x="156" y="402"/>
			<point x="186" y="402" type="curve" smooth="yes"/>
			<point x="262" y="402"/>
			<point x="326" y="466"/>
			<point x="326" y="574" type="curve" smooth="yes"/>
			<point x="326" y="672"/>
			<point x="284" y="734"/>
			<point x="196" y="734" type="curve" smooth="yes"/>
			<point x="154" y="734"/>
			<point x="120" y="710"/>
			<point x="92" y="686" type="curve"/>
			<point x="88" y="686" type="line"/>
			<point x="82" y="726" type="line"/>
			<point x="60" y="726" type="line"/>
		</contour>
		<contour>
			<point x="188" y="428" type="curve" smooth="yes"/>
			<point x="160" y="428"/>
			<point x="122" y="440"/>
			<point x="88" y="470" type="curve"/>
			<point x="88" y="654" type="line"/>
			<point x="124" y="688"/>
			<point x="162" y="708"/>
			<point x="194" y="708" type="curve" smooth="yes"/>
			<point x="266" y="708"/>
			<point x="296" y="652"/>
			<point x="296" y="574" type="curve" smooth="yes"/>
			<point x="296" y="486"/>
			<point x="250" y="428"/>
		</contour>
	</outline>
</glyph>
<glyph name="c.sups" format="2">
	<unicode hex="1D9C"/>
	<advance width="300"/>
	<outline>
		<contour>
			<point x="182" y="402" type="curve" smooth="yes"/>
			<point x="230" y="402"/>
			<point x="258" y="420"/>
			<point x="282" y="440" type="curve"/>
			<point x="268" y="460" type="line"/>
			<point x="246" y="442"/>
			<point x="220" y="428"/>
			<point x="182" y="428" type="curve" smooth="yes"/>
			<point x="112" y="428"/>
			<point x="64" y="486"/>
			<point x="64" y="568" type="curve" smooth="yes"/>
			<point x="64" y="650"/>
			<point x="114" y="708"/>
			<point x="180" y="708" type="curve" smooth="yes"/>
			<point x="218" y="708"/>
			<point x="236" y="698"/>
			<point x="260" y="678" type="curve"/>
			<point x="276" y="698" type="line"/>
			<point x="254" y="716"/>
			<point x="226" y="734"/>
			<point x="182" y="734" type="curve" smooth="yes"/>
			<point x="104" y="734"/>
			<point x="34" y="674"/>
			<point x="34" y="568" type="curve" smooth="yes"/>
			<point x="34" y="462"/>
			<point x="96" y="402"/>
		</contour>
	</outline>
</glyph>
<glyph name="f.sups" format="2">
	<unicode hex="1DA0"/>
	<advance width="176"/>
	<outline>
		<contour>
			<point x="68" y="410" type="line"/>
			<point x="96" y="410" type="line"/>
			<point x="96" y="796" type="line" smooth="yes"/>
			<point x="96" y="836"/>
			<point x="112" y="866"/>
			<point x="146" y="866" type="curve" smooth="yes"/>
			<point x="164" y="866"/>
			<point x="176" y="862"/>
			<point x="186" y="858" type="curve"/>
			<point x="194" y="882" type="line"/>
			<point x="176" y="890"/>
			<point x="164" y="892"/>
			<point x="146" y="892" type="curve" smooth="yes"/>
			<point x="96" y="892"/>
			<point x="68" y="854"/>
			<point x="68" y="792" type="curve" smooth="yes"/>
		</contour>
		<contour>
			<point x="22" y="702" type="line"/>
			<point x="172" y="702" type="line"/>
			<point x="172" y="726" type="line"/>
			<point x="68" y="726" type="line"/>
			<point x="22" y="724" type="line"/>
		</contour>
	</outline>
</glyph>
<glyph name="iotaadscript" format="2">
	<unicode hex="1FBE"/>
	<advance width="230"/>
	<outline>
		<contour>
			<point x="150" y="-8" type="curve" smooth="yes"/>
			<point x="165" y="-8"/>
			<point x="177" y="-4"/>
			<point x="186" y="0" type="curve"/>
			<point x="180" y="26" type="line"/>
			<point x="168" y="22"/>
			<point x="161" y="20"/>
			<point x="152" y="20" type="curve" smooth="yes"/>
			<point x="136" y="20"/>
			<point x="124" y="32"/>
			<point x="124" y="56" type="curve" smooth="yes"/>
			<point x="124" y="174"/>
			<point x="124" y="278"/>
			<point x="126" y="398" type="curve"/>
			<point x="96" y="398" type="line"/>
			<point x="96" y="62" type="line" smooth="yes"/>
			<point x="96" y="12"/>
			<point x="116" y="-8"/>
		</contour>
	</outline>
</glyph>
<glyph name="hyphen" format="2">
	<unicode hex="2011"/>
	<unicode hex="002D"/>
	<unicode hex="00AD"/>
	<unicode hex="2010"/>
	<advance width="294"/>
	<outline>
		<contour>
			<point x="40" y="234" type="line"/>
			<point x="256" y="234" type="line"/>
			<point x="256" y="264" type="line"/>
			<point x="40" y="264" type="line"/>
		</contour>
	</outline>
</glyph>
<glyph name="figuredash" format="2">
	<unicode hex="2012"/>
	<advance width="472"/>
	<outline>
		<contour>
			<point x="40" y="236" type="line"/>
			<point x="434" y="236" type="line"/>
			<point x="434" y="264" type="line"/>
			<point x="40" y="264" type="line"/>
		</contour>
	</outline>
</glyph>
<glyph name="interrobang" format="2">
	<unicode hex="203D"/>
	<advance width="394"/>
	<outline>
		<contour>
			<point x="170" y="172" type="line"/>
			<point x="190" y="172" type="line"/>
			<point x="190" y="358"/>
			<point x="342" y="390"/>
			<point x="342" y="532" type="curve" smooth="yes"/>
			<point x="342" y="614"/>
			<point x="288" y="682"/>
			<point x="192" y="682" type="curve" smooth="yes"/>
			<point x="124" y="682"/>
			<point x="74" y="648"/>
			<point x="36" y="606" type="curve"/>
			<point x="56" y="588" type="line"/>
			<point x="90" y="630"/>
			<point x="140" y="654"/>
			<point x="190" y="654" type="curve" smooth="yes"/>
			<point x="274" y="654"/>
			<point x="310" y="594"/>
			<point x="310" y="530" type="curve" smooth="yes"/>
			<point x="310" y="424"/>
			<point x="214" y="376"/>
			<point x="184" y="268" type="curve"/>
			<point x="192" y="268" type="line"/>
			<point x="198" y="488" type="line"/>
			<point x="198" y="550" type="line"/>
			<point x="166" y="550" type="line"/>
			<point x="166" y="488" type="line"/>
		</contour>
		<contour>
			<point x="182" y="-12" type="curve" smooth="yes"/>
			<point x="200" y="-12"/>
			<point x="218" y="2"/>
			<point x="218" y="26" type="curve" smooth="yes"/>
			<point x="218" y="52"/>
			<point x="200" y="66"/>
			<point x="182" y="66" type="curve" smooth="yes"/>
			<point x="164" y="66"/>
			<point x="146" y="52"/>
			<point x="146" y="26" type="curve" smooth="yes"/>
			<point x="146" y="2"/>
			<point x="164" y="-12"/>
		</contour>
	</outline>
</glyph>
<glyph name="plus.subs" format="2">
	<unicode hex="208A"/>
	<advance width="360"/>
	<outline>
		<contour>
			<point x="164" y="-140" type="line"/>
			<point x="194" y="-140" type="line"/>
			<point x="194" y="4" type="line"/>
			<point x="326" y="4" type="line"/>
			<point x="326" y="32" type="line"/>
			<point x="194" y="32" type="line"/>
			<point x="194" y="176" type="line"/>
			<point x="164" y="176" type="line"/>
			<point x="164" y="32" type="line"/>
			<point x="34" y="32" type="line"/>
			<point x="34" y="4" type="line"/>
			<point x="164" y="4" type="line"/>
		</contour>
	</outline>
</glyph>
<glyph name="tugrik" format="2">
	<unicode hex="20AE"/>
	<advance width="472"/>
	<outline>
		<contour>
			<point x="220" y="0" type="line"/>
			<point x="250" y="0" type="line"/>
			<point x="250" y="612" type="line"/>
			<point x="434" y="612" type="line"/>
			<point x="434" y="640" type="line"/>
			<point x="34" y="640" type="line"/>
			<point x="34" y="612" type="line"/>
			<point x="220" y="612" type="line"/>
		</contour>
		<contour>
			<point x="82" y="172" type="line"/>
			<point x="224" y="248" type="line"/>
			<point x="248" y="256" type="line"/>
			<point x="400" y="336" type="line"/>
			<point x="386" y="360" type="line"/>
			<point x="248" y="288" type="line"/>
			<point x="224" y="280" type="line"/>
			<point x="68" y="196" type="line"/>
		</contour>
		<contour>
			<point x="82" y="288" type="line"/>
			<point x="224" y="364" type="line"/>
			<point x="248" y="372" type="line"/>
			<point x="400" y="452" type="line"/>
			<point x="386" y="476" type="line"/>
			<point x="248" y="404" type="line"/>
			<point x="224" y="396" type="line"/>
			<point x="68" y="312" type="line"/>
		</contour>
	</outline>
</glyph>
<glyph name="guarani" format="2">
	<unicode hex="20B2"/>
	<advance width="472"/>
	<outline>
		<contour>
			<point x="272" y="-12" type="curve" smooth="yes"/>
			<point x="336" y="-12"/>
			<point x="392" y="12"/>
			<point x="432" y="60" type="curve"/>
			<point x="432" y="306" type="line"/>
			<point x="274" y="306" type="line"/>
			<point x="274" y="278" type="line"/>
			<point x="402" y="278" type="line"/>
			<point x="402" y="72" type="line"/>
			<point x="379" y="42"/>
			<point x="328" y="16"/>
			<point x="274" y="16" type="curve" smooth="yes"/>
			<point x="156" y="16"/>
			<point x="88" y="138"/>
			<point x="88" y="322" type="curve" smooth="yes"/>
			<point x="88" y="506"/>
			<point x="160" y="624"/>
			<point x="288" y="624" type="curve" smooth="yes"/>
			<point x="336" y="624"/>
			<point x="374" y="596"/>
			<point x="404" y="554" type="curve"/>
			<point x="426" y="574" type="line"/>
			<point x="398" y="614"/>
			<point x="348" y="652"/>
			<point x="288" y="652" type="curve" smooth="yes"/>
			<point x="144" y="652"/>
			<point x="54" y="524"/>
			<point x="54" y="322" type="curve" smooth="yes"/>
			<point x="54" y="120"/>
			<point x="140" y="-12"/>
		</contour>
		<contour>
			<point x="260" y="-110" type="line"/>
			<point x="290" y="-110" type="line"/>
			<point x="290" y="-8" type="line"/>
			<point x="260" y="-8" type="line"/>
		</contour>
		<contour>
			<point x="260" y="634" type="line"/>
			<point x="290" y="634" type="line"/>
			<point x="290" y="750" type="line"/>
			<point x="260" y="750" type="line"/>
		</contour>
	</outline>
</glyph>
<glyph name="litre" format="2">
	<unicode hex="2113"/>
	<advance width="360"/>
	<outline>
		<contour>
			<point x="234" y="-12" type="curve" smooth="yes"/>
			<point x="282" y="-12"/>
			<point x="318" y="16"/>
			<point x="342" y="40" type="curve"/>
			<point x="326" y="60" type="line"/>
			<point x="302" y="36"/>
			<point x="278" y="16"/>
			<point x="236" y="16" type="curve" smooth="yes"/>
			<point x="182" y="16"/>
			<point x="136" y="58"/>
			<point x="136" y="172" type="curve" smooth="yes"/>
			<point x="136" y="548" type="line" smooth="yes"/>
			<point x="136" y="654"/>
			<point x="174" y="706"/>
			<point x="218" y="706" type="curve" smooth="yes"/>
			<point x="260" y="706"/>
			<point x="292" y="676"/>
			<point x="292" y="590" type="curve" smooth="yes"/>
			<point x="292" y="430"/>
			<point x="164" y="254"/>
			<point x="30" y="158" type="curve"/>
			<point x="46" y="136" type="line"/>
			<point x="180" y="232"/>
			<point x="324" y="424"/>
			<point x="324" y="592" type="curve" smooth="yes"/>
			<point x="324" y="686"/>
			<point x="278" y="734"/>
			<point x="218" y="734" type="curve" smooth="yes"/>
			<point x="156" y="734"/>
			<point x="106" y="682"/>
			<point x="106" y="538" type="curve" smooth="yes"/>
			<point x="106" y="162" type="line" smooth="yes"/>
			<point x="106" y="48"/>
			<point x="164" y="-12"/>
		</contour>
	</outline>
</glyph>
<glyph name="arrowup" format="2">
	<unicode hex="2191"/>
	<advance width="620"/>
	<outline>
		<contour>
			<point x="296" y="-24" type="line"/>
			<point x="324" y="-24" type="line"/>
			<point x="324" y="480" type="line"/>
			<point x="556" y="238" type="line"/>
			<point x="576" y="258" type="line"/>
			<point x="312" y="526" type="line"/>
			<point x="308" y="526" type="line"/>
			<point x="44" y="258" type="line"/>
			<point x="64" y="238" type="line"/>
			<point x="296" y="480" type="line"/>
		</contour>
	</outline>
</glyph>
<glyph name="arrowdown" format="2">
	<unicode hex="2193"/>
	<advance width="620"/>
	<outline>
		<contour>
			<point x="308" y="-24" type="line"/>
			<point x="312" y="-24" type="line"/>
			<point x="576" y="244" type="line"/>
			<point x="556" y="264" type="line"/>
			<point x="324" y="22" type="line"/>
			<point x="324" y="526" type="line"/>
			<point x="296" y="526" type="line"/>
			<point x="296" y="22" type="line"/>
			<point x="64" y="264" type="line"/>
			<point x="44" y="244" type="line"/>
		</contour>
	</outline>
</glyph>
<glyph name="arrowdownright" format="2">
	<unicode hex="2198"/>
	<advance width="620"/>
	<outline>
		<contour>
			<point x="506" y="56" type="line"/>
			<point x="509" y="59" type="line"/>
			<point x="506" y="435" type="line"/>
			<point x="478" y="435" type="line"/>
			<point x="485" y="100" type="line"/>
			<point x="128" y="456" type="line"/>
			<point x="109" y="437" type="line"/>
			<point x="465" y="80" type="line"/>
			<point x="130" y="87" type="line"/>
			<point x="130" y="59" type="line"/>
		</contour>
	</outline>
</glyph>
<glyph name="arrowdbldown" format="2">
	<unicode hex="21D3"/>
	<advance width="620"/>
	<outline>
		<contour>
			<point x="308" y="-24" type="line"/>
			<point x="312" y="-24" type="line"/>
			<point x="576" y="244" type="line"/>
			<point x="556" y="264" type="line"/>
			<point x="312" y="10" type="line"/>
			<point x="308" y="10" type="line"/>
			<point x="64" y="264" type="line"/>
			<point x="44" y="244" type="line"/>
		</contour>
		<contour>
			<point x="196" y="92" type="line"/>
			<point x="224" y="92" type="line"/>
			<point x="224" y="526" type="line"/>
			<point x="196" y="526" type="line"/>
		</contour>
		<contour>
			<point x="396" y="92" type="line"/>
			<point x="424" y="92" type="line"/>
			<point x="424" y="526" type="line"/>
			<point x="396" y="526" type="line"/>
		</contour>
	</outline>
</glyph>
<glyph name="delete" format="2">
	<unicode hex="232B"/>
	<advance width="1000"/>
	<outline>
		<contour>
			<point x="300" y="0" type="line"/>
			<point x="900" y="0" type="line"/>
			<point x="900" y="650" type="line"/>
			<point x="300" y="650" type="line"/>
			<point x="20" y="332" type="line"/>
			<point x="20" y="328" type="line"/>
		</contour>
		<contour>
			<point x="320" y="26" type="line"/>
			<point x="57" y="330" type="line"/>
			<point x="320" y="624" type="line"/>
			<point x="870" y="624" type="line"/>
			<point x="870" y="26" type="line"/>
		</contour>
		<contour>
			<point x="412" y="138" type="line"/>
			<point x="576" y="310" type="line"/>
			<point x="740" y="138" type="line"/>
			<point x="760" y="160" type="line"/>
			<point x="596" y="330" type="line"/>
			<point x="760" y="500" type="line"/>
			<point x="740" y="522" type="line"/>
			<point x="576" y="350" type="line"/>
			<point x="412" y="522" type="line"/>
			<point x="392" y="500" type="line"/>
			<point x="556" y="330" type="line"/>
			<point x="392" y="160" type="line"/>
		</contour>
	</outline>
</glyph>
<glyph name="V.sups" format="2">
	<unicode hex="2C7D"/>
	<advance width="320"/>
	<outline>
		<contour>
			<point x="146" y="410" type="line"/>
			<point x="177" y="410" type="line"/>
			<point x="320" y="842" type="line"/>
			<point x="290" y="842" type="line"/>
			<point x="209" y="590" type="line" smooth="yes"/>
			<point x="192" y="537"/>
			<point x="182" y="497"/>
			<point x="164" y="445" type="curve"/>
			<point x="161" y="445" type="line"/>
			<point x="143" y="497"/>
			<point x="131" y="537"/>
			<point x="114" y="590" type="curve" smooth="yes"/>
			<point x="32" y="842" type="line"/>
			<point x="1" y="842" type="line"/>
		</contour>
	</outline>
</glyph>
<glyph name="brackhalfbotleft" format="2">
	<unicode hex="2E24"/>
	<advance width="270"/>
	<outline>
		<contour>
			<point x="100" y="-152" type="line"/>
			<point x="252" y="-152" type="line"/>
			<point x="252" y="-130" type="line"/>
			<point x="124" y="-130" type="line"/>
			<point x="124" y="278" type="line"/>
			<point x="100" y="278" type="line"/>
		</contour>
	</outline>
</glyph>
<glyph name="twoemdash" format="2">
	<unicode hex="2E3A"/>
	<advance width="1500"/>
	<outline>
		<contour>
			<point x="40" y="236" type="line"/>
			<point x="1460" y="236" type="line"/>
			<point x="1460" y="264" type="line"/>
			<point x="40" y="264" type="line"/>
		</contour>
	</outline>
</glyph>
<glyph name="I.a" format="2">
	<unicode hex="A7AE"/>
	<advance width="300"/>
	<outline>
		<contour>
			<point x="42" y="0" type="line"/>
			<point x="258" y="0" type="line"/>
			<point x="258" y="28" type="line"/>
			<point x="166" y="28" type="line"/>
			<point x="166" y="632" type="line"/>
			<point x="258" y="632" type="line"/>
			<point x="258" y="660" type="line"/>
			<point x="42" y="660" type="line"/>
			<point x="42" y="632" type="line"/>
			<point x="134" y="632" type="line"/>
			<point x="134" y="28" type="line"/>
			<point x="42" y="28" type="line"/>
		</contour>
	</outline>
	<anchor name="aboveUC" x="150" y="682"/>
	<anchor name="belowLC" x="150" y="-22"/>
	<anchor name="ogonekUC" x="144" y="0"/>
</glyph>
<glyph name="publicdomain" format="2">
	<unicode hex="1F16E"/>
	<advance width="740"/>
	<outline>
		<contour>
			<point x="626" y="154" type="line"/>
			<point x="652" y="170" type="line"/>
			<point x="114" y="490" type="line"/>
			<point x="88" y="474" type="line"/>
		</contour>
		<component base="copyright"/>
	</outline>
</glyph>
<glyph name="B.sc" format="2">
	<advance width="510"/>
	<outline>
		<contour>
			<point x="100" y="0" type="line"/>
			<point x="256" y="0" type="line" smooth="yes"/>
			<point x="382" y="0"/>
			<point x="462" y="50"/>
			<point x="462" y="148" type="curve" smooth="yes"/>
			<point x="462" y="220"/>
			<point x="409" y="260"/>
			<point x="338" y="272" type="curve"/>
			<point x="338" y="276" type="line"/>
			<point x="396" y="292"/>
			<point x="428" y="332"/>
			<point x="428" y="384" type="curve" smooth="yes"/>
			<point x="428" y="470"/>
			<point x="359" y="510"/>
			<point x="246" y="510" type="curve" smooth="yes"/>
			<point x="100" y="510" type="line"/>
		</contour>
		<contour>
			<point x="132" y="284" type="line"/>
			<point x="132" y="484" type="line"/>
			<point x="234" y="484" type="line" smooth="yes"/>
			<point x="340" y="484"/>
			<point x="396" y="454"/>
			<point x="396" y="386" type="curve" smooth="yes"/>
			<point x="396" y="320"/>
			<point x="348" y="284"/>
			<point x="230" y="284" type="curve" smooth="yes"/>
		</contour>
		<contour>
			<point x="132" y="26" type="line"/>
			<point x="132" y="258" type="line"/>
			<point x="246" y="258" type="line" smooth="yes"/>
			<point x="363" y="258"/>
			<point x="430" y="224"/>
			<point x="430" y="146" type="curve" smooth="yes"/>
			<point x="430" y="55"/>
			<point x="353" y="26"/>
			<point x="246" y="26" type="curve" smooth="yes"/>
		</contour>
	</outline>
	<anchor name="aboveUC" x="265" y="562"/>
	<anchor name="belowLC" x="276" y="-22"/>
</glyph>
<glyph name="C.sc" format="2">
	<advance width="490"/>
	<outline>
		<contour>
			<point x="287" y="-12" type="curve" smooth="yes"/>
			<point x="359" y="-12"/>
			<point x="406" y="12"/>
			<point x="450" y="62" type="curve"/>
			<point x="430" y="80" type="line"/>
			<point x="391" y="37"/>
			<point x="347" y="18"/>
			<point x="288" y="18" type="curve" smooth="yes"/>
			<point x="165" y="18"/>
			<point x="90" y="110"/>
			<point x="90" y="256" type="curve" smooth="yes"/>
			<point x="90" y="401"/>
			<point x="165" y="492"/>
			<point x="292" y="492" type="curve" smooth="yes"/>
			<point x="344" y="492"/>
			<point x="384" y="470"/>
			<point x="414" y="440" type="curve"/>
			<point x="434" y="460" type="line"/>
			<point x="404" y="492"/>
			<point x="356" y="522"/>
			<point x="292" y="522" type="curve" smooth="yes"/>
			<point x="150" y="522"/>
			<point x="56" y="418"/>
			<point x="56" y="256" type="curve" smooth="yes"/>
			<point x="56" y="92"/>
			<point x="149" y="-12"/>
		</contour>
	</outline>
	<anchor name="aboverightUC" x="440" y="562"/>
	<anchor name="aboveUC" x="280" y="562"/>
	<anchor name="baseLC" x="280" y="0"/>
	<anchor name="belowLC" x="280" y="-22"/>
</glyph>
<glyph name="Chedescender.sc" format="2">
	<advance width="512"/>
	<outline>
		<contour>
			<point x="446" y="-172" type="line"/>
			<point x="472" y="-172" type="line"/>
			<point x="476" y="12" type="line"/>
			<point x="476" y="28" type="line"/>
			<point x="402" y="28" type="line"/>
			<point x="402" y="0" type="line"/>
			<point x="446" y="0" type="line"/>
		</contour>
		<component base="Che.sc"/>
	</outline>
</glyph>
<glyph name="Dinsular.sc" format="2">
	<advance width="568"/>
	<outline>
		<contour>
			<point x="284" y="-12" type="curve" smooth="yes"/>
			<point x="417" y="-12"/>
			<point x="512" y="93"/>
			<point x="512" y="253" type="curve" smooth="yes"/>
			<point x="512" y="418"/>
			<point x="411" y="510"/>
			<point x="264" y="510" type="curve" smooth="yes"/>
			<point x="30" y="510" type="line"/>
			<point x="30" y="484" type="line"/>
			<point x="186" y="484" type="line"/>
			<point x="186" y="481" type="line"/>
			<point x="112" y="444"/>
			<point x="56" y="361"/>
			<point x="56" y="238" type="curve" smooth="yes"/>
			<point x="56" y="82"/>
			<point x="151" y="-12"/>
		</contour>
		<contour>
			<point x="284" y="18" type="curve" smooth="yes"/>
			<point x="167" y="18"/>
			<point x="90" y="100"/>
			<point x="90" y="238" type="curve" smooth="yes"/>
			<point x="90" y="366"/>
			<point x="163" y="478"/>
			<point x="273" y="478" type="curve" smooth="yes"/>
			<point x="394" y="478"/>
			<point x="478" y="396"/>
			<point x="478" y="253" type="curve" smooth="yes"/>
			<point x="478" y="111"/>
			<point x="400" y="18"/>
		</contour>
	</outline>
	<anchor name="aboveUC" x="290" y="562"/>
	<anchor name="belowLC" x="280" y="-22"/>
</glyph>
<glyph name="El.sc" format="2">
	<advance width="532"/>
	<outline>
		<contour>
			<point x="42" y="-12" type="curve" smooth="yes"/>
			<point x="92" y="-12"/>
			<point x="122" y="20"/>
			<point x="152" y="165" type="curve" smooth="yes"/>
			<point x="174" y="270"/>
			<point x="192" y="376"/>
			<point x="214" y="483" type="curve"/>
			<point x="400" y="483" type="line"/>
			<point x="400" y="0" type="line"/>
			<point x="432" y="0" type="line"/>
			<point x="432" y="510" type="line"/>
			<point x="188" y="510" type="line"/>
			<point x="164" y="388"/>
			<point x="144" y="282"/>
			<point x="121" y="168" type="curve" smooth="yes"/>
			<point x="94" y="40"/>
			<point x="70" y="20"/>
			<point x="40" y="20" type="curve" smooth="yes"/>
			<point x="32" y="20"/>
			<point x="27" y="21"/>
			<point x="18" y="24" type="curve"/>
			<point x="8" y="-6" type="line"/>
			<point x="18" y="-10"/>
			<point x="34" y="-12"/>
		</contour>
	</outline>
</glyph>
<glyph name="Eng.as" format="2">
	<advance width="568"/>
	<outline>
		<contour>
			<point x="383" y="-138" type="curve" smooth="yes"/>
			<point x="440" y="-138"/>
			<point x="468" y="-100"/>
			<point x="468" y="-12" type="curve" smooth="yes"/>
			<point x="468" y="510" type="line"/>
			<point x="438" y="510" type="line"/>
			<point x="438" y="186" type="line" smooth="yes"/>
			<point x="438" y="138"/>
			<point x="440" y="92"/>
			<point x="442" y="42" type="curve"/>
			<point x="438" y="42" type="line"/>
			<point x="416" y="80"/>
			<point x="396" y="114"/>
			<point x="376" y="144" type="curve" smooth="yes"/>
			<point x="134" y="510" type="line"/>
			<point x="100" y="510" type="line"/>
			<point x="100" y="0" type="line"/>
			<point x="130" y="0" type="line"/>
			<point x="130" y="324" type="line" smooth="yes"/>
			<point x="130" y="372"/>
			<point x="128" y="418"/>
			<point x="126" y="468" type="curve"/>
			<point x="130" y="468" type="line"/>
			<point x="152" y="430"/>
			<point x="172" y="396"/>
			<point x="192" y="366" type="curve" smooth="yes"/>
			<point x="434" y="0" type="line"/>
			<point x="438" y="0" type="line"/>
			<point x="438" y="-68"/>
			<point x="430" y="-109"/>
			<point x="383" y="-109" type="curve" smooth="yes"/>
			<point x="367" y="-109"/>
			<point x="350" y="-104"/>
			<point x="340" y="-101" type="curve"/>
			<point x="333" y="-128" type="line"/>
			<point x="345" y="-133"/>
			<point x="365" y="-138"/>
		</contour>
	</outline>
	<anchor name="aboveUC" x="290" y="562"/>
	<anchor name="belowLC" x="280" y="-142"/>
</glyph>
<glyph name="Eng.sc" format="2">
	<advance width="540"/>
	<outline>
		<contour>
			<point x="355" y="-12" type="curve" smooth="yes"/>
			<point x="424" y="-12"/>
			<point x="486" y="55"/>
			<point x="486" y="260" type="curve" smooth="yes"/>
			<point x="486" y="449"/>
			<point x="404" y="522"/>
			<point x="294" y="522" type="curve" smooth="yes"/>
			<point x="233" y="522"/>
			<point x="171" y="480"/>
			<point x="132" y="440" type="curve"/>
			<point x="132" y="510" type="line"/>
			<point x="100" y="510" type="line"/>
			<point x="100" y="0" type="line"/>
			<point x="132" y="0" type="line"/>
			<point x="132" y="406" type="line"/>
			<point x="169" y="450"/>
			<point x="239" y="492"/>
			<point x="290" y="492" type="curve" smooth="yes"/>
			<point x="386" y="492"/>
			<point x="452" y="437"/>
			<point x="452" y="260" type="curve" smooth="yes"/>
			<point x="452" y="78"/>
			<point x="406" y="18"/>
			<point x="353" y="18" type="curve" smooth="yes"/>
			<point x="333" y="18"/>
			<point x="319" y="21"/>
			<point x="306" y="27" type="curve"/>
			<point x="295" y="-3" type="line"/>
			<point x="311" y="-9"/>
			<point x="335" y="-12"/>
		</contour>
	</outline>
	<anchor name="aboveUC" x="300" y="562"/>
	<anchor name="belowLC" x="280" y="-22"/>
</glyph>
<glyph name="Eogonek.sc" format="2">
	<advance width="456"/>
	<outline>
		<contour>
			<point x="362" y="-214" type="curve" smooth="yes"/>
			<point x="392" y="-214"/>
			<point x="418" y="-200"/>
			<point x="434" y="-186" type="curve"/>
			<point x="420" y="-166" type="line"/>
			<point x="402" y="-180"/>
			<point x="386" y="-186"/>
			<point x="364" y="-186" type="curve" smooth="yes"/>
			<point x="334" y="-186"/>
			<point x="304" y="-168"/>
			<point x="304" y="-126" type="curve" smooth="yes"/>
			<point x="304" y="-64"/>
			<point x="372" y="0"/>
			<point x="408" y="0" type="curve" smooth="yes"/>
			<point x="410" y="0" type="line"/>
			<point x="410" y="28" type="line"/>
			<point x="132" y="28" type="line"/>
			<point x="132" y="258" type="line"/>
			<point x="358" y="258" type="line"/>
			<point x="358" y="286" type="line"/>
			<point x="132" y="286" type="line"/>
			<point x="132" y="482" type="line"/>
			<point x="400" y="482" type="line"/>
			<point x="400" y="510" type="line"/>
			<point x="100" y="510" type="line"/>
			<point x="100" y="0" type="line"/>
			<point x="354" y="0" type="line"/>
			<point x="310" y="-28"/>
			<point x="274" y="-74"/>
			<point x="274" y="-128" type="curve" smooth="yes"/>
			<point x="274" y="-188"/>
			<point x="314" y="-214"/>
		</contour>
	</outline>
	<anchor name="aboveUC" x="260" y="562"/>
	<anchor name="belowLC" x="260" y="-222"/>
</glyph>
<glyph name="Ezh.sc" format="2">
	<advance width="474"/>
	<outline>
		<contour>
			<point x="242" y="-12" type="curve" smooth="yes"/>
			<point x="344" y="-12"/>
			<point x="428" y="48"/>
			<point x="428" y="140" type="curve" smooth="yes"/>
			<point x="428" y="240"/>
			<point x="346" y="308"/>
			<point x="222" y="284" type="curve"/>
			<point x="418" y="492" type="line"/>
			<point x="418" y="510" type="line"/>
			<point x="80" y="510" type="line"/>
			<point x="80" y="482" type="line"/>
			<point x="374" y="482" type="line"/>
			<point x="172" y="268" type="line"/>
			<point x="192" y="242" type="line"/>
			<point x="212" y="254"/>
			<point x="230" y="262"/>
			<point x="260" y="262" type="curve" smooth="yes"/>
			<point x="350" y="262"/>
			<point x="396" y="216"/>
			<point x="396" y="140" type="curve" smooth="yes"/>
			<point x="396" y="62"/>
			<point x="324" y="18"/>
			<point x="242" y="18" type="curve" smooth="yes"/>
			<point x="170" y="18"/>
			<point x="120" y="32"/>
			<point x="66" y="84" type="curve"/>
			<point x="47" y="64" type="line"/>
			<point x="96" y="14"/>
			<point x="158" y="-12"/>
		</contour>
	</outline>
	<anchor name="aboveUC" x="260" y="562"/>
	<anchor name="belowLC" x="240" y="-22"/>
</glyph>
<glyph name="IJ.sc" format="2">
	<advance width="464"/>
	<outline>
		<contour>
			<point x="100" y="0" type="line"/>
			<point x="132" y="0" type="line"/>
			<point x="132" y="510" type="line"/>
			<point x="100" y="510" type="line"/>
		</contour>
		<contour>
			<point x="264" y="-138" type="curve" smooth="yes"/>
			<point x="330" y="-138"/>
			<point x="364" y="-98"/>
			<point x="364" y="-6" type="curve" smooth="yes"/>
			<point x="364" y="510" type="line"/>
			<point x="332" y="510" type="line"/>
			<point x="332" y="2" type="line" smooth="yes"/>
			<point x="332" y="-60"/>
			<point x="322" y="-106"/>
			<point x="266" y="-106" type="curve" smooth="yes"/>
			<point x="246" y="-106"/>
			<point x="226" y="-100"/>
			<point x="214" y="-96" type="curve"/>
			<point x="206" y="-126" type="line"/>
			<point x="220" y="-132"/>
			<point x="244" y="-138"/>
		</contour>
	</outline>
</glyph>
<glyph name="Ieukran.sc" format="2">
	<advance width="489"/>
	<outline>
		<contour>
			<point x="287" y="-12" type="curve" smooth="yes"/>
			<point x="359" y="-12"/>
			<point x="406" y="14"/>
			<point x="450" y="62" type="curve"/>
			<point x="430" y="82" type="line"/>
			<point x="390" y="38"/>
			<point x="347" y="18"/>
			<point x="288" y="18" type="curve" smooth="yes"/>
			<point x="165" y="18"/>
			<point x="90" y="108"/>
			<point x="90" y="258" type="curve" smooth="yes"/>
			<point x="90" y="407"/>
			<point x="165" y="492"/>
			<point x="288" y="492" type="curve" smooth="yes"/>
			<point x="344" y="492"/>
			<point x="384" y="470"/>
			<point x="414" y="438" type="curve"/>
			<point x="434" y="460" type="line"/>
			<point x="404" y="492"/>
			<point x="356" y="522"/>
			<point x="290" y="522" type="curve" smooth="yes"/>
			<point x="150" y="522"/>
			<point x="56" y="424"/>
			<point x="56" y="258" type="curve" smooth="yes"/>
			<point x="56" y="90"/>
			<point x="149" y="-12"/>
		</contour>
		<contour>
			<point x="64" y="258" type="line"/>
			<point x="348" y="258" type="line"/>
			<point x="348" y="286" type="line"/>
			<point x="64" y="286" type="line"/>
		</contour>
	</outline>
</glyph>
<glyph name="Iotalatin.a" format="2">
	<advance width="300"/>
	<outline>
		<contour>
			<point x="42" y="632" type="line"/>
			<point x="258" y="632" type="line"/>
			<point x="258" y="660" type="line"/>
			<point x="42" y="660" type="line"/>
		</contour>
		<component base="Iotalatin" xOffset="34"/>
	</outline>
	<anchor name="aboveUC" x="150" y="682"/>
	<anchor name="belowLC" x="174" y="-22"/>
</glyph>
<glyph name="Iotalatin.as" format="2">
	<advance width="300"/>
	<outline>
		<contour>
			<point x="42" y="482" type="line"/>
			<point x="258" y="482" type="line"/>
			<point x="258" y="510" type="line"/>
			<point x="42" y="510" type="line"/>
		</contour>
		<component base="Iotalatin.sc" xOffset="34"/>
	</outline>
	<anchor name="aboveUC" x="150" y="562"/>
	<anchor name="belowLC" x="170" y="-22"/>
</glyph>
<glyph name="Jstroke.sc" format="2">
	<advance width="432"/>
	<outline>
		<contour>
			<point x="160" y="258" type="line"/>
			<point x="408" y="258" type="line"/>
			<point x="408" y="286" type="line"/>
			<point x="284" y="286" type="line"/>
			<point x="160" y="282" type="line"/>
		</contour>
		<component base="J.sc"/>
	</outline>
	<anchor name="aboveUC" x="292" y="562"/>
	<anchor name="belowLC" x="196" y="-22"/>
</glyph>
<glyph name="Kahook.as" format="2">
	<advance width="490"/>
	<outline>
		<contour>
			<point x="284" y="-138" type="curve" smooth="yes"/>
			<point x="396" y="-138"/>
			<point x="462" y="-54"/>
			<point x="462" y="82" type="curve" smooth="yes"/>
			<point x="462" y="214"/>
			<point x="364" y="284"/>
			<point x="250" y="284" type="curve"/>
			<point x="278" y="272" type="line"/>
			<point x="442" y="510" type="line"/>
			<point x="404" y="510" type="line"/>
			<point x="252" y="286" type="line"/>
			<point x="132" y="286" type="line"/>
			<point x="132" y="510" type="line"/>
			<point x="100" y="510" type="line"/>
			<point x="100" y="0" type="line"/>
			<point x="132" y="0" type="line"/>
			<point x="132" y="258" type="line"/>
			<point x="248" y="258" type="line" smooth="yes"/>
			<point x="346" y="258"/>
			<point x="430" y="196"/>
			<point x="430" y="82" type="curve" smooth="yes"/>
			<point x="430" y="-32"/>
			<point x="378" y="-110"/>
			<point x="286" y="-110" type="curve" smooth="yes"/>
			<point x="270" y="-110"/>
			<point x="260" y="-108"/>
			<point x="244" y="-102" type="curve"/>
			<point x="236" y="-126" type="line"/>
			<point x="250" y="-134"/>
			<point x="268" y="-138"/>
		</contour>
	</outline>
</glyph>
<glyph name="Lbar.sc" format="2">
	<advance width="430"/>
	<outline>
		<contour>
			<point x="22" y="258" type="line"/>
			<point x="304" y="258" type="line"/>
			<point x="304" y="286" type="line"/>
			<point x="122" y="286" type="line"/>
			<point x="22" y="282" type="line"/>
		</contour>
		<component base="L.sc" xOffset="20"/>
	</outline>
	<anchor name="aboveUC" x="140" y="562"/>
	<anchor name="belowLC" x="280" y="-22"/>
</glyph>
<glyph name="Lje.a" format="2">
	<advance width="764"/>
	<outline>
		<contour>
			<point x="6" y="0" type="line"/>
			<point x="38" y="0" type="line"/>
			<point x="166" y="396" type="line" smooth="yes"/>
			<point x="192" y="478"/>
			<point x="210" y="538"/>
			<point x="238" y="619" type="curve"/>
			<point x="242" y="619" type="line"/>
			<point x="270" y="538"/>
			<point x="288" y="478"/>
			<point x="314" y="396" type="curve" smooth="yes"/>
			<point x="442" y="0" type="line"/>
			<point x="486" y="0" type="line" smooth="yes"/>
			<point x="634" y="0"/>
			<point x="714" y="66"/>
			<point x="714" y="192" type="curve" smooth="yes"/>
			<point x="714" y="314"/>
			<point x="624" y="366"/>
			<point x="482" y="366" type="curve" smooth="yes"/>
			<point x="354" y="366" type="line"/>
			<point x="256" y="660" type="line"/>
			<point x="224" y="660" type="line"/>
		</contour>
		<contour>
			<point x="466" y="28" type="line"/>
			<point x="362" y="338" type="line"/>
			<point x="470" y="338" type="line" smooth="yes"/>
			<point x="610" y="338"/>
			<point x="682" y="294"/>
			<point x="682" y="190" type="curve" smooth="yes"/>
			<point x="682" y="78"/>
			<point x="612" y="28"/>
			<point x="474" y="28" type="curve" smooth="yes"/>
		</contour>
	</outline>
</glyph>
<glyph name="Nlong.sc" format="2">
	<advance width="576"/>
	<outline>
		<contour>
			<point x="446" y="-126" type="line"/>
			<point x="478" y="-126" type="line"/>
			<point x="478" y="290" type="line" smooth="yes"/>
			<point x="478" y="457"/>
			<point x="399" y="522"/>
			<point x="294" y="522" type="curve" smooth="yes"/>
			<point x="233" y="522"/>
			<point x="171" y="480"/>
			<point x="132" y="440" type="curve"/>
			<point x="132" y="510" type="line"/>
			<point x="100" y="510" type="line"/>
			<point x="100" y="0" type="line"/>
			<point x="132" y="0" type="line"/>
			<point x="132" y="406" type="line"/>
			<point x="169" y="450"/>
			<point x="239" y="492"/>
			<point x="290" y="492" type="curve" smooth="yes"/>
			<point x="382" y="492"/>
			<point x="446" y="442"/>
			<point x="446" y="280" type="curve" smooth="yes"/>
		</contour>
	</outline>
	<anchor name="aboveUC" x="300" y="562"/>
	<anchor name="belowLC" x="280" y="-142"/>
</glyph>
<glyph name="S.sc" format="2">
	<advance width="450"/>
	<outline>
		<contour>
			<point x="235" y="-12" type="curve" smooth="yes"/>
			<point x="340" y="-12"/>
			<point x="408" y="46"/>
			<point x="408" y="124" type="curve" smooth="yes"/>
			<point x="408" y="206"/>
			<point x="361" y="231"/>
			<point x="286" y="262" type="curve" smooth="yes"/>
			<point x="212" y="293" type="line" smooth="yes"/>
			<point x="148" y="320"/>
			<point x="110" y="342"/>
			<point x="110" y="398" type="curve" smooth="yes"/>
			<point x="110" y="457"/>
			<point x="160" y="494"/>
			<point x="237" y="494" type="curve" smooth="yes"/>
			<point x="293" y="494"/>
			<point x="338" y="472"/>
			<point x="370" y="440" type="curve"/>
			<point x="390" y="462" type="line"/>
			<point x="358" y="494"/>
			<point x="304" y="522"/>
			<point x="237" y="522" type="curve" smooth="yes"/>
			<point x="146" y="522"/>
			<point x="78" y="472"/>
			<point x="78" y="396" type="curve" smooth="yes"/>
			<point x="78" y="328"/>
			<point x="132" y="292"/>
			<point x="202" y="264" type="curve"/>
			<point x="274" y="234" type="line" smooth="yes"/>
			<point x="332" y="210"/>
			<point x="376" y="190"/>
			<point x="376" y="122" type="curve" smooth="yes"/>
			<point x="376" y="58"/>
			<point x="322" y="16"/>
			<point x="235" y="16" type="curve" smooth="yes"/>
			<point x="167" y="16"/>
			<point x="110" y="44"/>
			<point x="70" y="88" type="curve"/>
			<point x="48" y="64" type="line"/>
			<point x="92" y="20"/>
			<point x="152" y="-12"/>
		</contour>
	</outline>
	<anchor name="aboveUC" x="240" y="562"/>
	<anchor name="baseLC" x="236" y="0"/>
	<anchor name="belowLC" x="250" y="-22"/>
</glyph>
<glyph name="Shcha.sc" format="2">
	<advance width="732"/>
	<outline>
		<contour>
			<point x="666" y="-172" type="line"/>
			<point x="692" y="-172" type="line"/>
			<point x="696" y="12" type="line"/>
			<point x="696" y="28" type="line"/>
			<point x="622" y="28" type="line"/>
			<point x="622" y="0" type="line"/>
			<point x="666" y="0" type="line"/>
		</contour>
		<component base="Sha.sc"/>
	</outline>
</glyph>
<glyph name="Sigma.sc" format="2">
	<advance width="458"/>
	<outline>
		<contour>
			<point x="48" y="0" type="line"/>
			<point x="421" y="0" type="line"/>
			<point x="421" y="27" type="line"/>
			<point x="90" y="27" type="line"/>
			<point x="286" y="259" type="line"/>
			<point x="93" y="484" type="line"/>
			<point x="394" y="484" type="line"/>
			<point x="394" y="510" type="line"/>
			<point x="53" y="510" type="line"/>
			<point x="53" y="493" type="line"/>
			<point x="253" y="259" type="line"/>
			<point x="48" y="18" type="line"/>
		</contour>
	</outline>
</glyph>
<glyph name="Soft.sc" format="2">
	<advance width="500"/>
	<outline>
		<contour>
			<point x="100" y="0" type="line"/>
			<point x="258" y="0" type="line" smooth="yes"/>
			<point x="382" y="0"/>
			<point x="454" y="50"/>
			<point x="454" y="150" type="curve" smooth="yes"/>
			<point x="454" y="246"/>
			<point x="376" y="286"/>
			<point x="256" y="286" type="curve" smooth="yes"/>
			<point x="132" y="286" type="line"/>
			<point x="132" y="510" type="line"/>
			<point x="100" y="510" type="line"/>
		</contour>
		<contour>
			<point x="132" y="28" type="line"/>
			<point x="132" y="258" type="line"/>
			<point x="246" y="258" type="line" smooth="yes"/>
			<point x="362" y="258"/>
			<point x="420" y="226"/>
			<point x="420" y="148" type="curve" smooth="yes"/>
			<point x="420" y="64"/>
			<point x="362" y="28"/>
			<point x="248" y="28" type="curve" smooth="yes"/>
		</contour>
	</outline>
</glyph>
<glyph name="THEY" format="2">
	<advance width="872"/>
	<outline>
		<contour>
			<point x="326" y="-12" type="curve" smooth="yes"/>
			<point x="402" y="-12"/>
			<point x="466" y="60"/>
			<point x="466" y="298" type="curve" smooth="yes"/>
			<point x="466" y="400"/>
			<point x="438" y="530"/>
			<point x="424" y="664" type="curve"/>
			<point x="414" y="666"/>
			<point x="409" y="666"/>
			<point x="402" y="666" type="curve" smooth="yes"/>
			<point x="232" y="666"/>
			<point x="56" y="490"/>
			<point x="56" y="232" type="curve" smooth="yes"/>
			<point x="56" y="122"/>
			<point x="84" y="56"/>
			<point x="116" y="-8" type="curve"/>
			<point x="144" y="4" type="line"/>
			<point x="112" y="68"/>
			<point x="90" y="132"/>
			<point x="90" y="232" type="curve" smooth="yes"/>
			<point x="90" y="476"/>
			<point x="260" y="638"/>
			<point x="396" y="638" type="curve"/>
			<point x="410" y="520"/>
			<point x="434" y="388"/>
			<point x="434" y="294" type="curve" smooth="yes"/>
			<point x="434" y="84"/>
			<point x="382" y="18"/>
			<point x="328" y="18" type="curve" smooth="yes"/>
			<point x="286" y="18"/>
			<point x="262" y="42"/>
			<point x="262" y="86" type="curve" smooth="yes"/>
			<point x="262" y="202"/>
			<point x="350" y="268"/>
			<point x="460" y="296" type="curve" smooth="yes"/>
			<point x="596" y="331" type="line" smooth="yes"/>
			<point x="788" y="380"/>
			<point x="848" y="466"/>
			<point x="848" y="578" type="curve" smooth="yes"/>
			<point x="848" y="630"/>
			<point x="817" y="672"/>
			<point x="762" y="672" type="curve" smooth="yes"/>
			<point x="678" y="672"/>
			<point x="592" y="544"/>
			<point x="592" y="338" type="curve" smooth="yes"/>
			<point x="592" y="108"/>
			<point x="641" y="-12"/>
			<point x="746" y="-12" type="curve" smooth="yes"/>
			<point x="797" y="-12"/>
			<point x="827" y="11"/>
			<point x="854" y="36" type="curve"/>
			<point x="838" y="56" type="line"/>
			<point x="806" y="32"/>
			<point x="788" y="18"/>
			<point x="748" y="18" type="curve" smooth="yes"/>
			<point x="665" y="18"/>
			<point x="626" y="130"/>
			<point x="626" y="342" type="curve" smooth="yes"/>
			<point x="626" y="530"/>
			<point x="705" y="642"/>
			<point x="760" y="642" type="curve" smooth="yes"/>
			<point x="793" y="642"/>
			<point x="814" y="616"/>
			<point x="814" y="578" type="curve" smooth="yes"/>
			<point x="814" y="482"/>
			<point x="756" y="402"/>
			<point x="598" y="361" type="curve" smooth="yes"/>
			<point x="462" y="326" type="line" smooth="yes"/>
			<point x="330" y="292"/>
			<point x="228" y="220"/>
			<point x="228" y="84" type="curve" smooth="yes"/>
			<point x="228" y="26"/>
			<point x="266" y="-12"/>
		</contour>
	</outline>
</glyph>
<glyph name="They" format="2">
	<advance width="842"/>
	<outline>
		<contour>
			<point x="320" y="-12" type="curve" smooth="yes"/>
			<point x="412" y="-12"/>
			<point x="466" y="116"/>
			<point x="466" y="298" type="curve" smooth="yes"/>
			<point x="466" y="417"/>
			<point x="430" y="568"/>
			<point x="414" y="724" type="curve"/>
			<point x="404" y="726"/>
			<point x="399" y="726"/>
			<point x="392" y="726" type="curve" smooth="yes"/>
			<point x="227" y="726"/>
			<point x="56" y="526"/>
			<point x="56" y="232" type="curve" smooth="yes"/>
			<point x="56" y="122"/>
			<point x="84" y="59"/>
			<point x="116" y="-8" type="curve"/>
			<point x="144" y="4" type="line"/>
			<point x="112" y="68"/>
			<point x="90" y="131"/>
			<point x="90" y="232" type="curve" smooth="yes"/>
			<point x="90" y="512"/>
			<point x="254" y="698"/>
			<point x="386" y="698" type="curve"/>
			<point x="402" y="559"/>
			<point x="434" y="404"/>
			<point x="434" y="294" type="curve" smooth="yes"/>
			<point x="434" y="140"/>
			<point x="392" y="18"/>
			<point x="322" y="18" type="curve" smooth="yes"/>
			<point x="288" y="18"/>
			<point x="262" y="38"/>
			<point x="262" y="76" type="curve" smooth="yes"/>
			<point x="262" y="170"/>
			<point x="392" y="210"/>
			<point x="458" y="224" type="curve" smooth="yes"/>
			<point x="746" y="284"/>
			<point x="808" y="324"/>
			<point x="808" y="410" type="curve" smooth="yes"/>
			<point x="808" y="453"/>
			<point x="777" y="490"/>
			<point x="722" y="490" type="curve" smooth="yes"/>
			<point x="648" y="490"/>
			<point x="572" y="394"/>
			<point x="572" y="256" type="curve" smooth="yes"/>
			<point x="572" y="80"/>
			<point x="623" y="-12"/>
			<point x="732" y="-12" type="curve" smooth="yes"/>
			<point x="775" y="-12"/>
			<point x="801" y="6"/>
			<point x="824" y="28" type="curve"/>
			<point x="808" y="48" type="line"/>
			<point x="781" y="28"/>
			<point x="767" y="18"/>
			<point x="734" y="18" type="curve" smooth="yes"/>
			<point x="647" y="18"/>
			<point x="606" y="102"/>
			<point x="606" y="260" type="curve" smooth="yes"/>
			<point x="606" y="378"/>
			<point x="672" y="460"/>
			<point x="720" y="460" type="curve" smooth="yes"/>
			<point x="753" y="460"/>
			<point x="774" y="438"/>
			<point x="774" y="408" type="curve" smooth="yes"/>
			<point x="774" y="350"/>
			<point x="718" y="308"/>
			<point x="581" y="281" type="curve" smooth="yes"/>
			<point x="352" y="236"/>
			<point x="228" y="185"/>
			<point x="228" y="74" type="curve" smooth="yes"/>
			<point x="228" y="20"/>
			<point x="266" y="-12"/>
		</contour>
	</outline>
</glyph>
<glyph name="Thorn.sc" format="2">
	<advance width="496"/>
	<outline>
		<contour>
			<point x="100" y="0" type="line"/>
			<point x="132" y="0" type="line"/>
			<point x="132" y="128" type="line"/>
			<point x="247" y="128" type="line" smooth="yes"/>
			<point x="371" y="128"/>
			<point x="444" y="178"/>
			<point x="444" y="276" type="curve" smooth="yes"/>
			<point x="444" y="379"/>
			<point x="371" y="418"/>
			<point x="247" y="418" type="curve" smooth="yes"/>
			<point x="132" y="418" type="line"/>
			<point x="132" y="510" type="line"/>
			<point x="100" y="510" type="line"/>
		</contour>
		<contour>
			<point x="132" y="156" type="line"/>
			<point x="132" y="390" type="line"/>
			<point x="237" y="390" type="line" smooth="yes"/>
			<point x="354" y="390"/>
			<point x="410" y="363"/>
			<point x="410" y="276" type="curve" smooth="yes"/>
			<point x="410" y="191"/>
			<point x="354" y="156"/>
			<point x="237" y="156" type="curve" smooth="yes"/>
		</contour>
	</outline>
</glyph>
<glyph name="Tse.sc" format="2">
	<advance width="554"/>
	<outline>
		<contour>
			<point x="488" y="-172" type="line"/>
			<point x="514" y="-172" type="line"/>
			<point x="518" y="12" type="line"/>
			<point x="518" y="28" type="line"/>
			<point x="454" y="28" type="line"/>
			<point x="454" y="510" type="line"/>
			<point x="422" y="510" type="line"/>
			<point x="422" y="28" type="line"/>
			<point x="132" y="28" type="line"/>
			<point x="132" y="510" type="line"/>
			<point x="100" y="510" type="line"/>
			<point x="100" y="0" type="line"/>
			<point x="488" y="0" type="line"/>
		</contour>
	</outline>
</glyph>
<glyph name="U.sc" format="2">
	<advance width="564"/>
	<outline>
		<contour>
			<point x="282" y="-12" type="curve" smooth="yes"/>
			<point x="373" y="-12"/>
			<point x="466" y="32"/>
			<point x="466" y="192" type="curve" smooth="yes"/>
			<point x="466" y="510" type="line"/>
			<point x="436" y="510" type="line"/>
			<point x="436" y="198" type="line" smooth="yes"/>
			<point x="436" y="58"/>
			<point x="363" y="18"/>
			<point x="282" y="18" type="curve" smooth="yes"/>
			<point x="201" y="18"/>
			<point x="130" y="58"/>
			<point x="130" y="198" type="curve" smooth="yes"/>
			<point x="130" y="510" type="line"/>
			<point x="98" y="510" type="line"/>
			<point x="98" y="192" type="line" smooth="yes"/>
			<point x="98" y="32"/>
			<point x="190" y="-12"/>
		</contour>
	</outline>
	<anchor name="aboveUC" x="282" y="562"/>
	<anchor name="belowLC" x="282" y="-22"/>
	<anchor name="hornLC" x="444" y="522"/>
	<anchor name="ogonekUC" x="282" y="0"/>
</glyph>
<glyph name="Ubar.sc" format="2">
	<advance width="604"/>
	<outline>
		<contour>
			<point x="20" y="258" type="line"/>
			<point x="580" y="258" type="line"/>
			<point x="580" y="286" type="line"/>
			<point x="120" y="286" type="line"/>
			<point x="20" y="282" type="line"/>
		</contour>
		<component base="U.sc" xOffset="20"/>
	</outline>
	<anchor name="aboveUC" x="300" y="562"/>
	<anchor name="belowLC" x="300" y="-22"/>
</glyph>
<glyph name="V.sc" format="2">
	<advance width="412"/>
	<outline>
		<contour>
			<point x="190" y="0" type="line"/>
			<point x="226" y="0" type="line"/>
			<point x="406" y="510" type="line"/>
			<point x="374" y="510" type="line"/>
			<point x="270" y="210" type="line" smooth="yes"/>
			<point x="248" y="146"/>
			<point x="232" y="100"/>
			<point x="210" y="32" type="curve"/>
			<point x="206" y="32" type="line"/>
			<point x="184" y="100"/>
			<point x="167" y="146"/>
			<point x="145" y="210" type="curve" smooth="yes"/>
			<point x="40" y="510" type="line"/>
			<point x="6" y="510" type="line"/>
		</contour>
	</outline>
	<anchor name="aboveUC" x="210" y="562"/>
	<anchor name="belowLC" x="210" y="-22"/>
</glyph>
<glyph name="Wynn.sc" format="2">
	<advance width="492"/>
	<outline>
		<contour>
			<point x="100" y="-126" type="line"/>
			<point x="132" y="-126" type="line"/>
			<point x="132" y="-2" type="line"/>
			<point x="367" y="126"/>
			<point x="444" y="249"/>
			<point x="444" y="362" type="curve" smooth="yes"/>
			<point x="444" y="480"/>
			<point x="377" y="522"/>
			<point x="292" y="522" type="curve" smooth="yes"/>
			<point x="229" y="522"/>
			<point x="172" y="479"/>
			<point x="132" y="440" type="curve"/>
			<point x="132" y="510" type="line"/>
			<point x="100" y="510" type="line"/>
		</contour>
		<contour>
			<point x="132" y="30" type="curve"/>
			<point x="132" y="406" type="line"/>
			<point x="170" y="450"/>
			<point x="239" y="492"/>
			<point x="290" y="492" type="curve" smooth="yes"/>
			<point x="357" y="492"/>
			<point x="410" y="462"/>
			<point x="410" y="364" type="curve" smooth="yes"/>
			<point x="410" y="266"/>
			<point x="350" y="154"/>
		</contour>
	</outline>
	<anchor name="aboveUC" x="290" y="562"/>
	<anchor name="belowLC" x="270" y="-142"/>
</glyph>
<glyph name="Xi.sc" format="2">
	<advance width="438"/>
	<outline>
		<contour>
			<point x="46" y="0" type="line"/>
			<point x="392" y="0" type="line"/>
			<point x="392" y="28" type="line"/>
			<point x="46" y="28" type="line"/>
		</contour>
		<contour>
			<point x="113" y="258" type="line"/>
			<point x="326" y="258" type="line"/>
			<point x="326" y="286" type="line"/>
			<point x="113" y="286" type="line"/>
		</contour>
		<contour>
			<point x="54" y="482" type="line"/>
			<point x="384" y="482" type="line"/>
			<point x="384" y="510" type="line"/>
			<point x="54" y="510" type="line"/>
		</contour>
	</outline>
</glyph>
<glyph name="Yu.sc" format="2">
	<advance width="763"/>
	<outline>
		<contour>
			<point x="100" y="0" type="line"/>
			<point x="132" y="0" type="line"/>
			<point x="132" y="258" type="line"/>
			<point x="291" y="258" type="line"/>
			<point x="291" y="286" type="line"/>
			<point x="132" y="286" type="line"/>
			<point x="132" y="510" type="line"/>
			<point x="100" y="510" type="line"/>
		</contour>
		<contour>
			<point x="502" y="-12" type="curve" smooth="yes"/>
			<point x="634" y="-12"/>
			<point x="730" y="92"/>
			<point x="730" y="256" type="curve" smooth="yes"/>
			<point x="730" y="420"/>
			<point x="634" y="522"/>
			<point x="502" y="522" type="curve" smooth="yes"/>
			<point x="369" y="522"/>
			<point x="274" y="420"/>
			<point x="274" y="258" type="curve" smooth="yes"/>
			<point x="274" y="92"/>
			<point x="369" y="-12"/>
		</contour>
		<contour>
			<point x="502" y="18" type="curve" smooth="yes"/>
			<point x="385" y="18"/>
			<point x="308" y="110"/>
			<point x="308" y="256" type="curve" smooth="yes"/>
			<point x="308" y="402"/>
			<point x="385" y="492"/>
			<point x="502" y="492" type="curve" smooth="yes"/>
			<point x="618" y="492"/>
			<point x="696" y="402"/>
			<point x="696" y="256" type="curve" smooth="yes"/>
			<point x="696" y="110"/>
			<point x="618" y="18"/>
		</contour>
	</outline>
	<anchor name="aboveUC" x="410" y="562"/>
</glyph>
<glyph name="Z.sc" format="2">
	<advance width="471"/>
	<outline>
		<contour>
			<point x="52" y="0" type="line"/>
			<point x="421" y="0" type="line"/>
			<point x="421" y="28" type="line"/>
			<point x="92" y="28" type="line"/>
			<point x="418" y="492" type="line"/>
			<point x="418" y="510" type="line"/>
			<point x="80" y="510" type="line"/>
			<point x="80" y="482" type="line"/>
			<point x="378" y="482" type="line"/>
			<point x="52" y="18" type="line"/>
		</contour>
	</outline>
	<anchor name="aboveUC" x="246" y="562"/>
	<anchor name="belowLC" x="254" y="-22"/>
</glyph>
<glyph name="be.c" format="2">
	<advance width="510"/>
	<outline>
		<contour>
			<point x="252" y="-12" type="curve" smooth="yes"/>
			<point x="378" y="-12"/>
			<point x="456" y="84"/>
			<point x="456" y="220" type="curve" smooth="yes"/>
			<point x="456" y="344"/>
			<point x="383" y="400"/>
			<point x="294" y="466" type="curve" smooth="yes"/>
			<point x="222" y="520"/>
			<point x="144" y="546"/>
			<point x="144" y="590" type="curve" smooth="yes"/>
			<point x="144" y="657"/>
			<point x="221" y="649"/>
			<point x="366" y="672" type="curve" smooth="yes"/>
			<point x="404" y="678"/>
			<point x="432" y="684"/>
			<point x="458" y="698" type="curve"/>
			<point x="450" y="730" type="line"/>
			<point x="422" y="716"/>
			<point x="410" y="712"/>
			<point x="360" y="704" type="curve" smooth="yes"/>
			<point x="205" y="679"/>
			<point x="112" y="683"/>
			<point x="112" y="588" type="curve" smooth="yes"/>
			<point x="112" y="534"/>
			<point x="200" y="497"/>
			<point x="278" y="440" type="curve" smooth="yes"/>
			<point x="360" y="380"/>
			<point x="424" y="326"/>
			<point x="424" y="218" type="curve" smooth="yes"/>
			<point x="424" y="108"/>
			<point x="368" y="16"/>
			<point x="252" y="16" type="curve" smooth="yes"/>
			<point x="166" y="16"/>
			<point x="86" y="92"/>
			<point x="86" y="198" type="curve" smooth="yes"/>
			<point x="86" y="310"/>
			<point x="162" y="394"/>
			<point x="298" y="426" type="curve"/>
			<point x="278" y="448" type="line"/>
			<point x="138" y="406"/>
			<point x="54" y="330"/>
			<point x="54" y="198" type="curve" smooth="yes"/>
			<point x="54" y="68"/>
			<point x="154" y="-12"/>
		</contour>
	</outline>
</glyph>
<glyph name="brevecmb.cap" format="2">
	<outline>
		<contour>
			<point x="0" y="712" type="curve" smooth="yes"/>
			<point x="87" y="712"/>
			<point x="125" y="779"/>
			<point x="132" y="834" type="curve"/>
			<point x="106" y="838" type="line"/>
			<point x="99" y="786"/>
			<point x="67" y="738"/>
			<point x="0" y="738" type="curve" smooth="yes"/>
			<point x="-67" y="738"/>
			<point x="-99" y="786"/>
			<point x="-106" y="838" type="curve"/>
			<point x="-132" y="834" type="line"/>
			<point x="-125" y="779"/>
			<point x="-87" y="712"/>
		</contour>
	</outline>
	<anchor name="_aboveUC" x="0" y="682"/>
</glyph>
<glyph name="brevehoi" format="2">
	<outline>
		<contour>
			<point x="0" y="570" type="curve" smooth="yes"/>
			<point x="101" y="570"/>
			<point x="138" y="654"/>
			<point x="146" y="716" type="curve"/>
			<point x="120" y="720" type="line"/>
			<point x="112" y="662"/>
			<point x="75" y="596"/>
			<point x="0" y="596" type="curve" smooth="yes"/>
			<point x="-75" y="596"/>
			<point x="-112" y="662"/>
			<point x="-120" y="720" type="curve"/>
			<point x="-146" y="716" type="line"/>
			<point x="-138" y="654"/>
			<point x="-101" y="570"/>
		</contour>
		<contour>
			<point x="-20" y="690" type="line"/>
			<point x="18" y="698"/>
			<point x="64" y="721"/>
			<point x="64" y="766" type="curve" smooth="yes"/>
			<point x="64" y="815"/>
			<point x="10" y="834"/>
			<point x="-48" y="836" type="curve"/>
			<point x="-50" y="810" type="line"/>
			<point x="6" y="808"/>
			<point x="34" y="794"/>
			<point x="34" y="762" type="curve" smooth="yes"/>
			<point x="34" y="738"/>
			<point x="7" y="722"/>
			<point x="-28" y="714" type="curve"/>
		</contour>
	</outline>
	<anchor name="_aboveLC" x="0" y="502"/>
</glyph>
<glyph name="breveinvertedcmb.cap" format="2">
	<outline>
		<contour>
			<point x="-106" y="712" type="line"/>
			<point x="-99" y="764"/>
			<point x="-67" y="812"/>
			<point x="0" y="812" type="curve" smooth="yes"/>
			<point x="67" y="812"/>
			<point x="99" y="764"/>
			<point x="106" y="712" type="curve"/>
			<point x="132" y="716" type="line"/>
			<point x="125" y="771"/>
			<point x="87" y="838"/>
			<point x="0" y="838" type="curve" smooth="yes"/>
			<point x="-87" y="838"/>
			<point x="-125" y="771"/>
			<point x="-132" y="716" type="curve"/>
		</contour>
	</outline>
	<anchor name="_aboveUC" x="0" y="682"/>
</glyph>
<glyph name="caroncmb.a" format="2">
	<outline>
		<contour>
			<point x="-28" y="548" type="line"/>
			<point x="-6" y="548" type="line"/>
			<point x="0" y="704" type="line"/>
			<point x="0" y="752" type="line"/>
			<point x="-30" y="752" type="line"/>
		</contour>
	</outline>
</glyph>
<glyph name="caroncomma.cap" format="2">
	<outline>
		<contour>
			<point x="-10" y="712" type="line"/>
			<point x="10" y="712" type="line"/>
			<point x="150" y="812" type="line"/>
			<point x="110" y="812" type="line"/>
			<point x="2" y="748" type="line"/>
			<point x="-2" y="748" type="line"/>
			<point x="-110" y="812" type="line"/>
			<point x="-150" y="812" type="line"/>
		</contour>
		<component base="commaabovecmb.cap" yOffset="80"/>
	</outline>
	<anchor name="_aboveUC" x="0" y="682"/>
</glyph>
<glyph name="commaturnedabovecmb.cap" format="2">
	<outline>
		<contour>
			<point x="4" y="706" type="curve" smooth="yes"/>
			<point x="28" y="706"/>
			<point x="44" y="722"/>
			<point x="44" y="742" type="curve" smooth="yes"/>
			<point x="44" y="766"/>
			<point x="24" y="776"/>
			<point x="8" y="776" type="curve" smooth="yes"/>
			<point x="-2" y="776"/>
			<point x="-12" y="772"/>
			<point x="-18" y="766" type="curve"/>
			<point x="-18" y="795"/>
			<point x="-6" y="824"/>
			<point x="36" y="844" type="curve"/>
			<point x="22" y="866" type="line"/>
			<point x="-30" y="842"/>
			<point x="-48" y="806"/>
			<point x="-48" y="764" type="curve" smooth="yes"/>
			<point x="-48" y="726"/>
			<point x="-24" y="706"/>
		</contour>
	</outline>
	<anchor name="_aboveUC" x="0" y="682"/>
</glyph>
<glyph name="dieresismacron" format="2">
	<outline>
		<contour>
			<point x="-86" y="602" type="curve" smooth="yes"/>
			<point x="-68" y="602"/>
			<point x="-54" y="616"/>
			<point x="-54" y="634" type="curve" smooth="yes"/>
			<point x="-54" y="652"/>
			<point x="-68" y="666"/>
			<point x="-86" y="666" type="curve" smooth="yes"/>
			<point x="-104" y="666"/>
			<point x="-118" y="652"/>
			<point x="-118" y="634" type="curve" smooth="yes"/>
			<point x="-118" y="616"/>
			<point x="-104" y="602"/>
		</contour>
		<contour>
			<point x="86" y="602" type="curve" smooth="yes"/>
			<point x="104" y="602"/>
			<point x="118" y="616"/>
			<point x="118" y="634" type="curve" smooth="yes"/>
			<point x="118" y="652"/>
			<point x="104" y="666"/>
			<point x="86" y="666" type="curve" smooth="yes"/>
			<point x="68" y="666"/>
			<point x="54" y="652"/>
			<point x="54" y="634" type="curve" smooth="yes"/>
			<point x="54" y="616"/>
			<point x="68" y="602"/>
		</contour>
		<contour>
			<point x="-122" y="746" type="line"/>
			<point x="120" y="746" type="line"/>
			<point x="120" y="774" type="line"/>
			<point x="-122" y="774" type="line"/>
		</contour>
	</outline>
	<anchor name="_aboveLC" x="0" y="502"/>
</glyph>
<glyph name="eogonek.d" format="2">
	<advance width="478"/>
	<outline>
		<contour>
			<point x="272" y="-212" type="curve" smooth="yes"/>
			<point x="302" y="-212"/>
			<point x="326" y="-198"/>
			<point x="342" y="-184" type="curve"/>
			<point x="328" y="-164" type="line"/>
			<point x="310" y="-178"/>
			<point x="296" y="-184"/>
			<point x="274" y="-184" type="curve" smooth="yes"/>
			<point x="244" y="-184"/>
			<point x="216" y="-166"/>
			<point x="216" y="-124" type="curve" smooth="yes"/>
			<point x="216" y="-72"/>
			<point x="252" y="-20"/>
			<point x="320" y="-8" type="curve" smooth="yes"/>
			<point x="365" y="0"/>
			<point x="388" y="14"/>
			<point x="420" y="34" type="curve"/>
			<point x="406" y="56" type="line"/>
			<point x="372" y="32"/>
			<point x="328" y="16"/>
			<point x="274" y="16" type="curve" smooth="yes"/>
			<point x="167" y="16"/>
			<point x="86" y="104"/>
			<point x="86" y="240" type="curve" smooth="yes"/>
			<point x="86" y="388"/>
			<point x="176" y="462"/>
			<point x="260" y="462" type="curve" smooth="yes"/>
			<point x="350" y="462"/>
			<point x="410" y="398"/>
			<point x="410" y="266" type="curve"/>
			<point x="70" y="266" type="line"/>
			<point x="70" y="238" type="line"/>
			<point x="438" y="238" type="line"/>
			<point x="440" y="250"/>
			<point x="440" y="260"/>
			<point x="440" y="270" type="curve" smooth="yes"/>
			<point x="440" y="412"/>
			<point x="370" y="490"/>
			<point x="260" y="490" type="curve" smooth="yes"/>
			<point x="154" y="490"/>
			<point x="54" y="394"/>
			<point x="54" y="238" type="curve" smooth="yes"/>
			<point x="54" y="82"/>
			<point x="152" y="-12"/>
			<point x="272" y="-12" type="curve"/>
			<point x="270" y="2" type="line"/>
			<point x="217" y="-27"/>
			<point x="186" y="-78"/>
			<point x="186" y="-126" type="curve" smooth="yes"/>
			<point x="186" y="-186"/>
			<point x="224" y="-212"/>
		</contour>
	</outline>
	<anchor name="aboveLC" x="260" y="502"/>
	<anchor name="belowLC" x="260" y="-222"/>
</glyph>
<glyph name="exclamdown.sc" format="2">
	<advance width="248"/>
	<outline>
		<contour>
			<point x="108" y="0" type="line"/>
			<point x="140" y="0" type="line"/>
			<point x="140" y="62" type="line"/>
			<point x="136" y="338" type="line"/>
			<point x="112" y="338" type="line"/>
			<point x="108" y="62" type="line"/>
		</contour>
		<contour>
			<point x="124" y="444" type="curve" smooth="yes"/>
			<point x="142" y="444"/>
			<point x="160" y="458"/>
			<point x="160" y="484" type="curve" smooth="yes"/>
			<point x="160" y="508"/>
			<point x="142" y="522"/>
			<point x="124" y="522" type="curve" smooth="yes"/>
			<point x="106" y="522"/>
			<point x="88" y="508"/>
			<point x="88" y="484" type="curve" smooth="yes"/>
			<point x="88" y="458"/>
			<point x="106" y="444"/>
		</contour>
	</outline>
</glyph>
<glyph name="four.dnom" format="2">
	<advance width="360"/>
	<outline>
		<contour>
			<point x="224" y="0" type="line"/>
			<point x="252" y="0" type="line"/>
			<point x="252" y="390" type="line"/>
			<point x="230" y="390" type="line"/>
			<point x="48" y="134" type="line"/>
			<point x="48" y="118" type="line"/>
			<point x="310" y="118" type="line"/>
			<point x="310" y="144" type="line"/>
			<point x="88" y="144" type="line"/>
			<point x="166" y="256" type="line"/>
			<point x="224" y="340" type="line"/>
			<point x="228" y="340" type="line"/>
			<point x="224" y="238" type="line"/>
		</contour>
	</outline>
</glyph>
<glyph name="g.supa" format="2">
	<advance width="364"/>
	<outline>
		<contour>
			<point x="172" y="258" type="curve" smooth="yes"/>
			<point x="254" y="258"/>
			<point x="304" y="310"/>
			<point x="304" y="386" type="curve" smooth="yes"/>
			<point x="304" y="726" type="line"/>
			<point x="282" y="726" type="line"/>
			<point x="278" y="696" type="line"/>
			<point x="274" y="696" type="line"/>
			<point x="246" y="720"/>
			<point x="216" y="734"/>
			<point x="180" y="734" type="curve" smooth="yes"/>
			<point x="104" y="734"/>
			<point x="38" y="672"/>
			<point x="38" y="572" type="curve" smooth="yes"/>
			<point x="38" y="474"/>
			<point x="90" y="412"/>
			<point x="176" y="412" type="curve" smooth="yes"/>
			<point x="216" y="412"/>
			<point x="244" y="434"/>
			<point x="278" y="462" type="curve"/>
			<point x="276" y="410" type="line"/>
			<point x="276" y="390" type="line" smooth="yes"/>
			<point x="276" y="326"/>
			<point x="238" y="286"/>
			<point x="173" y="286" type="curve" smooth="yes"/>
			<point x="138" y="286"/>
			<point x="104" y="296"/>
			<point x="74" y="318" type="curve"/>
			<point x="60" y="294" type="line"/>
			<point x="92" y="272"/>
			<point x="130" y="258"/>
		</contour>
		<contour>
			<point x="178" y="440" type="curve" smooth="yes"/>
			<point x="102" y="440"/>
			<point x="68" y="496"/>
			<point x="68" y="574" type="curve" smooth="yes"/>
			<point x="68" y="650"/>
			<point x="118" y="708"/>
			<point x="178" y="708" type="curve" smooth="yes"/>
			<point x="208" y="708"/>
			<point x="242" y="696"/>
			<point x="276" y="666" type="curve"/>
			<point x="276" y="490" type="line"/>
			<point x="240" y="458"/>
			<point x="210" y="440"/>
		</contour>
	</outline>
</glyph>
<glyph name="ka.d" format="2">
	<advance width="452"/>
	<outline>
		<contour>
			<point x="96" y="0" type="line"/>
			<point x="126" y="0" type="line"/>
			<point x="126" y="236" type="line"/>
			<point x="260" y="236" type="line"/>
			<point x="406" y="0" type="line"/>
			<point x="440" y="0" type="line"/>
			<point x="284" y="250" type="line"/>
			<point x="412" y="478" type="line"/>
			<point x="378" y="478" type="line"/>
			<point x="262" y="264" type="line"/>
			<point x="126" y="264" type="line"/>
			<point x="126" y="722" type="line"/>
			<point x="96" y="722" type="line"/>
		</contour>
	</outline>
</glyph>
<glyph name="kadescender.a" format="2">
	<advance width="494"/>
	<outline>
		<contour>
			<point x="438" y="-172" type="line"/>
			<point x="464" y="-172" type="line"/>
			<point x="468" y="12" type="line"/>
			<point x="468" y="28" type="line"/>
			<point x="414" y="28" type="line"/>
			<point x="414" y="0" type="line"/>
			<point x="438" y="0" type="line"/>
		</contour>
		<component base="ka.a"/>
	</outline>
</glyph>
<glyph name="nine.cap" format="2">
	<advance width="472"/>
	<outline>
		<contour>
			<point x="194" y="-12" type="curve" smooth="yes"/>
			<point x="310" y="-12"/>
			<point x="418" y="85"/>
			<point x="418" y="372" type="curve" smooth="yes"/>
			<point x="418" y="562"/>
			<point x="342" y="672"/>
			<point x="214" y="672" type="curve" smooth="yes"/>
			<point x="122" y="672"/>
			<point x="44" y="584"/>
			<point x="44" y="464" type="curve" smooth="yes"/>
			<point x="44" y="331"/>
			<point x="108" y="256"/>
			<point x="218" y="256" type="curve" smooth="yes"/>
			<point x="286" y="256"/>
			<point x="344" y="295"/>
			<point x="390" y="352" type="curve"/>
			<point x="390" y="392" type="line"/>
			<point x="334" y="315"/>
			<point x="273" y="284"/>
			<point x="220" y="284" type="curve" smooth="yes"/>
			<point x="118" y="284"/>
			<point x="76" y="364"/>
			<point x="76" y="464" type="curve" smooth="yes"/>
			<point x="76" y="564"/>
			<point x="134" y="644"/>
			<point x="212" y="644" type="curve" smooth="yes"/>
			<point x="334" y="644"/>
			<point x="386" y="528"/>
			<point x="386" y="372" type="curve" smooth="yes"/>
			<point x="386" y="107"/>
			<point x="296" y="16"/>
			<point x="196" y="16" type="curve" smooth="yes"/>
			<point x="150" y="16"/>
			<point x="110" y="34"/>
			<point x="78" y="70" type="curve"/>
			<point x="58" y="48" type="line"/>
			<point x="92" y="12"/>
			<point x="134" y="-12"/>
		</contour>
	</outline>
</glyph>
<glyph name="nine.dnom" format="2">
	<advance width="360"/>
	<outline>
		<contour>
			<point x="144" y="-12" type="curve" smooth="yes"/>
			<point x="224" y="-12"/>
			<point x="304" y="46"/>
			<point x="304" y="212" type="curve" smooth="yes"/>
			<point x="304" y="334"/>
			<point x="246" y="402"/>
			<point x="164" y="402" type="curve" smooth="yes"/>
			<point x="94" y="402"/>
			<point x="42" y="346"/>
			<point x="42" y="274" type="curve" smooth="yes"/>
			<point x="42" y="202"/>
			<point x="84" y="148"/>
			<point x="164" y="148" type="curve" smooth="yes"/>
			<point x="208" y="148"/>
			<point x="246" y="166"/>
			<point x="280" y="200" type="curve"/>
			<point x="280" y="235" type="line"/>
			<point x="238" y="188"/>
			<point x="206" y="174"/>
			<point x="166" y="174" type="curve" smooth="yes"/>
			<point x="104" y="174"/>
			<point x="72" y="218"/>
			<point x="72" y="274" type="curve" smooth="yes"/>
			<point x="72" y="330"/>
			<point x="108" y="376"/>
			<point x="162" y="376" type="curve" smooth="yes"/>
			<point x="232" y="376"/>
			<point x="274" y="314"/>
			<point x="274" y="210" type="curve" smooth="yes"/>
			<point x="274" y="68"/>
			<point x="206" y="14"/>
			<point x="146" y="14" type="curve" smooth="yes"/>
			<point x="118" y="14"/>
			<point x="96" y="24"/>
			<point x="78" y="36" type="curve"/>
			<point x="64" y="10" type="line"/>
			<point x="86" y="-4"/>
			<point x="108" y="-12"/>
		</contour>
	</outline>
</glyph>
<glyph name="one.sc" format="2">
	<advance width="324"/>
	<outline>
		<contour>
			<point x="162" y="0" type="line"/>
			<point x="192" y="0" type="line"/>
			<point x="192" y="510" type="line"/>
			<point x="166" y="510" type="line"/>
			<point x="140" y="497"/>
			<point x="105" y="486"/>
			<point x="60" y="479" type="curve"/>
			<point x="60" y="457" type="line"/>
			<point x="162" y="457" type="line"/>
		</contour>
	</outline>
</glyph>
<glyph name="parenleft.dnom" format="2">
	<advance width="212"/>
	<outline>
		<contour>
			<point x="152" y="-70" type="curve"/>
			<point x="170" y="-56" type="line"/>
			<point x="114" y="22"/>
			<point x="96" y="106"/>
			<point x="96" y="194" type="curve" smooth="yes"/>
			<point x="96" y="282"/>
			<point x="114" y="366"/>
			<point x="170" y="442" type="curve"/>
			<point x="152" y="456" type="line"/>
			<point x="96" y="380"/>
			<point x="66" y="300"/>
			<point x="66" y="194" type="curve" smooth="yes"/>
			<point x="66" y="86"/>
			<point x="96" y="6"/>
		</contour>
	</outline>
</glyph>
<glyph name="parenright.dnom" format="2">
	<advance width="212"/>
	<outline>
		<contour>
			<point x="62" y="-70" type="line"/>
			<point x="116" y="6"/>
			<point x="146" y="86"/>
			<point x="146" y="194" type="curve" smooth="yes"/>
			<point x="146" y="300"/>
			<point x="116" y="380"/>
			<point x="62" y="456" type="curve"/>
			<point x="42" y="442" type="line"/>
			<point x="98" y="366"/>
			<point x="116" y="282"/>
			<point x="116" y="194" type="curve" smooth="yes"/>
			<point x="116" y="106"/>
			<point x="98" y="22"/>
			<point x="42" y="-56" type="curve"/>
		</contour>
	</outline>
</glyph>
<glyph name="seven.onum" format="2">
	<advance width="468"/>
	<outline>
		<contour>
			<point x="182" y="-70" type="curve"/>
			<point x="216" y="-70" type="line"/>
			<point x="226" y="180"/>
			<point x="264" y="346"/>
			<point x="416" y="552" type="curve"/>
			<point x="416" y="570" type="line"/>
			<point x="44" y="570" type="line"/>
			<point x="44" y="542" type="line"/>
			<point x="374" y="542" type="line"/>
			<point x="246" y="360"/>
			<point x="192" y="194"/>
		</contour>
	</outline>
</glyph>
<glyph name="seven.sc" format="2">
	<advance width="404"/>
	<outline>
		<contour>
			<point x="156" y="0" type="curve"/>
			<point x="189" y="0" type="line"/>
			<point x="199" y="199"/>
			<point x="233" y="329"/>
			<point x="370" y="493" type="curve"/>
			<point x="370" y="510" type="line"/>
			<point x="33" y="510" type="line"/>
			<point x="33" y="483" type="line"/>
			<point x="327" y="483" type="line"/>
			<point x="213" y="338"/>
			<point x="165" y="208"/>
		</contour>
	</outline>
</glyph>
<glyph name="seven.tnum" format="2">
	<advance width="472"/>
	<outline>
		<contour>
			<point x="192" y="-70" type="curve"/>
			<point x="226" y="-70" type="line"/>
			<point x="236" y="180"/>
			<point x="276" y="346"/>
			<point x="430" y="552" type="curve"/>
			<point x="430" y="570" type="line"/>
			<point x="44" y="570" type="line"/>
			<point x="44" y="542" type="line"/>
			<point x="388" y="542" type="line"/>
			<point x="258" y="360"/>
			<point x="202" y="194"/>
		</contour>
	</outline>
</glyph>
<glyph name="shcha.c" format="2">
	<advance width="806"/>
	<outline>
		<contour>
			<point x="744" y="-172" type="line"/>
			<point x="770" y="-172" type="line"/>
			<point x="774" y="12" type="line"/>
			<point x="774" y="28" type="line"/>
			<point x="760" y="26"/>
			<point x="753" y="26"/>
			<point x="746" y="26" type="curve" smooth="yes"/>
			<point x="724" y="26"/>
			<point x="710" y="36"/>
			<point x="710" y="68" type="curve" smooth="yes"/>
			<point x="710" y="478" type="line"/>
			<point x="680" y="478" type="line"/>
			<point x="680" y="112" type="line"/>
			<point x="624" y="48"/>
			<point x="574" y="16"/>
			<point x="528" y="16" type="curve" smooth="yes"/>
			<point x="450" y="16"/>
			<point x="414" y="68"/>
			<point x="414" y="174" type="curve" smooth="yes"/>
			<point x="414" y="478" type="line"/>
			<point x="384" y="478" type="line"/>
			<point x="384" y="112" type="line"/>
			<point x="328" y="48"/>
			<point x="280" y="16"/>
			<point x="232" y="16" type="curve" smooth="yes"/>
			<point x="154" y="16"/>
			<point x="118" y="68"/>
			<point x="118" y="174" type="curve" smooth="yes"/>
			<point x="118" y="478" type="line"/>
			<point x="88" y="478" type="line"/>
			<point x="88" y="170" type="line" smooth="yes"/>
			<point x="88" y="46"/>
			<point x="136" y="-12"/>
			<point x="230" y="-12" type="curve" smooth="yes"/>
			<point x="284" y="-12"/>
			<point x="338" y="26"/>
			<point x="394" y="88" type="curve"/>
			<point x="410" y="28"/>
			<point x="448" y="-12"/>
			<point x="526" y="-12" type="curve" smooth="yes"/>
			<point x="578" y="-12"/>
			<point x="634" y="26"/>
			<point x="678" y="76" type="curve"/>
			<point x="680" y="76" type="line"/>
			<point x="680" y="22"/>
			<point x="700" y="0"/>
			<point x="744" y="0" type="curve"/>
		</contour>
	</outline>
</glyph>
<glyph name="six.cap" format="2">
	<advance width="472"/>
	<outline>
		<contour>
			<point x="260" y="-12" type="curve" smooth="yes"/>
			<point x="352" y="-12"/>
			<point x="430" y="76"/>
			<point x="430" y="196" type="curve" smooth="yes"/>
			<point x="430" y="331"/>
			<point x="366" y="404"/>
			<point x="254" y="404" type="curve" smooth="yes"/>
			<point x="190" y="404"/>
			<point x="130" y="366"/>
			<point x="84" y="308" type="curve"/>
			<point x="84" y="268" type="line"/>
			<point x="140" y="346"/>
			<point x="204" y="376"/>
			<point x="252" y="376" type="curve" smooth="yes"/>
			<point x="356" y="376"/>
			<point x="398" y="297"/>
			<point x="398" y="196" type="curve" smooth="yes"/>
			<point x="398" y="96"/>
			<point x="340" y="16"/>
			<point x="262" y="16" type="curve" smooth="yes"/>
			<point x="140" y="16"/>
			<point x="88" y="141"/>
			<point x="88" y="308" type="curve" smooth="yes"/>
			<point x="88" y="558"/>
			<point x="180" y="644"/>
			<point x="286" y="644" type="curve" smooth="yes"/>
			<point x="328" y="644"/>
			<point x="367" y="626"/>
			<point x="396" y="590" type="curve"/>
			<point x="416" y="612" type="line"/>
			<point x="384" y="648"/>
			<point x="344" y="672"/>
			<point x="288" y="672" type="curve" smooth="yes"/>
			<point x="166" y="672"/>
			<point x="56" y="580"/>
			<point x="56" y="308" type="curve" smooth="yes"/>
			<point x="56" y="105"/>
			<point x="132" y="-12"/>
		</contour>
	</outline>
</glyph>
<glyph name="three.cap" format="2">
	<advance width="472"/>
	<outline>
		<contour>
			<point x="230" y="-12" type="curve" smooth="yes"/>
			<point x="338" y="-12"/>
			<point x="420" y="60"/>
			<point x="420" y="174" type="curve" smooth="yes"/>
			<point x="420" y="268"/>
			<point x="352" y="330"/>
			<point x="272" y="346" type="curve"/>
			<point x="272" y="350" type="line"/>
			<point x="342" y="373"/>
			<point x="396" y="427"/>
			<point x="396" y="517" type="curve" smooth="yes"/>
			<point x="396" y="614"/>
			<point x="322" y="672"/>
			<point x="228" y="672" type="curve" smooth="yes"/>
			<point x="154" y="672"/>
			<point x="100" y="636"/>
			<point x="58" y="595" type="curve"/>
			<point x="78" y="573" type="line"/>
			<point x="114" y="612"/>
			<point x="168" y="643"/>
			<point x="228" y="644" type="curve" smooth="yes"/>
			<point x="310" y="643"/>
			<point x="364" y="591"/>
			<point x="364" y="515" type="curve" smooth="yes"/>
			<point x="364" y="431"/>
			<point x="310" y="362"/>
			<point x="158" y="362" type="curve"/>
			<point x="158" y="332" type="line"/>
			<point x="320" y="332"/>
			<point x="388" y="266"/>
			<point x="388" y="172" type="curve" smooth="yes"/>
			<point x="388" y="78"/>
			<point x="322" y="16"/>
			<point x="232" y="16" type="curve" smooth="yes"/>
			<point x="140" y="16"/>
			<point x="88" y="58"/>
			<point x="50" y="100" type="curve"/>
			<point x="30" y="78" type="line"/>
			<point x="70" y="36"/>
			<point x="128" y="-12"/>
		</contour>
	</outline>
</glyph>
<glyph name="tonoscmb" format="2">
	<outline>
		<contour>
			<point x="-30" y="560" type="line"/>
			<point x="-6" y="560" type="line"/>
			<point x="50" y="726" type="line"/>
			<point x="48" y="730" type="line"/>
			<point x="14" y="730" type="line"/>
		</contour>
	</outline>
	<anchor name="_aboveLC" x="0" y="502"/>
</glyph>
<glyph name="two.onum" format="2">
	<advance width="480"/>
	<outline>
		<contour>
			<point x="50" y="0" type="line"/>
			<point x="426" y="0" type="line"/>
			<point x="426" y="28" type="line"/>
			<point x="210" y="28" type="line" smooth="yes"/>
			<point x="174" y="28"/>
			<point x="138" y="26"/>
			<point x="102" y="24" type="curve"/>
			<point x="274" y="184"/>
			<point x="394" y="286"/>
			<point x="394" y="404" type="curve" smooth="yes"/>
			<point x="394" y="510"/>
			<point x="334" y="580"/>
			<point x="222" y="580" type="curve" smooth="yes"/>
			<point x="146" y="580"/>
			<point x="94" y="538"/>
			<point x="48" y="486" type="curve"/>
			<point x="70" y="466" type="line"/>
			<point x="110" y="516"/>
			<point x="160" y="552"/>
			<point x="220" y="552" type="curve" smooth="yes"/>
			<point x="322" y="552"/>
			<point x="362" y="486"/>
			<point x="362" y="404" type="curve" smooth="yes"/>
			<point x="362" y="302"/>
			<point x="264" y="204"/>
			<point x="50" y="20" type="curve"/>
		</contour>
	</outline>
</glyph>
<glyph name="two.tnum" format="2">
	<advance width="472"/>
	<outline>
		<contour>
			<point x="42" y="0" type="line"/>
			<point x="426" y="0" type="line"/>
			<point x="426" y="28" type="line"/>
			<point x="202" y="28" type="line" smooth="yes"/>
			<point x="166" y="28"/>
			<point x="130" y="26"/>
			<point x="94" y="24" type="curve"/>
			<point x="266" y="184"/>
			<point x="394" y="286"/>
			<point x="394" y="404" type="curve" smooth="yes"/>
			<point x="394" y="510"/>
			<point x="330" y="580"/>
			<point x="218" y="580" type="curve" smooth="yes"/>
			<point x="142" y="580"/>
			<point x="86" y="538"/>
			<point x="40" y="486" type="curve"/>
			<point x="62" y="466" type="line"/>
			<point x="102" y="516"/>
			<point x="156" y="552"/>
			<point x="216" y="552" type="curve" smooth="yes"/>
			<point x="318" y="552"/>
			<point x="362" y="486"/>
			<point x="362" y="404" type="curve" smooth="yes"/>
			<point x="362" y="302"/>
			<point x="256" y="204"/>
			<point x="42" y="20" type="curve"/>
		</contour>
	</outline>
</glyph>
<glyph name="zero.0" format="2">
	<advance width="472"/>
	<outline>
		<contour>
			<point x="236" y="-12" type="curve" smooth="yes"/>
			<point x="356" y="-12"/>
			<point x="422" y="110"/>
			<point x="422" y="322" type="curve" smooth="yes"/>
			<point x="422" y="534"/>
			<point x="356" y="652"/>
			<point x="236" y="652" type="curve" smooth="yes"/>
			<point x="116" y="652"/>
			<point x="50" y="534"/>
			<point x="50" y="322" type="curve" smooth="yes"/>
			<point x="50" y="110"/>
			<point x="116" y="-12"/>
		</contour>
		<contour>
			<point x="236" y="16" type="curve" smooth="yes"/>
			<point x="142" y="16"/>
			<point x="82" y="124"/>
			<point x="82" y="322" type="curve" smooth="yes"/>
			<point x="82" y="520"/>
			<point x="142" y="624"/>
			<point x="236" y="624" type="curve" smooth="yes"/>
			<point x="330" y="624"/>
			<point x="390" y="520"/>
			<point x="390" y="322" type="curve" smooth="yes"/>
			<point x="390" y="124"/>
			<point x="330" y="16"/>
		</contour>
		<contour>
			<point x="236" y="270" type="curve" smooth="yes"/>
			<point x="262" y="270"/>
			<point x="288" y="290"/>
			<point x="288" y="328" type="curve" smooth="yes"/>
			<point x="288" y="366"/>
			<point x="262" y="386"/>
			<point x="236" y="386" type="curve" smooth="yes"/>
			<point x="210" y="386"/>
			<point x="184" y="366"/>
			<point x="184" y="328" type="curve" smooth="yes"/>
			<point x="184" y="290"/>
			<point x="210" y="270"/>
		</contour>
	</outline>
</glyph>
<glyph name="zero.0p" format="2">
	<advance width="504"/>
	<outline>
		<contour>
			<point x="252" y="-12" type="curve" smooth="yes"/>
			<point x="378" y="-12"/>
			<point x="448" y="110"/>
			<point x="448" y="322" type="curve" smooth="yes"/>
			<point x="448" y="534"/>
			<point x="378" y="652"/>
			<point x="252" y="652" type="curve" smooth="yes"/>
			<point x="126" y="652"/>
			<point x="56" y="534"/>
			<point x="56" y="322" type="curve" smooth="yes"/>
			<point x="56" y="110"/>
			<point x="126" y="-12"/>
		</contour>
		<contour>
			<point x="252" y="16" type="curve" smooth="yes"/>
			<point x="152" y="16"/>
			<point x="88" y="124"/>
			<point x="88" y="322" type="curve" smooth="yes"/>
			<point x="88" y="520"/>
			<point x="152" y="624"/>
			<point x="252" y="624" type="curve" smooth="yes"/>
			<point x="352" y="624"/>
			<point x="416" y="520"/>
			<point x="416" y="322" type="curve" smooth="yes"/>
			<point x="416" y="124"/>
			<point x="352" y="16"/>
		</contour>
		<contour>
			<point x="252" y="270" type="curve" smooth="yes"/>
			<point x="278" y="270"/>
			<point x="304" y="290"/>
			<point x="304" y="328" type="curve" smooth="yes"/>
			<point x="304" y="366"/>
			<point x="278" y="386"/>
			<point x="252" y="386" type="curve" smooth="yes"/>
			<point x="226" y="386"/>
			<point x="200" y="366"/>
			<point x="200" y="328" type="curve" smooth="yes"/>
			<point x="200" y="290"/>
			<point x="226" y="270"/>
		</contour>
	</outline>
</glyph>
